<mxfile host="Electron" modified="2023-08-01T13:29:39.198Z" agent="Mozilla/5.0 (Macintosh; Intel Mac OS X 10_15_7) AppleWebKit/537.36 (KHTML, like Gecko) draw.io/21.6.5 Chrome/114.0.5735.243 Electron/25.3.1 Safari/537.36" etag="dsFK-U3OC5hftj7DN64y" version="21.6.5" type="device">
  <diagram name="Page-1" id="cC1z7CKyvJOYn-Dzu_lR">
    <mxGraphModel dx="2987" dy="832" grid="1" gridSize="10" guides="1" tooltips="1" connect="1" arrows="1" fold="1" page="1" pageScale="1" pageWidth="1169" pageHeight="827" math="0" shadow="0">
      <root>
        <mxCell id="0" />
        <mxCell id="1" parent="0" />
        <mxCell id="2DVnkMtIj6a856E2mvm5-2" value="" style="shape=image;verticalLabelPosition=bottom;labelBackgroundColor=default;verticalAlign=top;aspect=fixed;imageAspect=0;image=data:image/png,iVBORw0KGgoAAAANSUhEUgAAB3MAAAGnCAYAAACtoH3oAAABX2lDQ1BJQ0MgUHJvZmlsZQAAKJF1kF8rg3EUxz9jIn/iArmQ5kbUrLXtQrmakcjFmsmfG549m422+fVskty4deNK8grkFdiNxDtQauSKJMql2g3rcZ4N28ip0/n07XvO7/wO1LVqSiXtQCqdNUKTY46FxSVH4zNN2GjDg0vTM8ofDM6Ihe9aG4W8eCWuh61Zr4ORldPH9dudrtG9p3x/y19/TTRHYxld6oekT1dGFmxu4eBWVlm8K9xpyFLCBxbHy3xicaTMZyVPOBQQvhLu0BNaVPhe2Bmp0uNVnEpu6l87WNu3xtJzs1J7JHuZYRIHc1LDhPAzzxTjTPzT4yv1BNhAsY3BGnESZGWCXxRFkpjwFGl0XDiFPbglvdatf9+woqluGDmSpx4q2vIt5Pqgfb+iDbzId6bh8lxphvZzWVvBnln1esrckoOGQ9N8m4fGISjemOZ7zjSLx1B/BxeFT+YtZP1HcNYdAAAAVmVYSWZNTQAqAAAACAABh2kABAAAAAEAAAAaAAAAAAADkoYABwAAABIAAABEoAIABAAAAAEAAAdzoAMABAAAAAEAAAGnAAAAAEFTQ0lJAAAAU2NyZWVuc2hvdGSZl1cAAAHXaVRYdFhNTDpjb20uYWRvYmUueG1wAAAAAAA8eDp4bXBtZXRhIHhtbG5zOng9ImFkb2JlOm5zOm1ldGEvIiB4OnhtcHRrPSJYTVAgQ29yZSA2LjAuMCI+CiAgIDxyZGY6UkRGIHhtbG5zOnJkZj0iaHR0cDovL3d3dy53My5vcmcvMTk5OS8wMi8yMi1yZGYtc3ludGF4LW5zIyI+CiAgICAgIDxyZGY6RGVzY3JpcHRpb24gcmRmOmFib3V0PSIiCiAgICAgICAgICAgIHhtbG5zOmV4aWY9Imh0dHA6Ly9ucy5hZG9iZS5jb20vZXhpZi8xLjAvIj4KICAgICAgICAgPGV4aWY6UGl4ZWxZRGltZW5zaW9uPjQyMzwvZXhpZjpQaXhlbFlEaW1lbnNpb24+CiAgICAgICAgIDxleGlmOlBpeGVsWERpbWVuc2lvbj4xOTA3PC9leGlmOlBpeGVsWERpbWVuc2lvbj4KICAgICAgICAgPGV4aWY6VXNlckNvbW1lbnQ+U2NyZWVuc2hvdDwvZXhpZjpVc2VyQ29tbWVudD4KICAgICAgPC9yZGY6RGVzY3JpcHRpb24+CiAgIDwvcmRmOlJERj4KPC94OnhtcG1ldGE+CpEpPhkAAEAASURBVHgB7N0HfBTF28Dxh4SWUAIEEkIvijRRQJEufxRBpIpgo0hRbIhKEwsqSLEgCKjYG1iQKtIEFfRVmoAUpYgoVSCEmhAI7d1nwh53yV1yCZfcJfkNn+T2tszMfvdIJvvszOQ6HnvigpAQQAABBBBAAAEEEEAAAQQQQAABBBBAAAEEEEAAAQQQQAABBAJKICigakNlEEAAAQQQQAABBBBAAAEEEEAAAQQQQAABBBBAAAEEEEAAAQSMAMFcPggIIIAAAggggAACCCCAAAIIIIAAAggggAACCCCAAAIIIIBAAAoQzA3Ai0KVEEAAAQQQQAABBBBAAAEEEEAAAQQQQAABBBBAAAEEEEAAAYK5fAYQQAABBBBAAAEEEEAAAQQQQAABBBBAAAEEEEAAAQQQQACBABTInVKdzp45J/HxJ+XC+Qsp7cY2BBBAAAEEEEAAAT8L5ArKJSEhoZI7T3CqNaGNlyoROyCAAAIIIIAAAgEjQDsvYC4FFUEAAQQQQAABBHwq4G07L8VgrgZyixYpat0YzO/TypEZAggggAACCCCAgG8F4uPj5cjRo1IoT6FUM6aNlyoROyCAAAIIIIAAAgEjQDsvYC4FFUEAAQQQQAABBHwq4G07L8VhlrVHLoFcn14XMkMAAQQQQAABBDJEICQkxOvRVGjjZcglIFMEEEAAAQQQQCBDBGjnZQgrmSKAAAIIIIAAAn4X8Ladl2Iw1+9nQQUQQAABBBBAAAEEEEAAAQQQQAABBBBAAAEEEEAAAQQQQACBHCpAMDeHXnhOGwEEEEAAAQQQQAABBBBAAAEEEEAAAQQQQAABBBBAAAEEAluAYG5gXx9qhwACCCCAAAIIIIAAAggggAACCCCAAAIIIIAAAggggAACOVSAYG4OvfCcNgIIIIAAAggggAACCCCAAAIIIIAAAggggAACCCCAAAIIBLYAwdzAvj7UDgEEEEAAAQQQQAABBBBAAAEEEEAAAQQQQAABBBBAAAEEcqgAwdwceuE5bQQQQAABBBBAAAEEEEAAAQQQQAABBBBAAAEEEEAAAQQQCGwBgrmBfX2oHQIIIIAAAggggAACCCCAAAIIIIAAAggggAACCCCAAAII5FABgrk59MJz2ggggAACCCCAAAIIIIAAAggggAACCCCAAAIIIIAAAgggENgCBHMD+/pQOwQQQAABBBBAAAEEEEAAAQQQQAABBBBAAAEEEEAAAQQQyKECuX193keOHJH/+3W5ybZ1q5YSHBzskyLOnTsnAwY/JVElS8qQQQN8kieZeBY4deqULP7+B4mMiJB611+XbMfF338vZxLOSOtbW8nOnbtkw6ZNUr5cWal19dXJ9t2/f7+sXrNWSkdFSZ06tR3bl69YKYdiYqTKlVfIVVWqONb7ciEuLk7Wb9goW7ZslcJhhaVa1apSo3o1RxFpOU89aN++/2TNunWO43WhXNkypv758+d3rHe3n70xvFgxadigvv2WVwQQQAABBAJWYNeu3bJ+48YU63d1jRpSoUL5FPe53I0rVq6S6EOHpNUtLSRPnjyXm12aj3/nvQ9krfX7//VXX5YCBQqk+XgOQAABBBBAAAEEAlkgo+7l6TnTjgrkK++fuv21/W/ZsnWr1LuurkRGRvqnEpSKAAIIIIBAFhPweTB3+sxZMvrlVw2Dp0Bgakbrfl8v8xYskPZt28jVNWua3Q8fPiLfzP3W3EAb+OTjPgsSp1aXnLr9+IkT0v+JASboOOWTj5IxPP3s8xJjBWJ3WMHc+FPxZt8rr6gsi+Z/m2zfT6dMlcnvvi/PDB3iCOZqEPWBhx4RDbbWv6GefP7ZJ8mOu9wVf/y5We5/8GHRYLJzuuP2jjL8hWGiwde0nKfmsX7DBnOuzvnZy6NHjpA7O99h3qa0nwZyCebaarwigAACCASywKrffpPBTz2dYhVHjnjR62DuGxMnSVBQsPR75KEU80y68V0rmLr0p5/k999WZWgw9/Dhw/LWO+/KNbVqSdvbWjuqMXPWLNGbTrv37JGqV13lWM8CAggggAACCCCQHQR8cS+PdlTW/CSkt32uZzt7zjey6c8/pd/DD0uY1YHC27R02TJz7/iDdycTzPUWjf0QQAABBHK8gO+DuTNmOlDnfjvPba9Oxw4eFrb99Zd8+NEnoj097GBuiRLF5cfFi6wAXD4CuR7c/LVab2pqIFdvcm7b9pdUqXKloyrnz5+Xr2fMMu9vswK/dlr2088mkKvvtbeN9mQtVSrK3uyT10f69TeBXA0iN23cWPbs3SuT3npb9I+Uq6+uKd3uvSfd5dx9Zxe5o9PtkpCQIPp5feW112XoM89JxQoVXD7zul+njh1cygkrEubynjcIIIAAAggEqkCzpk1l+pefO6rXo/f95ve387q09Mp9/8OPpVChQmkO5joqkMELR44eNW3Qu7p0dgnmfjn1Mzl0KEautEYTISGAAAIIIIAAAtlNYLoP7uXRjsqan4rLaZ8vte7tacebnj26pymYmzWlqDUCCCCAAAL+FfBpMFd7QmpAr8XNN1lD0f0us7+Za3pjOg8/q6d78uRJMxTz8uUrTO/IutbQuzff1NxIfDt/gQmK6ZsnBg6WzdbwuI89+rCEhobKV19/LcXDi0uvnj3k+x9+lNW/rZG2bW5zGTZ37rz58scff1qBto5yReXKosMz637LV6wQ7d1bs2YNub1D+xR7dbzy2lgpU6aM1Kl9rcz9dr4knEmQ1q1aSe1rrxENQv78f/8nxYuXkI7t2yZ7gmzrtm3yf7/8Klu3bpNKlSpJlztul2LWsLp2uty8f/lluWz/+29TlyaNG0lJa9hpO3319XT5559/peu9d8uMmbNl33//yQvPPSv6lF2RsDB5sO/99q6ijWzt5VKiRAnpdV93x/r0LnSxeqSOHP2yLPxusUsw93erl7X24NWeqM511af3NN17910y9YsvTU/s+3v3Sm/xyY7b8c8/smv3bvlfsxuld8/7zHa9AavB1uEvjTKfhWQHpWFF6dKlzDXQQ26od70Utm5M6+dVP2fOw1Lrfs5DS6ehCHZFAAEEEEDA7wLFi4dbbZ5wRz3sNp27320HDh602ki/yNq166w2UEVp1LCBmd5ADz567JhMfuc9EwjWUTnGvPKa+f14i9Vm1KQPdc2cPVt0WOeCBQvKTc3/Z443G738pu3LGbNmm6kV9JDrrGHb9EGyvHnzOnLQduFv1tQP+vs6xmoX1rLahW1uu01CQvLLRmvKiFfHjjP7fjntaylcuLB0sNp6+tDad0u+N22sxx971Oqdu9dqZ82yeu9eLbdaU4rYaYM1HPX8BYtMu0DbH5pSaxfax9qvdltO2y6zv/nGeDSof4OZ1kKHolv03RJj2L5dW5f2rx5v/H/+P/nN8o+w2netb23p0ov4svP2cG21bJ06Q9vIHTu0k5WrVssay3jokEHG42B0tDz8YF/Ls5DuapI+XKfXq98jjxh7e739qu3lKGt6Dn0YT6+ptlsbWW3JZjc2NX872Pul1s7fu2+ffDblc/NZio2NlR+XLhO1089m0mS30XXEmAULF1kPBB4wn9F21t8aztPGpPY5sy26dO5kHHTEoerVqsntt3eQuNg40b9V/rHaqfq3T+NGDZPlrdPV6N9IwbmDrXNuYNqyznXV6zxv3gLZtn27adfqudSsUd3sYp+vfmb0/+oiq12uD8I2sRx1nXNK7Tx035T+v9h5aT6p1dnel1cEEEAAgcAU8PZeXkq/F2hHpdJGy8R2lLefstTa5/bv+BVWO0/b5w3q17Pud13vaLu8+fZkE8jV8vQ+23V164h9X8+bdoa39WQ/BBBAAAEEEEgU8Gkwd978+SbXDtZNEg2avfv+B7LMuqnUssXNDu/4+FPSo9f9smbtWsc6XdBg4BhrmNrff//dZb3ewOnTq6cJ5upQvXqzQoO5QUFBJv8T1nDAOryfJu0Fqg0IDR7qTSNNY159TT6weoE4p6mffyHTvpjqcjPIebuWU65sWesm32FH71HN44E+vU2Z9r5602fD2tWmUaPr9Ebfgw8/ajbrfGp6s1IbN7NnTJPKVmBXU3rzXrR4iTz0SD+Th37Tm4xaxqzpX5mgta5btGixGYLwx6VLTVBdt7886iX5dfly2WQFuPXmVVRUYvBXg+HvvPe+PNT3AT30spPeLNVg7kzremnw3U7zFy0yi7c79U7VG3J6PhUrVpAn+vczwVx9CtRu9NnHXs5rVMko47Nh4yb5e8cOh7/2Hvrw/XcuJ2u3x0ZElDDrtdcOCQEEEEAAgZwm8O+/O6Vtx06OdpN9/hPGvy5tWt8qGkjTNp2ddDl37tyiwVxtE3a+616zyW4/ffzpZ/LCsGele9fE9fZxnl71ZlTrth3MiBx2Hl98NU2+s4JZb7850XFY0nbhVGvLZ1M/lymffCy7d+8xD+TZO2sd9QEtDebabSxtXxYPL2bag9pWdA7matBQj9GH7TR50y60y7Jf7XJ01BINDmvSh956We1jHbXGTu9/+JFV548c0zbs3LlL2nS43fjb568B0zfGjXX0ME5v3qldW63Tpj/+MCaLv08Meuu6flZ7UOc51r8Haljtd3vYaq3r6+MnSK2rr5bBAwforsmStpf1IUAd+UTb05q0/a5/U0yaMN5xEzHp9bT3s9v50dGJ5TvXy92DCHqc3UbX6WIcZVr2f1jn9uzTQ3UX81BCap8z28L5GuqxK1atkr+s0Vz0wVdNel3793vE+kr828Hd30h6zfUhzeHPDzPHOF9n9ZlnPQT7svW3zuS3Jpn/S/b5/mT9/aXBfzvpuT33zFDTa0bX+eL/iwbnvamzXQdeEUAAAQQCV8Cbe3la+6S/d2lHpd5G80c7yttPWkrtc/0d3+2+XqIPpdlJ25bO7RJ9aMxOi637odqBRu/redvOsI/lFQEEEEAAAQS8EwjybrfU99In9OzhdJvdeKPpDaBHzZ49x+XgV8e+bm7aaW/QP9avkxW//GRu5kyzepVus4bo1ZslOveopnGvvSKrl2sv2Es9QuzM9El2vVn1jTWU89mzZ81qDdxpIFdvFukNBm1YaBC2tRVo3PT7Gvlr8yZ5/LF+JrD50Sef2lm5fdVenSOseVW3bFpvbrToTnozauqnH5l6d76jkzlOhxTR9N9/+00gV2/s/bz0e9m47jcTNNSbQS+OGGn2sb+lNW/traKBXD3fhd9+I9u3/GFu2mjefR5IPudcBSuQvvz/llnzyq00RXay5ojVtOSHH8yrftMeB5ratb3NvF7uN72hpL1v9dz0qU5N+pmY803iHLotLva81vV2g0+HH9Zey9p7RW9sbd6yRTf7JGkPmwcf6GM+Dy1a3Sbde/YWvfGpgV1fJ32g4MOPEz9Pta3e3M7pV6tnxVuT33H50l4TJAQQQAABBLKTQO++D5oA2KQ3xpn21uKF80y75bHHnzS9S8uULm3adNqW0TaDtu8GPvm4IVjy/Y8SHh5ugpPaftJpNTQ5By/NihS+aY9gTYMHPGnaP9ruM0FY6+Ex7cmoyW4X1q1TR35b8YtsWr/W3JDSB97mzptn2otab006zLLWsfn/mpn3zt+KFi1qgorObZ7Tp0+bQK6eh/bsTEu70Dlve7lWrZqmDWo/gKYWGvjUtrP9EOOCRd/Zu8sDDz1s/LWdqoZLl3xnnJ9+dpgJpDt2tBbSmndq19Y573Nnz8n8ubNl258bzcOGbS7OO2y3O3VfDaxq6mxNV5FS2r9/v9Uzup25Tqt+/T+53upprQ8Dzro4uot9Pb1p5+vINe++/aYxTalcvaaDBjxh6q9Da2vSNp79t4Y3nzPnc1q7eoX89OMS839h/oKF1jDdV4quUyNNs2YnjlSjy/bfSE8/Ndj8H9LPsA5zPmXqF46HYOctWGCusz7o8OtPP8r/Lf3BjBTzw49LNQtH0kDuK2NGmXwWfDvHlD9i5GjRG8qavDkP29fT/xfNx5s6634kBBBAAIHAFfD2Xl5qvxf09zHtqMSOJs5tNH+1o7z5xKXUPteHxTSQq51rtP25ZuWvZkQRbZfolHqavpk1w7qn2MYs633Qr7/U8L537QyzI98QQAABBBBAIE0CPgvm6pBqGkjV4dU0kKZz3erNOr3poj0x7aQ3G/RG3tAhg81+OgzcWxPfMIHPtMwlmidPHrnTGr5MA5patqbvFic+FaY3fjT9YvVI1fTg/X3khNUj5JBVv9s7tjfr7GPMGzff9Gac5qND83W54w6zh95EalC/vqm3Dp+sye5JvM7qMaGpe7eupqeJ3jisVrWq6A0QHXZZG8h2Smvev69PfBJOby7pfLTaK1l7stxm9XTRm0679+yxszavQwYNkMiICEevBbvXyLfWsG6ajh07boaZ05ucV1WpYtb54pvd+1ZvVmnS4a3t4LrOj2cnHQJaU6uWt5hXHb5Ok90gNG/cfNMA/HMvDHf5cn5KMOkhjzz0oOkVrUM16jUYNeYV0cBuP+vGsj5leDnptdfHS7ObbpFKVarJNXXrmWG/9fNhDxdp563BXN3X+UuD8yQEEEAAAQSyi4C2eTRYpr0m9UaeDkmrI5LoMLua1q5bl+KpartFA6c6DKwOyatf2lbUNo5z+ymlTPRBPg1u6ZQSsdZQtv9YQatChQqaQ7Q3oya7XaiBMH2YLDQkRJ4aNNC0Qa+vW9fs4+23DtaUHZoWL1liXpevTHyArrM1zYeef1rahSaDJN/69Oxp2qAazNMHBTX1sNqY2sbWh+E0rbJ6empSf30oTts7OsWHvs9nDa3boV0b007WhyWdU1rzTsu11Z7L2r7UXteaalSvZkZiWWgFnnW4PU3fWkMEa7q1VWI70Lzx8O1p6+8FvU76YOewZ58xe+kw3prs6+lNO1/b9DqssbbrnYdMNhk5fdPPXbd77zH1117Z9nDZO3clfoa8+ZzZ2XXvdq+Z5kRvlOqoRZp0ehGd+kSN9MFU/YxrW1mTTlWiSaeQ0b9Z9G+XO+/sbNat/i1xRKMSxYub9xqM1YcnCxYsIDOmfWlGNzIbLn7TBwrusB7m1HPVtr7+DaFp/YYN5tWb87B9U/r/4k2dTYF8QwABBBAIWAFv7+V583vB25OkHeW+jeyLdtSFCxdc7pnZ99Cc78t6c52WLvvJtMe1DaHtT32Y8bmLI5X8Yt3nSil5085I6Xi2IYAAAggggIB7gcQ7Le63pWntFGvoM03LV6xyzDemT9Rr+s4K6N5pDaOsPRj1poUGvZxvpJQqFSX6ldakNzv0aXm9kaC9QmdbvUD1JozeHNGk87Vqand7YjDWvLn4bdtf253fJluOKhnpWJcvX16zXMxqvNhJ5/DVdO7cefOqQ6ppemnUaPNl3jh9+8+y0Js5mtKbdxXraX7nVKN6dTO8mj59X9aa49dOOq+wc9KAud4MXPrTT+YG6a/WXFya7uyS3MX5uLQu39y8uTlEe0xob5v5CxODunZwXTfq9beH2LaDusePHzfH6RBwA5543OWzYTZc/Pbzz7+Yc3Be18C6WaVzGXtKOoTfe5PfMr1SNKCrvWR1SLqiRYs4hqzzdGxq68uVK2vOx97v4w/eN41c+72+au/gHt27Oa+SokWKuLznDQIIIIAAAllZwB5Zo5o1L6hzqnrxgbFNf/5pHpBz3ua8rMHW18aNF71pZA9va2/XG1LepJPx8dbQvW+YEUHs4Jh9nJ2H3S688orK9iYzjYe2kdKabmzS2LQ5Z8+Za0Z9WbAwsZestk01paVd6K7sIk5tBbsdqjfSNNlzAJ+9+KCg7a9TaOhX0qRtL+ehhdOTt7fXtkQJ1zao1kX/BtA5knXo35rWHMUbNm6UFtZDiRpQTylVrFjBpV11ReVKZnfb1r6e3rTzS0ZGpFSUY1tFazqOXLlyOd7b7eszZ86Ydd58zuyDndt7GlzXVKRImL1ZClz8W+L8+QvmbyT776YGjRPnW3bsaC38uzOxR60+CKmfNfta69892p7XIQ31QU47Jf2bwf7M6xzOmrw5D9vXPlaP079/7P8v+nedN3XW40gIIIAAAoEr4M29PK19ar8X0nKGtKMSO1UkbSP7oh2l7V6dmiJpevShvklXeXzvfO9WO9LYqVKlimZxXSoPanrTzrDz5BUBBBBAAAEEvBfwSTBXeznqE/ea9I/6t99516UG02fMMjdy7ACoPm3ui6SBOu2tMNsKHt5u9ZDQsnU+XbuxUcIKYmp65+1J1g2TAi5F5s17qUHisiGdb7S3rSYdgqTZjclvCoYXSz5UtLdFFS+eeB7HLgY97eOOWfPDaQovmvLNMN2no9UjWYO52jP6x6XLdJW0btXKvLr7VvhiT9qtVm8ObQw639g6fvyE6UVg9xSxj9ehrfUJvLlWD+Df1qw1Q8c5B9d1Pw2k2inp50TX61OhGph3l+yhBt1tS7pOb1zqEIfaM0h7cxQsWND0BNZ57K6ufZ25Eabzj6XnPLUsDVbrU5PaY6h12/amR4z2PGrUsIFLVbRc55trLht5gwACCCCAQDYQKH6xjXP8eGK7xD4lu92S9CEze7v92qNXH/NwlLbhGjVoIBUrVJBBTz3tePjL3i+l15GjxojOkatBwvbWcG8VK1YwI37og2J2ioyMNFNtaM+Ey/3dnD9/fhOg1ptlGpw0Q+haQWIdlUVTRrYL7fOxX+2HDbW357NPP2WvdrxWvhgEdaxIw8LlXlstqk3r1iaYqw9faq9hTfZoLuaNh28HD0a7bNH51zTpddSUme18U6D1zZvPmb1vWl7tv5H0GJ0LOWkqfvHvDB3pRtvDmzb9Ib+usIZrXrDIDEe+bt3vpoeufVzM4cP2onk9cuSoebX/L3pzHqn9f/G2zi4V4Q0CCCCAQEAJeHsvTyud2u+FtJwY7ajEDg327+WU7NLajtKR/HZs25xSlqlus3/HH3UaZVEP0tFvNEVFpdwZx5t2hsmIbwgggAACCCCQJoGgNO3tYecfly41W3SIZZ1j1vlLA37aE1ODa9obVwN1Olyb3viyk8650LptBysAuMasyiW5zOspa/6xlJIGGPVpdO3F8fyLw82u9pC9+qbOxflLzyScMeVq2dfUulo2bNgoZ86cTSnrNG/TwLKmU6dPOcrS8nbs+Ef0hsrlBI9rXV3D5O08/7AOVWfPP5a0t4TZOcm3my7O+fb5F19aQwJ+b4aNc/fUn32YNq61h7P2bpk+Y6a92rzq3MGa3AWt7V64Tz3zrLkuOi+ZHVzXY6bPnKUvsmTRfJfPyRuvv2bWz5n7rXm93G9/WkPP3d21u+g8H3aPHM3z34tDLVYoX94Ukd7ztOunn+kh1hCNmkaOftnr4SDt43lFAAEEEEAgqwvoFBCa5ls9BvVJfjvNnD3HLF5Tq6a9yrw673PkyBHTRtRRW54d+pRpn0RYvSjtUTxcDkzhjd2G1PaEDvWsQVWdC9c5XXtNLfN23sVhfvWNTtegbVAd6UWT/fCa9ihILekwxpqeHfaCafN0sXqg2ikj24V2Gfar85QZdevUdrRDT506JXv27JW8Tj0q7GO8fU3rtXWXr46+o8P+fmO18b6aNt30aG7WtIm7XV3Waftep6uwkz1diE7loikz2/l2Hbz5nNn7puXV/htJj9GRX/RvCP3SIK72pg0KTvyTbcn3P8iESW9Zw2lXlAf69DbTiei0Nvo5dh4+UXu5HzqU+PCstoPteYarVUt82MCb80jt/4u3dU6LA/sigAACCGSugLf38rRWqf1e0H1oR6nCpeTPdtSlWni35Nw+t3/H6zQe+gCZneYtSOycUfvaa+1VZho4faPtTjt5086w9+UVAQQQQAABBLwX8EnPXPsGgc7NZA/9Zlfhri6d5ZWxr5semQ/1fcD0ZtQbM70feMiaN+pOSUhIEO01oT04a1RPDFraw6i9Pfld0TmqBjze3+PQuzpv7Ktjx5kbdhUrVhD75pmW37F9e/n40ynyaP8n5EFriD8NLOvQvnqD8Flrrgedm81XSRu2GvzUwLTefKp3/fWyavVq0ztV5zDTHqvpTddec400tYbz0/mH+z78qNS23mvvBg2QP/rwQy5D0HkqQ5+s0+tjB1Pt+dY87a/rH3zgfjPX7JCnnxUNsmpPmY1WQ04D8Xq9dN6vpEkNdJsG7DXZww3q8sZNm8x6nUe4UsWKusqRbr7pJrP89fQZ8sJzz3p1To6D3Syol/aKmTFrtnHSG2J6U2uqFczW1On2xPnmdDk956nH2am5FSjXc9LPlc77awe07e28IoAAAgggkJ0FtO33+GP9ZPyEiXJv9/vMyB86bJz2VtUgnv6OtJNOjaDTHgy2et5qG+5GK6inwajVv60xUyHonKBfTvva3t3r12utm0p6w2nYC8OlgfU7f9lPP5tynDPQdpC2C18aPUb+3bXTTH/x3gcfmQfX7MBg6VKlzCEaeCxp9QDt0rlTsjaLnafeyNK620Hj26wgsp0ysl1ol2G/5suXT/r3e0TemPimdO3RS9q1vU2iow/JpLfeNm2hNrfdau+a5te0XNuUMteeuCtWrhKdGqTrvXeL1tmbpO3eu+/sIvFWcF3bcNrG1J7XmjKznW/X1ZvPmb1vWl/73t/HBK+73N1Vune91zLKa/2feNd8PufMTPw/ceDAQfP/TEeD0c/bn5u3mJGJdChkHdZZhyzXpH+L3Nu9h3mwYcPGTWZUnpo1qjumJvHmPLz5/+JNndPqwP4IIIAAApknkJZ7ed78XqAd5Xrt/N2Ocq2N53fu2ud6/1bv3fa8v6/cc1cX64HNWKsd/ZlpW97RqaMjsypXXGGWn39xhNzaqqW5T+hNO8ORAQsIIIAAAggg4LVA4mPeXu+efEd9ClznbdKbKxrATJr0l7kmO4ioQbU3J4w388bqk+UayNWbC7Omf+UI4F1jBUZ7dOtqgnCT33lPtv/9tyPboKBgx7IuaIBWe3No0salc9KeAJ9/+rF5sl3zefrZYSbg9uTjj1k3Se5x3jXZctJydIfg3J5j39r79K2Jb5hA3neLv5ehzzxnArntrBtOr4we6ZJ/WvPObZWrZhok1MaUBsf37tsn/R55SJ7o38+Rd66gxB7NQRdfHRsuLrRv19ax6n/NmjmWPS3otZox7Uvjq+XqTTQN5OpcWd/OnilXXpnYaHM+Xh3s66DXxn56U/fRoeA0dWh/qR5mhfVN54GzA8w//fyzvTrdrxq8/nbOTNFAut4g1hucWv+KFSvI2FdfFn3IwE7pOU/7WPt16ODE3rmvWA8WnD3r217fdhm8IoAAAgggEKgC2ibRgO6hmMOmnaLBVH2QbfKbk1we9Bs84EkTANV24dcXR/6YOH6suTH02uvjRR8gi7CmybDbdvb5ptbGedJqD+mNKM13wKAhsnnzZul8Ryf7cPOqwwNO+eRDx8N3Oo+rprffnOhor2iQ8bVXxpj1OhLJ8uUrzbK78nUYO7s9oQ+zaWDXTmlpF9rH6Ku7cnS9trNTSo89+ojx1/ah3kzTQK56fPbxB2aeUz02vXl7c23VwrkM88bp2y033+x416Ft8nagY6PTgv59oEHN9z/8yLThdBjp9ya/JeXLlzN7edPOd7SJnebBdSoi2WLSNrrdwygoV+L5efM5S80iWaEXV+hUIPq3RPHwYvLKa2NlxMjRZsvbkyaI3Rv5rjs7y33du8m2v7ab/yuffDbF/J3z4fuuU9xoALx0qdKm/avTq+jn87133hYdkUaTN+fhzf8Xb+psCuQbAggggEDACaT1Xp43vxdoRyW/zP5qRyWviec17trnOoWYtkH0QcuJb75tArn6kKa2Le2gveaoDz7qPTW9Z2i3rb1pZ6S3veT5LNiCAAIIIIBA9hfIdTz2xAVPp3n86HEpXTqxh4KnfS5n/bFjx60et0FmPlN3+WivXZ3DIyyssLvNaVp32hqyWefa0huE9o2ZNGWQhp3Pnz8vB605wYpbjR4NxPoy6RytOudweuZ6+84aXvlBq4eD3ngc9dLwNFXrzJkzsv/AASllzY2hQ65kpaRm0dHRUrhwYccNTU/1z8rn6emcWI8AAgggkHME9u7dJ4WLpN5uysg2ns6LqsPDptRe0BuIBa0ApT0Vgw4Fu3//AfN7+nLafTpsc4LVZkmtvafty5Mn40wQ2d2nQ9tyx6x2Y1hYmGP4OHf7ebMuI9uF7so/aLV51Nae78zdPuld5821dZf3AasN2aBJM/MQ5o9LFqXaFq9UpZp52PObWTNEh7yOt6YXsechdpd/ZrbztXxvP2fu6urNuuPHT1hTd5yVokWLetx9//79ZrtzL+ff12+Q2zvfaY0600cGDxxg6qm9gjw9DODteaT2/0Ur6U2dPZ4MGxBAAAEEvBIIhHaeVjS13wu0o9xfzsxqR7kvPfW1Sdvn9hF6L1XbE6EhIfaqZK+xsbHWtBDBLvt4285IlhkrEEAAAQQQyIEC3rTzfBtpTCNyajfrtLGgX75IeqMjPQHQ9JStT5g5985ITx6ejtEbo2k9Dx2Oec4334o91233bvd6yt7jer3ZWrZMGY/bA3mDmnl7PbLyeQbyNaBuCCCAAAI5R8CbdooOCeuc9EG7qKhLPVudt6VlOaXgl3M+OiKIfnlK2pbzNi9PedjrM7JdaJfh/KqB7IxK3lxb57L1gTodKnjxkiVm9f29e6UayHU+Xpf1xmFKNw91n8xs52t5vvpsaF7uUuHChdytdlnnTds2tXqmtt0uMLX/L7qfN3W28+MVAQQQQCBrC6T2e4F2lPvr6492lPuauF+btH1u71XEergxtVSwYMFku3jbzkh2ICsQQAABBBBAwK2AX4O5bmvESp8LLLZ65I57Y4LJd+SIF0WHqSMhgAACCCCAAAIIIJCRAn9YcyfbbVAd+vfOLndkZHHkjQACCCCAAAIIZBsB2lHZ5lJyIggggAACCPhEwK/DLPvkDMgkVQHtFRFz+LCEFyuW4pCHqWbEDggggAACCCAQ0ALeDMuiJ5CRwywHNBCVy1QBHT47xppHuWDBAo75Wr2pwJ69e80Q3GntweJN3tl5H50u5D9r+OWwwmE+maYmO1txbggggEBWFKCdlxWvWvrrnN52VPpL5EgEEEAAAQQQ8JeAN+08eub66+pkYrk6zHBGDrmXiadCUQgggAACCCCAAAJZRECHzy5ePDzNtS1TunSaj+EAMQHwcmXLQoEAAggggAAC2UAgve2obHDqnAICCCCAAAIIuBEIcrOOVQgggAACCCCAAAIIIIAAAggggAACCCCAAAIIIIAAAggggAACfhYgmOvnC0DxCCCAAAIIIIAAAggggAACCCCAAAIIIIAAAggggAACCCCAgDsBgrnuVFiHAAIIIIAAAggggAACCCCAAAIIIIAAAggggAACCCCAAAII+FmAYK6fLwDFI4AAAggggAACCCCAAAIIIIAAAggggAACCCCAAAIIIIAAAu4ECOa6U2EdAggggAACCCCAAAIIIIAAAggggAACCCCAAAIIIIAAAggg4GcBgrl+vgAUjwACCCCAAAIIIIAAAggggAACCCCAAAIIIIAAAggggAACCLgTIJjrToV1CCCAAAIIIIAAAggggAACCCCAAAIIIIAAAggggAACCCCAgJ8FCOb6+QJQPAIIIIAAAggggAACCCCAAAIIIIAAAggggAACCCCAAAIIIOBOgGCuOxXWIYAAAggggAACCCCAAAIIIIAAAggggAACCCCAAAIIIIAAAn4WIJjr5wtA8QgggAACCCCAAAIIIIAAAggggAACCCCAAAIIIIAAAggggIA7AYK57lRYhwACCCCAAAIIIIAAAggggAACCCCAAAIIIIAAAggggAACCPhZgGCuny8AxSOAAAIIIIAAAggggAACCCCAAAIIIIAAAggggAACCCCAAALuBAjmulNhHQIIIIAAAggggAACCCCAAAIIIIAAAggggAACCCCAAAIIIOBnAYK5fr4AFI8AAggggAACCCCAAAIIIIAAAggggAACCCCAAAIIIIAAAgi4EyCY606FdQgggAACCCCAAAIIIIAAAggggAACCCCAAAIIIIAAAggggICfBQjm+vkCUDwCCCCAAAIIIIAAAggggAACCCCAAAIIIIAAAggggAACCCDgToBgrjsV1iGAAAIIIIAAAggggAACCCCAAAIIIIAAAggggAACCCCAAAJ+FiCY6+cLQPEIIIAAAggggAACCCCAAAIIIIAAAggggAACCCCAAAIIIICAOwGCue5UWIcAAggggAACCCCAAAIIIIAAAggggAACCCCAAAIIIIAAAgj4WYBgrp8vAMUjgAACCCCAAAIIIIAAAggggAACCCCAAAIIIIAAAggggAAC7gQI5rpTYR0CCCCAAAIIIIAAAggggAACCCCAAAIIIIAAAggggAACCCDgZwGCuX6+ABSPAAIIIIAAAggggAACCCCAAAIIIIAAAggggAACCCCAAAIIuBMgmOtOhXUIIIAAAggggAACCCCAAAIIIIAAAggggAACCCCAAAIIIICAnwUI5vr5AlA8AggggAACCCCAAAIIIIAAAggggAACCCCAAAIIIIAAAggg4E6AYK47FdYhgAACCCCAAAIIIIAAAggggAACCCCAAAIIIIAAAggggAACfhYgmOvnC0DxCCCAAAIIIIAAAggggAACCCCAAAIIIIAAAggggAACCCCAgDsBgrnuVFiXLoG4uJPpOo6DEEAg5wjwcyLnXGvOFAEEso8AP7uzz7XkTBDIKAF+TmSULPkigAACaRPg53HavNgbAQRcBfgZ4urBOwQCSYBgbiBdjSxel9i4uCx+BlQfAQQyWoCfExktTP4IIICA7wX42e17U3JEILsJ8HMiu11RzgcBBLKqAD+Ps+qVo94IBIYAP0MC4zpQCwTcCRDMdafCOgQQQAABBBBAAAEEEEAAAQQQQAABBBBAAAEEEEAAAQQQQMDPAgRz/XwBKB4BBBBAAAEEEEAAAQQQQAABBBBAAAEEEEAAAQQQQAABBBBwJ0Aw150K6xBAAAEEEEAAAQQQQAABBBBAAAEEEEAAAQQQQAABBBBAAAE/CxDM9fMFoHgEEEAAAQQQQAABBBBAAAEEEEAAAQQQQAABBBBAAAEEEEDAnQDBXHcqrEMAAQQQQAABBBBAAAEEEEAAAQQQQAABBBBAAAEEEEAAAQT8LEAw188XgOIRQAABBBBAAAEEEEAAAQQQQAABBBBAAAEEEEAAAQQQQAABdwIEc92psA4BBBBAAAEEEEAAAQQQQAABBBBAAAEEEEAAAQQQQAABBBDwswDBXD9fAIpHAAEEEEAAAQQQQAABBBBAAAEEEEAAAQQQQAABBBBAAAEE3AkQzHWnwjoEEEAAAQQQQAABBBBAAAEEEEAAAQQQQAABBBBAAAEEEEDAzwIEc/18ASgeAQQQQAABBBBAAAEEEEAAAQQQQAABBBBAAAEEEEAAAQQQcCdAMNedCusQQAABBBBAAAEEEEAAAQQQQAABBBBAAAEEEEAAAQQQQAABPwsQzPXzBaB4BBBAAAEEEEAAAQQQQAABBBBAAAEEEEAAAQQQQAABBBBAwJ0AwVx3KqxDAAEEEEAAAQQQQAABBBBAAAEEEEAAAQQQQAABBBBAAAEE/CxAMNfPF4DiEUAAAQQQQAABBBBAAAEEEEAAAQQQQAABBBBAAAEEEEAAAXcCBHPdqbAOAQQQQAABBBBAAAEEEEAAAQQQQAABBBBAAAEEEEAAAQQQ8LMAwVw/XwCKRwABBBBAAAEEEEAAAQQQQAABBBBAAAEEEEAAAQQQQAABBNwJEMx1p8I6BBBAAAEEEEAAAQQQQAABBBBAAAEEEEAAAQQQQAABBBBAwM8CBHP9fAEoHgEEEEAAAQQQQAABBBBAAAEEEEAAAQQQQAABBBBAAAEEEHAnQDDXnQrrEEAAAQQQQAABBBBAAAEEEEAAAQQQQAABBBBAAAEEEEAAAT8L5PZz+RSPAAIIIIAAAggggAACCCCAAAIIIIAAAggggAACCCCAAAII+FRgW/RW2X7oL/k7ert5/ffIPz7Jv33N26XXDX18kpc3mRDM9UaJfRBAAAEEEEAAAQQQQAABBBBAAAEEEEAAAQQQQAABBBCwBA6fPCyPzXxITpw+gUcAC5QrUl4qh18hlYpfITdfdYv1WlnyBecL4Bq7rxrBXPcurEUAAQQQQAABBBBAAAEEEEAAAQR8KvBF71Vy/L94n+ZJZr4TKH5lISldq4iUsr5K1iwseUO4beY7XXJCAAEEEEAgewl8tvpjqV+hoTzauH/2OjHOJiAFaJUG5GWhUggggAACCCCAAAIIIIAAAgggkJ0E9q4/KhcuiPSdf2N2Oq1scy5nT5+X/X8ek30bjsraL3fKgc3HfXJutW4vKw36VPJJXmSCAAIIIIAAAoEhsOvILvn13/+Td7p8GBgVohbZXoBgbra/xJwgAggggAACCCCAAAIIIIAAAgj4W2DXqsNS7vqi/q4G5XsQyJ0vSMrULmq+POzCagQQQAABBBBAwAi88+ub0rFWJykSUgQRBDJFgGBupjBTCAIIIIAAAggggIAKxMXFyedffiWbNv0hpUqXlvZt20jVq6qkiLN37z6ZPXeubNm8RcLDi8tNzZtJk8aNHMecO3deuvfsbfLq0rmT/LZmncybv8CxvXiJcKlfr57UrVPbsY4FBBBAAAEEMltg528x0rBP5cwulvIQQAABBBBAAAEEfCjw2+5VsvvYLhnWargPcyUrBFIWIJibsg9bEUAAAQQQ8ItA32m9ZP+J/X4p+3IKrVz8CqkVda3UjLpaakTWlJC8IZeTHcdmM4GEhARp1/EOCQ0tYAVeb5ONmzZJ57vulTkzpkmlShXdnu3KVaulT9+HJapkpDRv/j+JOXRIevTqI927dpUXhj1jjgkODpJq1apKZMkI83779u0yfeYs6d7tHms4ywuycuVqGfv6eHl19Cjp1Kmj23JYiQACCCCAQEYKxMUkSOz+U1L6WnrmZqQzeSOAAAIIIIAAAhkpcP7CeXl/xbvSre59ki84X0YWRd4IuAgQzHXh4A0CCCCAAAL+F/grepucTIiXOb3n+78yaajB6XOnZfP+P2XT/g0y7fcvZOvBLWk4ml3b17xdet3QJ1tDrN+4Sc6eOyfTvpwiIfnzm3Pt0KmLLFq8RB7qe3+yc9fg7+Chz8iNTRrLG+PGigZtNXVo30663ddLWtzcXBo1bGDWderYQSIiSphl/RZRorgMevIJx/txEybKx59NJZjrEGEBAQQQQCAzBf5dfkhK1SoiwXlyZWaxlIUAAggggAACCCDgQ4HFWxdK7qDccnOVW3yYK1khkLoAwdzUjdgDAQQQQACBTBXYEr1Zroqsmqll+qIwfSLx2tK1zZfU9UWO5JHdBK6vW0eWff+d47TOnj0rJ06ckPBixRzrnBe0V+7u3btl7uwZjkCubtcA7sujRlrrgh27PzloiPS5r4fHYG2+vPmsQPJZx/4sIIAAAgggkJkCu9YclrLXuf99l5n1oCwEEEAAAQQQQACB9AloJ4apaz+Twf8bKrly8YBe+hQ5Kr0CBHPTK8dxCCCAAAIIZJDA1gNbpGpEtQzKnWwR8L/Azp07ZdY3c2Xp0p/MkMstb7nZbaX+/XenVKxQQQoXKpRse+c7bk+2znnFwehDMmXqF2aY5b93/CMzZs2WiW+Mdd6FZQQQQAABBDJF4PzZC7JnzRFp0KdSppRHIQgggAACCCCAAAK+F5j++1dSqVhla2qxWr7PnBwRSEWAYG4qQGxGAAEEEEAgswW2HtwsraremtnFUh4CmSZwMj5e/t7+txw5etQK1paXo9ZrWFhYsvLjT8VLsfBLvZhiY+PktvaX5ry9pcVN8sxTQ5Idpyvi4mJlxcpVZtu+/YnzT+/b+5/bfVmJAAIIIIBARgrs23hUQorklSKlQzOyGPJGAAEEEEAAAQQQyACB6Lho0UDuD38tkdfajc+AEsgSgdQFAjaYGxcXJ59/+ZVs2vSHlCpdWtq3bSNVr6qS4hnt3btPZs+dK1s2b5Hw8OJyU/Nm0qRxI8cx586dl+49e5u8unTuJL+tWSfz5i9wbC9eIlzq16sndevUdqxjAQEEEEAAgcwUOH7quGgjsUpE1htmOTOdKCtrC1SrWtXqJTtOzlnz5/Z/YqCMmzBJxo99NdlJ1aheXca88prZT4dUzp8/n4weOcLsN3DQU3I2wfOwydqjd9KEcY48FyxcJI889ri0bNnC47DOcXEnJdZqg9opl+SSC9a/nJ6iD8XkdALOHwEEUhHg50TKQJuX7ZeIa/LLgYPRKe/I1mwrEBlRItueGyeGAAIIIIBAdhXQ+3Nf//6l/LBtiTSo0EjGd5gkpYuUya6ny3kFuEBABnMTEhKkXcc7zLB77dveJhs3bZLOd90rc2ZMk0qVKrol1TnV+vR9WKJKRkrz5v+TmEOHpEevPtK9a1d5Ydgz5pjg4CCpVq2qRJaMMO+3b98u02fOku7d7jFD8K1cuVrGvj5eXh09yuN8a24LZyUCCCCAAAI+Evhj/0apUKyS5A3O66McyQaBwBFYvmKV7Nu719HO0gCtzn87+b333VayWtWrzPpv5s6Tjh3aSe7cuaVh/RtEe+ieiI2VutfVcXucu5UNrXI07dq122Mwt0CBUNEvUnIBbkInN2ENAgi4CvBzwtXD+V3MH/9KwwcqS2TEpdEmnLezjAACCCCAAAIIIBBYAvuO7ZOB3zwudctcJ290fJMgbmBdnhxZm4AM5q7fuEnOWj01pn05RULy5zcXpkOnLrJo8RJ5qO/9yS6UBn8HD31GbmzSWN4YN1Y0aKupQ/t20u2+XtLi5ubmRqGu69Sxg0Q4PREZUaK4DHryCd1k0rgJE+Xjz6Y6bjLa63lFAAEEEEAgMwS2mPly6ZWbGdaUkfkCpxNOyaChT0uuoCBp2rSx7Ny5ywRym994o9vKFCtWTF4c9pwMGDxEDh85YtpzMTExMn7iJClWrKg0adTQ7XG6Mj7+lOicu5r+3bVTZsyYZZZTG+nF7MQ3BBBAAAEEfCQQF5MgsQdPSelri/ooR7JBwLcCp0+flk8+myKnTp2Wxx592CXzpT/9JAsXLrZGSTlrjX73P2nV8haX7UnfMGJeUhHeI4AAAghkRYH4hJMy4rvn5eYqLaTXDcnjUVnxnKhz1hdIjHoG2HlcX7eOLPv+O0cg9+zZs3LixAmPvSi0V+7u3btl1MjhjkCunpL29Hh51EhrXbDjDJ8cNESW/rjM8T7pQr68+axAsuch+5Luz3sEEEAAAQR8KbA1erNcxRDLviQlrwASaNa0qQx/fpiMfvlVqdegsTXyyj3SuGFDGTJ4oMdadut6jwnozp4zV1q3bS8PPvKYFCtSVKZ/OdVlnt3cwZeeUQyygsX7D+yX5re0Ml/9+g8wPXlnfv2VhISEeCyLDQgggAACCPha4J9fo6VUrSISnCeXr7MmPwQuW0A7U7Tt0MlMazFj1myX/PRBuF59+kqx8KLWyCUF5eF+/eVTq/ODp6T35lq1aS9zrDZb6TJlJC4u1oyY98LwkY5DPI2YF1ogREJC84uOmKftQ/shPMeBLCCAAAIIIJBJAucvnJeRS4ZLZKFI6VmvTyaVSjEIpC5w6a5X6vtm+h47d+6UWd/MlaVLfzJDLre85Wa3ddBeFzovWuFChZJt73zH7cnWOa84GH1Ipkz9wgyz/PeOf0QbrxPfGOu8C8sIIIAAAghkisC582dlW/Q26d9kQKaURyEI+EOg6713i34dO3ZMChYs5PIgnqf6aEBXv45bD/cVCC3g9pi5s6c7Du/SuZPoFwkBBBBAAAF/C+z+7YiUvY7hlf19HSjfvcArr46VNre1Np0n3v3gQ8dOZ86ckTHWtnGvvSLt27U16ytVrCBfWwFebZPlyuX6cAIj5jnoWEAAAQQQyOIC7y6fLDFxMTKu48Rkv++y+KlR/SwuENDB3JPx8fL39r/lyNGjVrC2vBy1XsPCwpKRx5+Kt54UvPTHkc6jdlv7jo79bmlxkzzz1BDHe+cFfVJwxcpVZtW+/fsTX/f+57wLywgggAACCGSKwI6YHRKaJ1SiwqIypTwKQcCfAu7adKnVx92De6kdw3YEEEAAAQT8KbB3w1Fp2LeyP6tA2Qh4FHhzwjgpUqSITJ8x02Wftet+l5jDMdKg/g2yZu06yZ0nj9x7z13Svdu9LvvZb+wR8+bOnuHy0J2nEfP63NfD4/RmjJhnq/KKAAIIIJDZAou3LpSf/l4q4zpMlPy5E6f/zOw6UB4CngQCOphbrWpVq5fsOGtujnPS/4mBMm7CJBk/9tVk51KjenUzJIzup0Mq58+fT0aPHGH2GzjoKTmb4HnYZO3RO8lqvNppwcJF8shjj0vLli08DuscF3dSYuPi7EMkl/XvgvUvp6foQzE5nYDzRwCBVAT4OZEy0Oodq6ViWCU5cDA65R3Zmm0FIiNKZNtz48QQQAABBBDIaQL7Nh6VkMJ5JKwUQ/zntGufVc5XA7nu0n6rs4MOrdyj9wOyZ89eM2RyyciS8rU1zUXp0qWSHcKIeclIWIEAAgggkMUENu5bL+9YvXJH3DrKDLGcxapPdXOAQEAGc5evWCX79u51PKWnAVp9mm/ye++7vSTVql5l1n8zd5507NBOcufOLQ2tpwe1h+6J2Fipe10dt8e5W9nQKkfTrl27PQZzCxQItRq1oe4Oz/HruAmd4z8CACCQqgA/JzwT7ftjj1xT7lrByLMRWxBAAAEEEEAAgawisGftUSlTp2hWqS71RMAhEHP4iAngNv/fjTLg8f5yOiFBHnqknwwe+oxM/fQjx372AiPm2RK8IoAAAggkFYg5GSP9Zz4sJ06fSLop4N4/1uQJqRZZPeDqRYUQUIGADOaeTjglg4Y+LbmCgqRp08ayc+cuE8htfuONbq9asWLF5MVhz8mAwUPk8JEjJvAbExMj4ydOkmLFikqTRg3dHqcr4+NPiT5BqOnfXTtlhjX/h6aqV1Uxr3xDAAEEEEAgswS2HtwsraremlnFUQ4CCCCAAAIIIIBABgrs/f2IXN2hdAaWQNYIZIxAieLFTcZPPNZPgqx7cyH588tDfR+Qu7t2l1OnTpsR8ZxL9veIeSdPxktoKD3g9ZowGpbzJ5NlBBBIq0BG/Az5YO1kqR1ZV7pe0zOt1fHL/oyW5xf2LFtowQIFMq3jZ0AGc5s1bSrDnx8mo19+VQYOecpcyLvvvFOGDB7o8aJ263qP2TZt+kwZOXqMGQ5Ge+e+NWG8yzy7uYMvnbI2SPcf2C/Nb2lljtUhZOrWuVZmfv2VhITQCPSIzQYEEEAAAZ8LHD91XKLjoqVKRFWf502GCCCAAAIIIIAAApkrcPb0eTm47biUrXt15hZMaQj4QKBs2TIml7iTJyWscGGzHGuNfKf3zfLkuXRfzS6KEfNsicB4ZaSnwLgO1AKBrCrgy58hWw9ukQ0HreGLu3wgYfnDsioJ9UYgIASSt8AColoiXe+923wdO3ZMChYsZM2FG5RqzTSgq1/HT5yQAqEF3B4zd/Z0Rz5dOncS/SIhgAACCCDgb4E/9m+UCsUqSd7gvP6uCuUjgAACCCCAAAIIXKbAnjWHJbxSQclXMGBvu1zmGXJ4dhaodXVNqXX11TJ4yNMyZNAAOXb8uAwfOVpatWxh3WsLTnbqjJiXjIQVCCCAAAKWwNu/vil3Xns3gVw+DQj4QCDg/6oIC0v7ExuFCxXyAQ1ZIIAAAgggkHkCWw5skar0ys08cEpCAAEEEEAAAQQyUGC3NcRymWuZLzcDicnahwK5JJdLbjqS3YRxr8mAIUPl5latzbZ2bdvIiBeed9nP+Q0j5jlrsIwAAgggsGz7jxJnzZPbrmZ7MBBAwAcCAR/M9cE5kgUCCCCGQ8/cAABAAElEQVSAAAIBL7A1erO0ZL7cgL9OVBABBBBAAAEEEPBGYO+6o9LooSu82ZV9EPC7QKdOHUW/nFO5cuXk6y+mmtHvdM7cPHnyOG92u8yIeW5ZWIkAAgjkOIEz58/IR6s/kAcbPiLBQYSgctwHgBPOEIHUxy7OkGLJFAEEEEAAAQScBbYf2i7VIqs7r2IZAQQQQAABBBBAIAsKxEafluP7T0mpq4tkwdpTZQRcBXT0O28Cuc5H6THeTJfmfAzLCCCAAALZR2D679OkdOFSUr98g+xzUpwJAn4WIJjr5wtA8QgggAACCPwVvU3y584vJQtFgYEAAggggAACCCCQxQX2WkMsR9UIk+A8rkPXZvHTovoIIIAAAggggECqAgdjD8jS7T/IAw0eTnVfdkAAAe8FCOZ6b8WeCCCAAAIIZIjAFmuI5aqR1TIkbzJFAAEEEEAAAQQQyFyBPWuPSpnazJebueqUhgACCCCAAAL+Frhw4YK88sMYM41Y+WIV/F0dykcgWwkQzM1Wl5OTQQABBBDIigJbD2yRqhEEc7PitaPOCCCAAAIIIIBAUoHda2Kk9LUMsZzUhfcIIIAAAgggkL0Fvlg3VfIG55GOtTpl7xPl7BDwgwDBXD+gUyQCCCCAAALOAlsPWj1zI6o6r2IZAQQQQAABBBBAIAsKxOyIM7WOqFIoC9aeKiOAAAIIIIAAAukT2Ba9Veb/OVcGNR8quax/JAQQ8K0AwVzfepIbAggggAACaRI4fuq4RMdFSxWCuWlyY2cEEEAAAQQQQCAQBfZY8+WWvsbqlcs9zEC8PNQJAQQQQAABBDJAID4hXl7+fqQ8fuMAKRrCVBMZQEyWCAjBXD4ECCCAAAII+FHgj/0bpUKxStYwNHn9WAuKRgABBBBAAAEEEPCFwF4rmFvqWm5i+sKSPBBAAAEEEEAgawi88fPrUqfMdXJd2XpZo8LUEoEsKEAwNwteNKqMAAIIIJB9BLaY+XIZYjn7XFHOBAEEEEAAAQRyqsCR3Sflv03HpEwdgrk59TPAeSOAAAIIIJDTBJZu/0F2HNouDzR4MKedOueLQKYKEMzNVG4KQwABBBBAwFVga/RmuYohll1ReIcAAggggAACCGQxgaN7T8o3g9fLDT0rSlhUSBarPdVFAAEEEEAAAQTSLjBrwwwZt+w1eerm5yQPI86lHZAjEEiDAMHcNGCxKwIIIIAAAr4UOHf+rGyL3iZVS1T3ZbbkhQACCCCAAAIIIJCJAhrInTNwvdS9p5zUbFs6E0umKAQQQAABBBBAIPMFTpw+IS8uHCbT10+T51sOl0rhlTK/EpSIQA4TyJ3DzpfTRQABBBBAIGAEdsTskNA8oRIVFhUwdaIiCCCAAAIIIIAAAt4LEMj13oo9EUAAAQQQQCDrC2yL3iqjl7wkJQpGyIROb0l4aHjWPynOAIEsIEAwNwtcJKqIAAIIIJA9BbZYQyxXjayWPU+Os0IAAQQQQAABBLK5AIHcbH6BOT0EEEAAAQQyWeD0udOyef8fsmn/Rtmwb4NsPbg5k2vgXXGdruks3a/r6d3O7IUAAj4RIJjrE0YyQQABBBBAIO0CWw9skaoRBHPTLscRCCCAAAIIIJDdBY79Fy9znvxd4o8lBPSpNux7BUMrB/QVonIIIIAAAggEvsD6vetk8bbv5Ocdy6Ry8SukVtS10vmaLlKzZC0JyRuSaSdw4GC0REaUyLTyKAgBBLwXIJjrvRV7IoAAAggg4FMBfcKyVdVbfZonmSGAAAIIIIAAAlld4Mypc7LghU1SqWkJafzQFVn9dKg/AggggAACCCCQTOD4qeOyxArgfrdlgSScPyMtqrSUD+/+jGGLk0mxAgEEVIBgLp8DBBBAAAEE/CCgjfbouGipElHVD6VTJAIIIIAAAgggELgCS8ZslnwFckujvpUDt5LUDAEEEEAAAQQQuAyBR2f2lcrFrpSeN/SRG8o3uIycOBQBBHKCAMHcnHCVOUcEEEAAgYAT+MOa/6RCsUqSNzhvwNWNCiGAAAIIIIAAAv4SWPfVTjn0d6zcMbGu5ArK5a9qUC4CCCCAAAIIIJBhAit3rZAi+YvK862GZ1gZZIwAAtlLICh7nQ5ngwACCCCAQNYQ2GLmy6VXbta4WtQSAQQQQAABBDJDYM/vR2TN57vk1udrSkiRPJlRJGUggAACCCCAAAKZLvDrjv+TxpWaZHq5FIgAAllXgJ65WffaUXMEEEAAgSwssDV6s7RkvtwsfAVzVtXnL1goP/38i+TNm1datmwhjRrU9wgwe85cWb9ho8v2VtYxN9S73qw7d+68LF22TBYv+UGiokpK61tbyZVXpDyM5t69+2T23LmyZfMWCQ8vLjc1byZNGjdylKF5du/ZW9q3bSNdOneS39ask3nzFzi2Fy8RLvXr1ZO6dWo71rGAAAIIIBB4AktGb5am/atI8SsKBl7lqBECCCCAAAIIIOADgbPnz8rKXcvl9doTfZAbWSCAQE4RoGduTrnSnCcCCCCAQMAI/HfsP/n70HapUbJmwNSJiiDgSeCtye/KkKefk1KloiQkNES69egpi75b7Gl3mTP3W9mybauEFghxfOXOfen5wY8++VQeHzDYBHK3bNkiLVu3kd2793jMb+Wq1dKqTXuZYwWJS5cpI3FxsdKjVx95YfhIxzHBwUFSrVpViSwZYdZt375dps+cZcoPCc0vK1euls533SMzZsxyHMMCAggggEBgCexcESMFiueTKs0jA6ti1AYBBBBAAAEEEPChwJo9v0lEwUgpFVbKh7mSFQIIZHeBS3fWsvuZcn4IIIAAAggEgEB8wkkZ/t0wubXababxHgBVogoIeBS4cOGCfPTxpzJ65HBp0/pWs1+B0FD5ctp0aXlLC7fH7fjnH3nisX7SoX3bZNsPHjwoo8a8LJ98+L6jZ23vBx6Ul0aNkXfenpRs/4SEBBk89Bm5sUljeWPcWNGgraYO7dtJt/t6SYubm0ujhg3Muk4dO0hERAmzrN8iShSXQU8+4Xg/bsJE+fizqdKpU0fHOhYQQAABBAJH4O+fo6Vyk+KBUyFqggACCCCAAAIIZIAAQyxnACpZIpADBOiZmwMuMqeIAAIIIBAYAucvnJeRS4ZLZKFI6VmvT2BUilogkIrApx9/IDc3b+7YKzh3sGiQ1V06f/681ct2t+kR+8vyFbJjxz8uu23d9peEFwt3BGB1Y7eu98ivK1a67Ge/0V65mt8oK5hsB3J1mwZwXx410loXbO8qTw4aIkt/XOZ4n3QhX958cvbc2aSreY8AAgggEAAC589dkJ0rD0nlpokjLARAlagCAggggAACCCDgcwF7iOXGFW/0ed5kiAAC2VuAnrnZ+/pydggggAACASTw7vLJEhMXI+M6TpRcuXIFUM2oCgLuBfRzWq3qVY6N2rN28jvvy4vDnnWsc16IiYkxbx98uJ8J2sYcjpEG9evL++++LSH588u//+6UK66sLEFBl54nLFO6tBk6+dixYxIWFuacndm/YoUKUrhQIZf1+qbzHbcnW+e84mD0IZky9QvR3sV/W0HlGbNmy8Q3xjrvwjICCCCAQIAI7F59WApG5JewUiEBUiOqgQACCCCAAAII+F6AIZZ9b0qOCOQUAYK5OeVKc54IIIAAAn4VWLx1ofz091IZ12Gi5M+d3691oXAE0iMQGxsnPXo/II0b1nc7hLLmWbhwYfn8s0+kfLmy1py4USYY2/mue2Xyu++ZoZdPxMZKntx5XIovVLCgeR8XF5csmBt/Kl6KhRdz7K91uK39pWGSb2lxkzzz1BDHducFnVt3xcpVZtW+/fsTX/f+57wLywgggAACASJghlhuemmo/ACpFtVAAAEEEEAAAQR8KsAQyz7lJDMEcpQAwdwcdbk5WQQQQAABfwhs3Lde3rF65Y64dZQZYtkfdaBMBC5H4PTp0/Jwv/6SL29eef21V1x61jrnmy9fPql/Qz3HqgoVykuvnj3kh6VLTTC3Qvly8tXX0x3bdeFQzGHzPjKypMt6fVOjenUZ88prcu7cOTOkcv78+az5e0eY/QYOekrOJngeNll79E6aMM6R54KFi+SRxx6Xli1bWL2GLwWIHTtYC3FxJyXWCirbKZfkkgvWv5yeog8l9rjO6Q6cPwIIeBa4nJ8T58+dl39WHJIbW5WXAwejPRfCFgSysEBkBA8rZOHLR9URQAABnwjYQyy/XnuiT/IjEwQQyFkCBHNz1vXmbBFAAIFsJxAdFy1PzHpUTpw+EdDn9liTJ6RaZPWAriOVQ8CdwDnrJvvAwU/J3r17Zca0LyQkxPMQmPv27ZPZ33wrve7rIRp41aTz6xYIDTXL5cqVM3Pg7tq1S3RZ06/Ll8sVlSu7zIlrNljf7CGev5k7Tzp2aCe5c+eWhvVvEO2hq718615Xx9411deG1jy7mnbt2u0xmFugQKjoFym5ADehk5uwBgEEXAXS+3Ni54oYKRyZX664uqxrhrxDAAEEEEAAAQSykQBDLGeji8mpIOAHAYK5fkCnSAQQQAAB3wm8/uPL0rp6W7mnTlffZUpOCCDgEHhxxEiZt2ChTPn0Yzl69Jj50o3a61bno31xxChp1qyJNGva1BpmOUxee32cHLR6VvW6r5uZq/b9Dz+WoYMHmvxqVK8mTZs0lmefHy5DhwySw0eOyIRJb8uoES86ynNeKGb1oH1x2HMyYPAQs28jKyCr8/KOnzhJihUrKk0aNXTe3WU5Pv6UGeZZV/67a6fMmDHLbK96VRWX/XiDAAIIIOBfAYZY9q8/pSOAAAIIIIBA5ggwxHLmOFMKAtlVgGBudr2ynBcCCCCQAwQWbplv9ciNlTtr350DzpZTRCDzBY5YwdYpn39uCu7a/T6XCvy1eZOcOXNWZsyaLflD8ptgbsGCBeSLKZ/K4KHPyKdTpli9XAvK/b17yj1332mOzZUrl4x+abgVzH1RbmvXweohGy49raBv2zatXfJ2ftOt6z3m7bTpM2Xk6DEmT+2d+9aE8S5z7OYOvtSsDQoKkv0H9kvzW1qZY7UedetcKzO//irFnsXO5bKMAAIIIJDxAufPXZCdKw9J3XvrZnxhlIAAAggggAACCPhJ4L9j/8nKXSvk9doT/FQDikUAgawukOt47AmPE4EdP3pcSpculdXPkfpnkoDOb5TeobUyqYoUgwACfhbw5c+Jg7EH5fFZj8hLrV+WSuGV/HxmFI9AYAjs3btPChcpnGplfNnGO3v2rBn+OGmhx44fl0IFC3qcXzc+Pl7y5s3ndnjlpHnZ74+fOGEN2VwgTcfYx/KafgFf/uxOfy04EgEEAlkgvT8ndIjlVZ/+I53fui6QT4+6IRAQAv5o5wXEiVOJNAmk9+dxmgphZwQQSJNAfMJJeXJOf7m+XD3pdcP9aTo2s3fmZ0hmi1MeAokC3rTzLnVhQA0BBBBAAIEsJDBu6SvSpkZ7ArlZ6JpR1ewpoPPYukthhVMOKqc09667/HRd4UKFPG1iPQIIIIBAFhRgiOUseNGoMgIIIIAAAgh4LXD+wnkZuWS4RBaKlJ71+nh9HDsigAACSQWCkq7gPQIIIIAAAoEuwPDKgX6FqB8CCCCAAAIIIJCygD3EcuWmESnvyFYEEEAAAQQQQCCLCry7fLLExMXIUzc/KzrtEAkBBBBIrwDB3PTKcRwCCCCAgN8EPln1kTzZbJAE5wr2Wx0oGAEEEEAAAQQQQCD9ArtXH5aCEfklrFRI+jPhSAQQQAABBBBAIEAFFm9dKD/9vVReaPWS5M+dP0BrSbUQQCCrCLgfFy+dtZ+/wPoB9fMv1vxneaVlyxbSqEF9jznNnjNX1m/Y6LK9lXXMDfWuN+vOnTsvS5ctk8VLfpCoqJLS+tZWcuUVlV32T/pGx5WePXeubNm8RcLDi8tNzZtJk8aNHLtpnt179pb2bdtIl86d5Lc162Te/AWO7cVLhEv9evWkbp3ajnUsIIAAAggElsCGfeslJG+INbxyyr8TAqvW1AYBBBBAAAEEEEDAWYAhlp01WEYAAQQQQACB7CSw0bp39Y7VK3fEraPMEMvZ6dw4FwQQ8I+Az4K5b01+V95+5z25v3dPiTt5Urr16ClvT5ogLW9p4fbM5sz9Vk6dPiV1al/r2O4859pHn3wqb0x8U/r0uk+2bNliLU+SZd8vlrJlyzj2d15YuWq19On7sESVjJTmzf8nMYcOSY9efaR7167ywrBnzK7BwUFSrVpViSyZOIzT9u3bZfrMWdK92z1y4cIFWblytYx9fby8OnqUdOrU0Tl7lhFAAAEEAkRg7Z41cn3ZegFSG6qBAAIIIIAAAggEhsDnvVbJif3xgVEZL2tx1/u06bykYjcEEEAAAQQQ8CCw68guGbbwaTly8rCHPfyz+rEmT0i1yOr+KZxSEUAg2wn4JJirgdCPPv5URo8cLm1a32qQCoSGypfTpnsM5u745x954rF+0qF922SoBw8elFFjXpZPPnzf0bO29wMPykujxsg7b09Ktn9CQoIMHvqM3Niksbwxbqxo0FZTh/btpNt9vaTFzc2lUcMGZl2njh0kIqKEWdZvESWKy6Ann3C8Hzdhonz82VSCuQ4RFhBAAIHAElhnBXPvrts1sCpFbRBAAAEEEEAAAT8KnIxJkBMH4qXvvBtF/DAd24GD0RLp9He2HykoGgEEEEAAAQRykMDeo3vk6XmD5a4690qb6snjDDmIglNFAIFsLuCTYK4affrxB1KxQgUHV3DuYNEgq7t0/vx52b17t4QWCJFflq+QqMhIqVSpomPXrdv+kvBi4Y4ArG7o1vUe6dd/gGMf5wXtlav5zZ09wxHI1e0awH151Ehr3aU5FZ8cNET63NfDY7A2X958cvbcWefsWUYAAQQQCBCBo/FHZffRXVK7NMPhB8gloRoIIIAAAgggEAACcYcTpEC4NRebHwK5AXD6VAEBBC5TYO6382Xtut/l8f6PSljhwo7c0jKdmh7E9GcOOhYQQCATBDSQO+TbgQRyM8GaIhBAwP8CiV1YL7MeuXLlkmpVr5L8+fOZnLRn7eR33hftBesuxcTEmNUPPtxPHn9ioNzcqrXc272nxJ86Zdb/++9OueLKyhIUdKl6ZUqXlri4WDl27FiyLHV/DSQXLlQo2bbOd9wu9W/wPHTTwehDMmXqF/LZlM/lheEjzVDRQwY9mSwfViCAAAII+F9Ae+VeFVFV8uW2blaSEEAAAQQQQAABBIzAyZjTEhqeFw0EEEAgTQLR0dHS96FHpf+TA+STzz6TeGvaNDvpdGpDnn5OSpWKkpDQEDOd2qLvFtubk71qR4tWbdrLnDlzpXSZMuYenk5/pvfa7ORp+jPt7BESmt9Mf9b5rntkxoxZ9iG8IoAAAm4FCOS6ZWElAghkYwGf9cy1jWJj46RH7wekccP6bodQ1v0KW0/5ff7ZJ1K+XFmJiooSDcZ2vutemfzue2bo5ROxsZIndx47S/NaqGBB8xoXFydhYWEu2+JPxUux8GKOdVqH29pfmvP2lhY3yTNPDXFsd17QAPGKlavMqn379ye+7v3PeReWEUAAAQQCREDny61dpm6A1IZqIIAAAggggAACgSEQawVzCxDMDYyLQS0QyEICX3z1teTNm0e++nyK3HnPpals0jqdGtOfZaGLTlURyAYCBHKzwUXkFBBAIM0CPg3mnj59Wh7u11/y5c0rr7/2ikvPWuea5cuXz6W3bIUK5aVXzx7yw9KlJphboXw5+err6c6HyKGYxAnMIyNLuqzXNzWqV5cxr7wm586dM0Mqaw/h0SNHmP0GDnpKziZ4HjZZe/ROmjDOkeeChYvkkccel5YtW1hDPV8KEDt2sBbi4k5KrBVUtlMuayyrC9a/nJ6iDyX2uM7pDpw/Agh4FricnxP6c/a33aukSelmovOykRDIjgLMN5gdryrnhAACCGS8gM6ZSzA3450pAYHsJtDdmtKsSJEippNF0nNLy3RqTH+WVI/3CCCQEQLRcdHy9e9fyqItC6T3DX2ZIzcjkMkTAQQCVsBnwdxz587LwMFPWfNj7JUZ076QkJAQjye9b98+mf3Nt9LLmrvWHppZn+IrEBpqjilXrpyZA3fXrl2iy5p+Xb5crqhc2WVOXLPB+qZDPGv6Zu486dihneTOnVsa1r9BtIeu9vKte10ds92bbw2teXY17dq122Mwt0CBUNEvUnIBbkInN2ENAgi4CqT358T2Q9tFh/W/vsr11iM0TAjnqso7BBBAAAEEEMjJAjpnbliU57/Bc7IN544AAp4FNJDrLtnTqdnb7OnUXhz2rL3K5TW16c9cdk7yxp7+THsD/73jH5kxa7ZMfGNskr14iwACOVnADuL+sG2JNKjQSN7q9K6ULlImJ5Nw7gggkAMFfBbMfXHESJm3YKFM+fRjOXr0mPlST+11qw2yF0eMkmbNmkizpk2tYZbD5LXXx8lBq2dVr/u6mcba+x9+LEMHDzSXoEb1atK0SWN59vnhMnTIIDl85IhMmPS2jBrxottLVMzqQfvisOdkwOAhZt9GVkBW5+UdP3GSFCtWVJo0auj2OF0ZH3/K8QTiv7t2OublqHpVFY/HsAEBBBBAIPMFdL7cumUI5Ga+PCUigAACCCCAQKALnDx8WqJquk5HFOh1pn4IIJA1BLyZTo3pz7LGtaSWCGQ1gfV718mSbYtlw3/rpVbUNfJGxzcJ4ma1i0h9EUDAZwI+CeYesYKtUz7/3FSqa/f7XCr31+ZNcubMWfNkXf6Q/CaYW7BgAfliyqcyeOgz8umUKVYv14Jyf++ecs/dd5pj9QnA0S8Nt4K5L8pt7TpYPWTDpacV9G3bprVL3s5vullDw2iaNn2mjBw9xuSpvXPfmjDeZY7d3MGXTjkoKEj2H9gvzW9pZY7VetStc63M/PqrFHsWm535hgACCCCQqQJr9/wmt1yV+PM6UwumMAQQQAABBBBAIMAF4g4xZ26AXyKqh0CWFPB2OjV/T3928mS8hIYyOoF+yC5naqMs+SGl0tlOIPb0Cfll18/y8+6lknA2QZqUbyZDGw6ToqHWdIgJwrRbGXzF+RmSwcBkn+0EChYokGmj+F6KbF4GY9GiRWXHts0ecwgODpZ1q5eb4Y/tnW6od70s+/47OXb8uBQqWDDZ/LpRUVHywbuTrZ6z8ZI3bz63wyvbedmvGtDVr+MnTlhDNhdwe8zc2Zfm4u3SuZPoFwkBBBBAILAFTp89JVsPbpEhNz0T2BWldggggAACCCCAgB8ETh4+I6Hhef1QMkUigEB2FUjLdGpMfxZYn4L0Tm0UWGdBbXKigA6n/OzCIVI1opr0afCA3FA+cTrEnGjhz3PmZ4g/9SkbAc8CPgnmes7+0hadx9ZdCitc2N1qx7qU5t517JRkoXChQknW8BYBBBBAICsLrLOG1ilbpJwUCXE/p1NWPjfqjgACCCCAAAIIXI7AhXMX5NTxBClQNN/lZMOxCCCAgItAStOpuexovWH6s6QivEcAgfQIvP7jy9K2Znu5p07X9BzOMQgggEC2FnAfYc3Wp8zJIYAAAghkNQGdL7d2mbpZrdrUFwEEEEAAAQQQyHCB2EMJkis4SPIV4s/7DMemAASyqYA125lJOu2ZptSmU9MR+JImpj9LKsJ7BBBIi8DCLfPlxOlYubP23Wk5jH0RQACBHCPAX3s55lJzoggggEDWFVi9e5U83nRA1j0Bao4AAggggAACCGSQQFzMKSkUQa/cDOIlWwRyhED58uVdpk9LbTo1TyhMf+ZJhvUIIJCSwMHYg/Lp6o/kpdYvS3Cu5A+LpHQs2xBAAIGcIkAwN6dcac4TAQQQyKIC+47tk1jr6cwaUTWz6BlQbQQQQAABBBBAIOME4mISJLQY8+VmnDA5I4BAWgWY/iytYuyPQM4WGLf0FWlTo71UCq+UsyE4ewQQQCAFgaAUtrEJAQQQQAABvwus3btGro66mqcz/X4lqAACCCCAAAIIBKLAycPWfLnhBHMD8dpQJwQQQAABBBBIWYDhlVP2YSsCCCBgC9Az15bgFQEEEMghAvd90VXCQ8OtAOk1UqNkDalZspaE5A0J2LP/fe9aqVP2uoCtHxVDAAEEEEAAAQT8KXDS6plbIDy/P6tA2QgggAACCCAQYAIHYw/IgNmPy/HTxwKsZsmrM77jmzzAn5yFNQgggICLAMFcFw7eIIAAAtlb4Pip43Lk5GF5tPFjsuXgZvl6/TR5afGLAX/Sfer3Dfg6UkEEEEAAAQQQQMAfAnExpyW8ckF/FE2ZCCCAAAIIIBCAAhcuXJBXfhgjHWt1kttr3RGANaRKCCCAAAJpFSCYm1Yx9kcAAQSysMDR+KNSMG8hua5sPfMldTP3ZA4cjJbIiBKZWyilIYAAAggggAAC2VhA58wtV49hlrPxJebUEEAAAQQQSJPAF+umSt7gPCaYm6YD2RkBBBD4f/buA76q+v7/+Dt7D5KQMATCkA2yRIYoBQGLTBEHggjS2trWgQJaq1UUHBVBoNba4cKBMo0C7tF/q4CIAwFlJwZCBmTdLDL+5xx+uSRkkISMO17Hx+Wee875fs/38/zS28v93O/3i4DDCpDMddiuoWEIIIBA/Qtk5J5UWEBY/VdMjQgggAACCCCAAAJNImA7ka/ACJK5TYLPTRFAAAEEEHAwgZ9SftSm3XFaMeU5eRj/sSGAAAIIuIaAp2uEQRQIIIAAAjURSDfWSgkPCK/JpVyDAAIIIIAAAggg4AQCuUYyNyjSzwlaShMRQAABBBBAoCEFcgty9cRHi3Tn5XerWUCzhrwVdSOAAAIINLIAI3MbGZzbIYAAAk0pkJGboVB/RuY2ZR9wbwQQkDZt3qLP//Nf+fr6asyYURo6eFC1LImJR7UhLk579+xVZGSURo4YrmGXDrWXKSoq1k2zbtHE8eN07dQp+mrHTr27abP9fFTzSA0aOFD9+/W1H2MHAQQQcAWBwvxiFeQUkcx1hc4kBgQQQAABBM5T4Jn/PK1+Fww4vazWedZFcQQQQAABxxJgZK5j9QetQQABBBpUIDMvnZG5DSpM5QggcC6BZ597Xgv++IBatWqpgMAAzZg5S++9/0GVxbZu264rx03Uxo1xan3BBbLZsjVz9hw9tHCRvYyXl6e6deuqmBbR1rH9+/drzbr1CgwKMO7hr61bt2vq9dO0du16exl2EEAAAVcQyE7Nk0+Qt7z9+Ke9K/QnMSCAAAIIIFBXgU/3f6yDqfv168G/qWsVlEMAAQQQcGABRuY6cOfQNAQQQKC+BdKNkblMtVPfqtSHAAI1FSgpKdELL76sxxYt1Lixv7SKBQUG6o0312jM6FEVqikoKND8++7X5cMu1TNLl8hM2prbpIkTNOPm2Rp1xQgNHTLYOjZl8iRFRze39s0/optHad7cu+yvly5foRdfeVVTpky2H2MHAQQQcHaBnLQCBUeyXq6z9yPtRwABBBBAoLYC+UX52pO0W7uSvtNPyT9qv5HIfXTs4/Lx4nNBbS25HgEEEHAGAZK5ztBLtBEBBBCoJ4GM3HTFRsTWU21UgwACCNRe4OUX/6X2sbH2gl7eXjKTtpVt5qjchIQExW1Ya0/kmteZCdwnFi8yjnnZi82dt0Bzbp5ZZbLWz9dPhUWF9uvZQQABBFxBwGYkcwObsV6uK/QlMSCAAAIIIFCdwE8pZsJ2nw6k7FdS1lElZycrxD9UvVv20YSek9UjpqcCfAOqq4JzCCCAAAJOLEAy14k7j6YjgAACtRXIMKZZDgsIr20xrkcAAQTqRcDDw0Pdunax15WcnKzn/v5PPfzgn+zHyu4cPnzESvyGhoSUPWztT73m6grHyh5ITknVqldflzka+MDBQ1q7foNWPLOk7CXsI4AAAk4vYEvLV1AUyVyn70gCQAABBBBoEoEUW4ruWv97ZeVnNcn9a3PTtuHt1DGykzpEddIVXUYbzx3l58VngNoYci0CCCDgzAIkc52592g7AgggUEuBDGOa5TC/sFqW4nIEEECg/gWys22aecuvdemQQca0yeMrvUFuXq4iIiPs58wyV008M03y6FEjdf+9C+zny+6Ya+t+uXWbdehoUtLp58RjZS9hHwEEEHB6gRwjmRsYwXSKTt+RBIAAAggg0CQCT3/yhMZ2H69p/aY3yf25KQIIIIAAAjUVIJlbUymuQwABBFxAwByZG87IXBfoSUJAwLkF8vPzddsf7pCfr6+efupJeXqeXgv37Kh6dO+ux598SkVFRdaUyv7+fsZ6u49Yl90z714VFlQ9bbI5lfPK5UvtVW7e8p5+d/udGjNmlCIjziSI7RcYOzZbjrJtNvshD3moxPjP3beU1DR3JyB+BBxWIO1opiK7BOp4ckqTtpH3iSbl5+ZOIBAT3dwJWkkTEXAvgS17NxkjcrN1Xd8b3CtwokUAAQQQcEoBkrlO2W00GgEEEKi9QFFxoWwFNoX6M81y7fUogQAC9SVQVFSse+bfq8TERK1983UFBFS9rlPplMxvx72ryZMmyNvbW0MGXSJzhG5Wdrb6D+hX42YNMdbZNbf4+IQqk7lBQYEyH2wVBfgSuqIJRxBwBIEiW6JatIuUI/xv1BHa4Ah9QhsQQAABBBxfwFxv9uXtL+jRsU/Iy8PL8RtMCxFAAAEE3F6AZK7b/xUAAAEE3EUgPS/DCNVDIf7B7hIycSKAgAMKPPzIIr27eYtWvfyi0tMzrIfZzNjYdhVaG2GMoH34wQd09/wFOnHypIYaCdm0tDQtW7FSERHNNGzokAplSg/k5ubJXHPX3A7HH9Hateut/a5dOlvP/IEAAgi4goC5Zm5wpL8rhEIMCCCAAAIINJrA0k+f1LgeE9UhskOj3ZMbIYAAAgggcD4CJHPPR4+yCCCAgBMJZOSenmLZnDaUDQEEEGgKgZNGQnbVa69Zt55+083lmrBvzy5rKuVyB40XM6ZPsw69uWadFj32uDFyNtganfvs8mUKCzuzBri315mPtea0zUnHkzRi9JVWWbNM/359tO6t1dWOBD773rxGAAEEHF3AllqgwEjWzHX0fqJ9CCCAAAKOI8D0yo7TF7QEAQQQQKDmAme+9ap5Ga5EAAEEEHBCgUxjZG6Y/5nEhxOGQJMRQMDJBZo1a6aDP+2pdRRmQtd8ZGZlKSgwyEj6VlxjN27DGnu9106dIvPBhgACCLiyQF7mKZUUFysogmSuK/czsSGAAAII1I9AflG+Vu98TZt3b9LicU8yvXL9sFILAggggEAjCZDMbSRoboMAAgg0tUC6MTKXZG5T9wL3RwCB8xEIDQk5n+KURQABBFxKICetQAGhvvLwYtYVl+pYgkEAAQQQqHeB/xz6XP/+8h8KDwjXo1c9rvYR7ev9HlSIAAIIIIBAQwqQzG1IXepGAAEEHEggPTfD+IdLMwdqEU1BAAEEEEAAAQQQqKuAzUjmBkYxKreufpRDAAEEEHB9gcT0n/XX/y5X/MkjmjHgZo3ueqWx8BQ/gnL9nidCBBBAwPUESOa6Xp8SEQIIIFCpQGa+MTI3gGmWK8XhIAIIIIAAAggg4GQCOSfzjSmW/Zys1TQXAQQQQACBxhFIsaXoro23a3inX+i+Kx5QiB+z/DSOPHdBAAEEEGgIAZK5DaFKnQgggIADCmTkZCgmtIUDtowmIYAAAggggAACCNRWwJaWr8BIRubW1o3rEUAAAQTcQ+DpT57QpF5Xa1q/6e4RMFEigAACCLi0gKdLR0dwCCCAAAJ2gfS8dGt9GPsBdhBAAAEEEEAAAQScVsCaZjmCZK7TdiANRwABBBBoMIEtezcpKz9b1/W9ocHuQcUIIIAAAgg0pgDJ3MbU5l4IIIBAEwpkGMncMH+mWW7CLuDWCCCAAAIIIIBAvQmYydzgSKZZrjdQKkIAAQQQcAmB5Oxkvbz9Bc0dPl9eHl4uERNBIIAAAgggQDKXvwMIIICAmwhk5GYYa+aGu0m0hIkAAggggAACCLi2QI4xzTJr5rp2HxMdAggggEDtBZZ++qTG9ZioDpEdal+YEggggAACCDioAMlcB+0YmoUAAgjUt0BGLtMs17cp9SGAAAIIIIAAAk0lYDtRwJq5TYXPfRFAAAEEHFKA6ZUdsltoFAIIIIBAPQh410MdVIEAAggg4OACRcWFyi/KV5gf0yw7eFfRPAQQQAABBBBA4JwC329IlDkyNySGaZbPicUFCCCAAAJ1Evgp5UftS/1JB1MO6MCJAzqUdqBO9TR2oWWT/8r0yo2Nzv0QQAABBBpcgGRugxNzAwQQQKDpBdJy0uTl6a0A38CmbwwtQAABBBBAAAEEEKiTQNGpEn2yZI+ObDuhX/65l/xCfOpUD4UQQAABBBCoSmDtt2/p5a9eUJvwtuoUeaE6RnfSyC6j1DGqk/y8+BFRVW4cRwABBBBAoCEFSOY2pC51I4AAAg4ikG5MsdyM9XIdpDdoBgIIIIAAAgggUHsBW2q+Nj+0S6dyizRlRT+Ft+ZHerVXpAQCCCCAQFUCWflZevqTv8gckfvnMQvV74IBVV3KcQQQQAABBBBoZAGHTuZu2rxFn//nv/L19dWYMaM0dPCgankSE49qQ1yc9u7Zq8jIKI0cMVzDLh1qL1NUVKybZt2iiePH6dqpU/TVjp16d9Nm+/mo5pEaNHCg+vfraz/GDgIIIOAKAuZ6uWEkc12hK4kBAQQQQAABBNxQ4NgPGXr/kd1qfmGwrniym3wDHfqf8m7YQ4SMAAIIOLeAmcB97MNH1Tw4WsunPKvIwEjnDojWI4AAAggg4GICno4az7PPPa8Ff3xArVq1VEBggGbMnKX33v+gyuZu3bZdV46bqI0b49T6ggtks2Vr5uw5emjhInsZLy9PdevWVTEtoq1j+/fv15p16xUYFGDcw19bt27X1Ounae3a9fYy7CCAAAKuIJCZl8l6ua7QkcSAAAIIIIAAAm4nkHEsV5v+9L26X9VSYx/pRSLX7f4GEDACCCDQsALJ2cf1p3fv1S8uHKEnxy8hkduw3NSOAAIIIIBAnQQc8ue8JSUleuHFl/XYooUaN/aXVmBBgYF64801GjN6VIVACwoKNP+++3X5sEv1zNIlMpO25jZp4gTNuHm2Rl0xQkOHDLaOTZk8SdHRza1984/o5lGaN/cu++uly1foxVde1ZQpk+3H2EEAAQScXcCcZpmRuc7ei7QfAQQQQAABBNxN4FRekTW1cpfRLXTxjFh3C594EUAAAQQaWMD8DvbJjx/X9f1u1NW9r2ngu1E9AggggAACCNRVwGFH5r784r90xYgR9ri8vL1kJm0r28xRuQkJCVpsJH9LE7nmdWYC94nFi4xjXvZic+ct0KeffGZ/ffaOn6+fCosKzz7MawQQQMCpBTLyjGSuf7hTx0DjEUAAAQQQQAABdxP48PE98gvy1tBbO7pb6MSLAAIIINAIAq/vfFW+Xj6a3HtKI9yNWyCAAAIIIIBAXQUccmSuh4eHunXtYo8pOTlZz/39n3r4wT/Zj5XdOXz4iNrHxio0JKTsYWt/6jVXVzhW9kBySqpWvfq6zF+iHTh4SGvXb9CKZ5aUvYR9BBBAwOkFMnIz1C4i1unjIAAEEEAAAQQQQMBdBHauPqLUA9m6ZkV/eXh6uEvYxIkAAggg0EgC5jq5m3bHacWU5+Rh/MeGAAIIIIAAAo4r4JDJ3LJc2dk2zbzl17p0yCBj2uTxZU/Z93PzchURGWF/bZa5auKZaZJHjxqp++9dYD9fdsdcW/fLrdusQ0eTkk4/Jx4rewn7CCCAgNMLpOee1EUBfZw+DgJAAAEEEEAAAQTcQeDnb05qx2vxmrSkrwLCfdwhZGJEAAEEEGhEgdyCXD3x0SLdefndahbQrBHvzK0QQAABBBBAoC4CDp3Mzc/P121/uEN+vr56+qkn5elZ+azQPbp31+NPPqWioiJrSmV/fz9jvd1HLI975t2rwoKqp002R/SuXL7Ubrd5y3v63e13asyYUYqMOJMgtl9g7NhsOcq22eyHzF+vlRj/ufuWkprm7gTEj4DDCqRln1BxnnQ8OaVJ28j7RJPyc3MnEIiJbu4EraSJCCCAAAINKXAi3qbPl+/TZbd3VlSn4Ia8FXUjgAACVQqcOnVKb6x+Szt27lS08Rl13Nix6t2rZ5XXmycSE49qQ1yc9u7Zq8jIKI0cMVzDLh1qL1NUVKybZt2iiePH6dqpU/TVjp16d9Nm+/mo5pEaNHCg+vfraz/GTsMIPPOfp9XvggEa0GZgw9yAWhFAAAEEEECgXgUcNplrfsC7Z/69xgfBRK1983UFBARUGXjplMxvx72ryZMmyNvbW0MGXSJzhG5Wdrb6D+hXZdmzTwwx1tk1t/j4hCqTuUFBgTIfbBUF+BK6oglHEHAEAVthtmJbtlNMVNMninifcIS/EbQBAQQQQAABBBxRID0xR3ELvlP/aW3VeWSMIzaRNiGAgJsI/P72u7T3p5807fprdejQEU2aMtX4fu4N9e1zUaUCW7dt15xbb1PLFjEaMeIXSktN1czZc3TT9Ol66MH7rTJeXp7q1q2rYlpEW6/379+vNevW66YZ06zlz7Zu3a4lTy/TXx5brClTzsy4V+kNOVhngU/3f6yDqfv112v+Xuc6KIgAAggggAACjSvgsMnchx9ZpHc3b9Gql19UenqG9TBpYmPbVRCKMEbQPvzgA7p7/gKdOHlSQ42EbFpampatWKmIiGYaNnRIhTKlB3Jz82SuuWtuh+OPaO3a9dZ+1y6drWf+QAABBFxBICMvQ2EB4a4QCjEggAACCCCAAAIuKWAmcjfe862VyO05vrVLxkhQCCDgHAInTpzQBx99pLgN69Sjezer0RkZ6Xr77XcqTeYWFBRo/n336/Jhl+qZpUuMWfNOz6w3aeIEzbh5tkZdMcL6rs6saMrkSdZI31KJ6OZRmjf3rtKXWrp8hV585VWSuXaR+t15e9cG/Wvr81o6aaV8vHzrt3JqQwABBBBAAIEGE3DIZO5JIyG76rXXrKCn33RzueD37dllTaVc7qDxYsb0adahN9es06LHHjdGzgZbo3OfXb5MYWFh9su9vc6EbE7bnHQ8SSNGX2mdN8v079dH695aXe1IYHtl7CCAAAJOIJCdb1NRcaEiWAfHCXqLJiKAAAIIIICAOwqQyHXHXidmBBxXICDw9Gx0mZlZViNLSkqUnpmp7j26V9poc1RuQkKCkfxda0/kmheagy2eWLyo3Pd4c+ct0JybZ1aZrPXz9VNhUdXLpVXaAA6eU+BU8Skt+3SJtids059G/VkdIjucswwXIIAAAggggIDjCJzJbDpOm9SsWTMd/GlPrVtkJnTNR2ZWloICg8p9gCytLG7DmtJda30Oc40ONgQQQMCVBTLz0hXgEyAvT4d8y3dlemJDAAEEEEAAAQTOKUAi95xEXIAAAo0sEODvr0ULH9btd87VVWN/qX3GdMjJx5M1ZdLESltiznjXPjZWoSEhFc5PvebqCsfKHkhOSdWqV1+3plk+cPCQ1q7foBXPLCl7CfvnKZBqS9Uj7/1ZeYV5WjpxuVqHX3CeNVIcAQQQQAABBBpbwCW/2a/sw2Njw3I/BBBAwFEErCmW/c/MUOAo7aIdCCCAAAIIIIBAUwjkZ53S63O2y3x2lG3IrzuJqZUdpTdoBwIIFBcX69vvvldefr6xjFmqcvPyZI7SPZ6colatWlUAys3LVURkhP14drZNV008s+bt6FEjdf+9C+zny+7YbNn6cus269DRpKTTz4nHyl7C/nkI7D6+S4s/eESdoi7UghF/VIDv6VHX51ElRRFAAAEEEECgCQRcMpnbBI7cEgEEEHBYgXRjZG6oP+vlOmwH0TAEEEAAAQQQaFSB/Z+lKKSFv25ePaRR78vNEEAAAWcR+OiTT/TmmjX6/OMPdcEFp9fwfviRxVpgrIv7/uZ3KoTRo3t3Pf7kUyoqKrKmVPb399Njix6xrrtn3r0qLKh62mRzRO/K5UvtdW7e8p5+d/udGjNmlCIjziSI7RcYOzZbjrJtNvuhnJxcBQYG2F83xs6JnDQ98vmDsp3Kbozbndc9rrpwgiZ2naLMdJsydcbtvCqlMAIIuKRASmqaS8ZFUAg0lEBwUJCx5Gvj/FCKZG5D9SL1IoAAAg4ikJmbrvAARuY6SHfQDAQQQAABBBBoYoF9nyTrwuHRTdwKbo8AAgg4rsCRIwnq1LGjPZFrtvTSoYP10iuvGAnb4grLmnXr2sUK5u24dzV50gR5e3tryKBLZI7QzcrOVv8B/Woc7BBjnV1zi49PqDKZa35p2lhfnFbV8GXvPKFxPSdoWr/pVV3SJMfN0dMx0c2b5N7cFAEEXEOA9xDX6EeicD0Bkrmu16dEhAACCJQTSM/NUFhAs3LHeIEAAgjURSDfmGrvpVdWKS8vX7f//rZKq9iwMc6alq/sySuNkRWXDLzYOmR+AfjpZ5/pgw8/VsuWLTT2l1fqwk4dy15eYT8x8ag2xMVp7569ioyM0sgRwzXs0qH268w6b5p1iyaOH6drp07RVzt26t1Nm+3no5pHatDAgerfr6/9GDsIIOCeArbUfCX/mKUxD/RwTwCiRgABBGogYH5uW/z4E3rt9dUadcUIpaad0F+fe974DPaLColcs7oIYwTtww8+oLvnL9CJkyc11EjIpqWladmKlca5Zho2tOqZEHJz82SuuWtuh+OPaO3a9dZ+1y6drWdH/GPL3k3Kys/WdX1vcMTm0SYEEEAAAQQQcEEBTxeMiZAQQAABBMoIWGvm+oWWOcIuAgggUHuBb7/fpfGTplhT6K1dv6HKCjbGvaO9P/2owKAA+8McnVG6vfDSy7rz7vlWInfv3r0aM3acEhJ+Lj1d4Xnrtu26ctxEbTSSxK0vuMCYVi9bM2fP0UMLF9mv9fLyVLduXRXT4vRIu/3792vNuvXW/QMC/bV163ZNvX6a/ctBe0F2EEDA7QR+/DBJrfuEKyDcx+1iJ2AEEECgpgK9evbQ8mVPa+Wzz+mSoZfpqgmTFNM8Sk898ViVVcyYPs1K6Jo/7Bs7fqJ+87vbFRHeTGveeFVhYWdmivL2OvO50NPTU0nHkzRi9JXW4w933G2N5F331moFBDTutMlVBnbWieTsZL28/QXNHT5fXh5eZ53lJQIIIIAAAggg0DACZz5BNUz91IoAAggg0MQCGcY0yy2iuzZxK7g9Agg4u8CTf1micVeNtaa7e/5f/64ynIOHDumu2/+gSRPHV7gmOTnZGuXx0r//aR9Ze8uvf6NHFz+uv/9tZYXrCwoKNN9Ym+3yYZfqmaVL7CNBJk2coBk3z7ZGipgjP8xtyuRJii4zpVy08YXjvLl32etcunyFXnzlVU2ZMtl+jB0EEHA/gb3vH9eAG9u5X+BEjAACCNRSYNzYX8p8ZGRmylwPzsvr3IlLM6FrPjKzshQUaJapOIYkbsMae0vMGVXMhzNtSz99UuN6TFSHyA7O1GzaigACCCCAAAJOLlDxU5WTB0TzEUAAAQTKC2TkpRvTLJ/5JXT5s7xCAAEEaibw1+VLramV/fx8qyxQXFxsjLJNsEbE/veLL3Xw4KFy1/740z4jGRxpTb1XesL8wu9/X24tfVnu2RyVa9a3eNHCcl8GmgncJxYvKvel4tx5C/TpJ5+VK1/2hZ+vnwqLCsseYh8BBNxMIHVftnLS8tV+aJSbRU64CCCAQN0FwkJDy33mqklNoSEh5T671aSMM1zD9MrO0Eu0EQEEEEAAAdcUYGSua/YrUSGAAAJ2gXRjZG64f7j9NTsIIIBAXQTCw8/9PmKujWZuv7ntD1bSNu1EmgYPGqR/Pv83Bfj7W+uhdbqwo8wp9Uq3C1q3tqZOzsgw1vcuMwWfed5cP619bKzMLwTP3qZec/XZh8q9Tk5J1apXX1dJSYkOGEllc2roFc8sKXcNLxBAwL0E9n2arPZDIuXjf+7RZe4lQ7QIIICAcwtc//IU5Z7KbZQglk3+K9MrN4o0N0EAAQQQQACBsgIkc8tqsI8AAgi4oEBGrpEgCTh3EsYFQyckBBBoZIFQY+TGa6+8pHZt2xhr4ra0krFTr79Rzz3/D2vq5azsbPl4l1+nMiQ42GqlzWarkMzNzctVRGSEPYrsbJuumnhmmuTRo0bq/nsX2M+X3THX1v1y6zbr0NGkpNPPicfKXsI+Agi4k0CJtO+T4xp+Rxd3ippYEUAAAbcQeOOmtW4RJ0EigAACCCCAgPsKkMx1374ncgQQcAOBYxnHlJmfocggphN0g+4mRASaXMDPz0+DLhlob0dsbDvNnjVTH3/6qZXMjW3XVqvfOrNOmnlhatoJ6/qYmBb2cqU7Pbp31+NPPqWioiJrej9/fz89tugR6/Q98+5VYUHV0yabI3pXGlNDl26bt7yn391+p8aMGWWt+1t6vOyzzZajbCOpXLp5yEMlxn/uvqWknh5x7e4OxO/cAsd3ZamosFi+7Qp1PDnFuYNxwNbzPuGAnUKTHEogJrq5Q7WHxiCAAAIIIIAAAgg4lwDJXOfqL1qLAAII1FggtyBHC99/UBN7TlaIX8UpSmtcERcigAACNRQ4evSoNrz9jmbfPFNm4tXcCgoKFBQYaO23bdvWWgM3Pj5e5r65/e+LL9SpY8dK11Xr1vX0CLq3497V5EkT5O3trSGDLpE5Qtcc5dt/QD+rjpr8McRYZ9fc4uMTqkzmBgUFynywVRTgS+iKJhxxLoHdO0+o0/BotWgR7VwNd6LW8j7hRJ1FUxFAAAEEEEAAAQQQQMCpBEjmOlV30VgEEECgZgLFJcVa9OFCxYTEaNbAOTUrxFUIIIBALQXM9WgffmSxhg8fpuGXXabQ0DA99fRSJRuj3mbfPMNaq/af/35R982/x6q5R/duumzYpfrTnxfqvgXzdOLkSS1f+TctfuThSu8cERGhhx98QHfPX2BdO9RIyJrr8i5bsVIREc00bOiQSsuZB3Nz86xpns39w/FHtHbtenNXXbt0tp75AwEE3Eeg6FSxDv4vRVc92st9giZSBBBAAAEEEEAAAQQQQAABlxEgmesyXUkgCCCAwBmB5794Tmm2NC2dvEIeHh5nTrCHAAIInKeAOfVw6ZafX6C16zfIP8DfSuYGBwfp9VUva/599+vlVauMUa7B+tUtszTthuusIub70WOPLjSSuQ/rqgmTjBGykZplJH3HjxtbWmWF5xnTp1nH3lyzTosee9yq0xyd++zyZeXW2PX2OvOx1tPTU0nHkzRi9JVWWbMd/fv10bq3VisgIKDCPTiAAAKuLXD4izT5BfmoRbcw1w6U6BBAAAEEEEAAAQQQQAABBFxSwCMzO6vKhcAy0zPVunUrlwycoOpfwFx7iqm16t+VGhGorcAHP27RC9v+raWTVlgjc2tbviGv532iIXWpGwEpMfGoQsNDz0lRn5/xCgsLremPz75pRmamQoKDZSZWK9tyc3Pl6+tX6fTKlV1vHsvMyjKmbA6qVZmq6uJ4zQV47665FVc6psDmh3cpqn2wLr4p1jEb6AKt4n3CBTqREBxeoCk+5zk8Cg2sIMD7cQUSDiCAQC0EeA+pBRaXIlCPAjX5nFf5t2v12AiqQgABBBBoPIHvj36rvxujch8Y/ZDDJXIbT4E7IYBAYwqY69hWtoWFhlaZyDWvN0fIennV7qNoaEhIrctU1jaOIYCAewnEb03ThSNZK9e9ep1oEUAAAQQQQAABBBBAAAHXEajdN2iuEzeRIIAAAi4nkGJLMdbJfUS/HfI7dYvp7nLxERACCCCAAAIIIFBbgZ+/OamgKH+Ftw6sbVGuRwABBBBAAAEEEEAAAQQQQMAhBEjmOkQ30AgEEEDg/AWe/uQJTeg5SSM7jzr/yqgBAQQQQAABBBBwAYGE7ScVOzjCBSIhBAQQQAABBBBAAAEEEEAAAXcVIJnrrj1PYMsdjwAAQABJREFU3Agg4FICW/ZuUlZ+tq7re4NLxUUwCCCAAAIIIIDA+Qgk7EhT2wGR51MFZRFAAAEEEEAAAQQQQAABBBBoUgGSuU3Kz80RQACB8xdIzk7Wy9tf0Nzh8+Xl4XX+FVIDAggggAACCCDgAgK21HxlHstT6z7NXCAaQkAAAQQQQAABBBBAAAEEEHBXAZK57trzxI0AAi4jsPTTJzWux0R1iOzgMjERCAIIIIAAAgggcL4Ch7emqVXvcHn5eJxvVZRHAAEEEEAAAQQQQAABBBBAoMkESOY2GT03RgABBM5fgOmVz9+QGhBAAAEEEEDANQUSdpxUmwGsl+uavUtUCCCAAAIIIIAAAggggID7CJDMdZ++JlIEEHAxgWMZx7T227d09y8WML2yi/Ut4SCAAAIIIIDA+QmUFJcocaeZzGWK5fOTpDQCCCCAAAIIIIAAAggggEBTC5DMbeoe4P4IIIBAHQRyC3K08P0HNTh2iNpHtK9DDRRBAAEEEEAAAQRcVyDxu3T5hfgovHWg6wZJZAgggAACCCCAAAIIIIAAAm4hQDLXLbqZIBFAwJUEikuKtejDhYoJidGsgXNcKTRiQQABBBBAAAEE6kUgYftJxQ5miuV6waQSBBBAAAEEEEAAAQQQQACBJhUgmduk/NwcAQQQqL3A8188pzRbmu694k/y8PCofQWUQAABBBBAAAEEXFwgYUea2g6IdPEoCQ8BBBBAAAEEEEAAAQQQQMAdBLzdIUhiRAABBFxF4IMft+jzA59q6aQV8vf2d5WwiAMBBBBAAAEEEKg3AVtqvjKP5al1H9bLrTdUKkIAAQQQQAABBBBAAAEEEGgyAZK5TUbPjRFAAIHaCXx/9Fv93RiV+8gvF1tTLNeuNFcjgAACCCCAAALuIXB4a5pa9Q6Xlw8zmLhHjxMlAggggAACCCCAAAIIIODaAiRzXbt/iQ4BBM5T4Ddv3qJjWcfOs5b6K377sLvULaZ7/VVITQgggAACCCCAgIsJJOw4qTYDWC/XxbqVcBBAAAEEEEAAAQQQQAABtxUgmeu2XU/gCCBwLoFvEr9WifHfxls2netSziOAAAIIIIAAAi4p8Pot24wpi3OdLrbBv+rgdG2mwQgggAACCCCAAAIIIIAAAghUJkAytzIVjiGAAAKGwPb47bq47SAsEEAAAQQQQAABtxT4+ZuTKjpVols3Xe6W8RM0AggggAACCCCAAAIIIIAAAo4g4OkIjaANCCCAgCMKfJWwVQPbDnTEptEmBBBAAAEEEECgwQUStp9U7GCmK25waG6AAAIIIIAAAggggAACCCCAQDUCJHOrweEUAgi4r8DP6T/rZM5J9WzZ230RiBwBBBBAAAEE3FogYUea2g6IdGsDgkcAAQQQQAABBBBAAAEEEECgqQUaZJrl/Px8vfTKKuXl5ev2399WaYwbNsbp2+++L3fuyjGjdMnAi61jRUXF+vSzz/TBhx+rZcsWGvvLK3Vhp47lrj/7RWLiUW2Ii9PePXsVGRmlkSOGa9ilQ+2XmXXeNOsWTRw/TtdOnaKvduzUu5s2289HNY/UoIED1b9fX/sxdhBAwD0FvkrYpr5tBsjTg9+8uOffAKJGAAEEEEDAvQVsqfnGWrl5at2nmXtDED0CCCCAAAIIIIAAAggggAACTSxQ71mKb7/fpfGTpujxJ5/S2vUbqgxvY9w72vvTjwoMCrA/vL3P5JZfeOll3Xn3fCuRu3fvXo0ZO04JCT9XWd/Wbdt15biJ2mgkiVtfcIFstmzNnD1HDy1cZC/j5eWpbt26KqZFtHVs//79WrNuvXX/gEB/bd26XVOvn6a1a9fby7CDAALuKWAmcy9uc/rHJe4pQNQIIIAAAggg4M4Ch7emqVXvcHn5eLgzA7EjgAACCCCAAAIIIIAAAggg0OQCZ7Kn9dSUJ/+yROOuGqvIiAg9/69/V1nrwUOHdNftf9CkieMrXJOcnKzFjz+hl/79T/vI2lt+/Rs9uvhx/f1vKytcX1BQoPn33a/Lh12qZ5YukZm0NbdJEydoxs2zNeqKERo6ZLB1bMrkSYqObm7tm39EN4/SvLl32V8vXb5CL77yqqZMmWw/xg4CCLiXQH5Rvn5I2qX5I/7oXoETLQIIIIAAAggg8H8CCTtOqs0A1svlLwQCCCCAAAIIIIAAAggggAACTS1Q7yNz/7p8qTW1sp+fb5WxFRcXG6NsE6wRsf/94ksdPHio3LU//rTPSAZH2hOw5skZ06fpf19uLXdd6QtzVK5Z3+JFC+2JXPOcmcB9YvEi45hX6aWaO2+BPv3kM/vrs3f8fP1UWFR49mFeI4CAGwl8Fb9N7SM7KtQ/1I2iJlQEEEAAAQQQQOC0QElxiRJ3mslcpljm7wQCCCCAAAIIIIAAAggggAACTS1Q7yNzw8PDzxlTWlqadc1vbvuDlbRNO5GmwYMG6Z/P/00B/v46fPiIOl3YUZ6eZ3LNF7RubU2dnJGRobCwsHL3MK9vHxur0JCQcsfNF1OvubrCsbIHklNSterV11VSUqIDRlLZnBp6xTNLyl7CPgIIuJnAV/HbjSmWB7pZ1ISLAAIIIIAAAgicFkj8Ll1+IT4Kbx0ICQIIIIAAAggggAACCCCAAAIINLHAmWxpIzYkNDRUr73ykv772cfa/uX/08fvb9FPxmjc557/h9WKrOxs+Xj7lGtRSHCw9dpms5U7br7IzctVROSZKcCys226fORo+2ORMWVzVZu5tu6XW7fJHN373a5d1mVHE49VdTnHEUDAxQVKVKLt5nq5bUnmunhXEx4CCCCAAAIIVCGQsP2kYgef+fdVFZdxGAEEEEAAAQQQQAABBBBAAAEEGkGg3kfm1qTNfn5+GnTJmURJbGw7zZ41Ux9/+qm1jm5su7Za/daaclWlpp2wXsfEtCh33HzRo3t3Pf7kUyoqKrKmVPb399Njix6xrrtn3r0qLKh62mRzRO9KY2ro0m3zlvf0u9vv1Jgxo6x1f0uPl3222XKUXSap7CEPI/1TUvYSt9xPST094totgydolxE4dPKAzKngQ4rDdTw5xWXicpRAeJ9wlJ6gHY4qEBPd3FGbRrsQQMCNBBJ2pGnQLR3dKGJCRQABBBBAAAEEEEAAAQQQQMBxBZokmXv06FFtePsdzb55pszEq7kVFBQoKPD0NF5t27a11sCNj4+XuW9u//viC3Xq2LHcmrjWCeOPbl27WLtvx72ryZMmyNvbW0MGXSJzhK45yrf/gH6ll57zeYixzq65xccnVJnMDQoKlPlgqyjAl9AVTTjiXAIf/bxFg9oPFn+XG67fsG04W2pGwNkE4t7ZpK93fqM77/i9woyZW6raEhONz45xcdq7Z68iI6M0csRwDbt0qP3yoqJi3TTrFk0cP07XTp2ir3bs1LubNtvPRzWP1KCBA9W/X1/7MXYQQKByAVtqvjKP5al1H9bLrVyIowgggAACCCCAAAIIIIAAAgg0rkCjJHPN9WgffmSxhg8fpuGXXabQ0DA99fRSJRuj3mbfPMNaq/af/35R982/x4q+R/duumzYpfrTnxfqvgXzdOLkSS1f+TctfuThSnUiIiL08IMP6O75C6xrhxoJWXNd3mUrVioiopmGDR1SaTnzYG5unrVGr7l/OP6I1q5db+6qa5fO1jN/IICAewlsj9+mqX2uc6+giRYBBBBoZIGUlBT96cGH9cFHH1l3vvVXs6tM5ppLYcy59Ta1bBGjESN+obTUVM2cPUc3TZ+uhx683yrv5eWpbt26KqZFtPV6//79WrNuvW6aMU3m59CtW7drydPL9JfHFmvKlMmNHC23Q8BxBU7E2/Tu/d+rVa9w9b+xrbVGbvy2NLXqHS4vHw/HbTgtQwABBBBoVIFZc25V61at9OjCP1d7X36AVy0PJxFAAAEEEEAAgToLNFgy15x6uHTLzy/Q2vUb5B/gbyVzg4OD9PqqlzX/vvv18qpVxijXYP3qllmadsPpBIqHh4cee3Shkcx9WFdNmGSMkI3ULCPpO37c2NIqKzzPmD7NOvbmmnVa9NjjVp3m6Nxnly9TWFiY/XpvrzMhe3p6Kul4kkaMvtI6b7ajf78+WvfWagUEBNjLsIMAAu4hkJmXqcMnDql/m4vdI2CiRAABBJpI4PXVb8nX10erX1ul66ZNr7IV5swt5ufFy40f+T2zdIl9hpZJEydoxs2zNeqKETJ/xGduUyZPUnSZaaqjm0dp3ty77HUvXb5CL77yKslcuwg77i5wMiFH7yz4Tt3Ht1JOWr5W/2q7Og2PUXZKnjpcypTv7v73g/gRQACBUgFzObLPPv/celldMpcf4JWK8YwAAggggAACCNS/wJnMZj3XbY56KB35YE6lvHP7F9b0x6W3uWTgxfrso/eVkZmpkOBgmYnVslvLli31r+efM0bO5hpf9vnZv7wre83Z+2ZC13xkZmUZUzYHVVombsOZtXjNafjMBxsCCCBgCmw98j/1bNFLfl6np39HBQEEEECgYQRuMj6vhYeH22dHqeou5peCCQkJituwttznOjOB+8TiRcYxL3vRufMWaI6xhEfp50/7if/b8TM+TxYWFZ59mNcIuKWAmciNm/+t+l7XVr0mtbYM+l3fTl+/cURJP2RoxN2nl7FxSxyCRgABBBCwC5jf2T340CMaPGiQfk5MtB8/e4cf4J0twmsEEEAAAQQQQKB+BRosmXt2M811bCvbqlsfzby+LiNkQ0NCKrsVxxBAAIFqBbYnbNeAtgOrvYaTCCCAAALnL2AmcmuyHT58RO1jY1XZZ7up11xdbRXJKala9err1jTLBw4esmaJWfHMkmrLcBIBdxBIT8zR20Yit/+0tuo5/nQi14w7uLmfLvtDZ+vhDg7EiAACCCBwboG/PLXUWsrCHAjxlyVLqyzAD/CqpOEEAggggAACCCBQLwKVZ1jrpWoqQQABBJxL4JvEnbr54tnO1WhaiwACCLiwQG5eriIiI+wRZmfbdNXEM2vejh41Uvffu8B+vuyOzZatL7dusw4dTUo6/Zx4rOwl7CPgdgJmInfjPRUTuW4HQcAIIIAAAucU+GrHTr32xhv65IMt+mH3nmqv5wd41fJwEgEEEEAAAQQQOG8BkrnnTUgFCCDgCgJ7k/fI18tHrcLOjFBxhbiIAQEEEHBmgR7du+vxJ59SUVGRNaWyuXTHY4sesUK6Z969Kiyoetpkc0TvyuVnRpCY67397vY7NWbMKEVGnEkQl/Wx2XKUbbPZD3nIQyXGf+6+paSmuTtBjeP/YP5+2ZILanx9U1zYc1qMml/iq+PJKU1xe+7pogK8T7hoxxJWvQnERDvXWuTmtMkL7vujFsy7W+3atTtnMpcf4NXbXxUqQgABBBBAAAEEKhUgmVspCwcRQMDdBHYn/aBeLS9yt7CJFwEEEHBogW5dT6/b+Xbcu5o8aYLMZTuGDLpE5gjdrOxs9R/Qr8btH2Kss2tu8fEJVSZzg4ICZT7YKgo425fQFSNo+COp+7NVkF2sWzdd3vA34w4IOKAA7xMO2Ck0CYE6Cvz9n/9Sbm6eJoy7SqlpaUo6nqyEhARrv5mxXIaXl1e5mpv6B3g5ObkKDAwo1yZ3fcGPa9y154kbgfoR4D2kfhypxX0EgoOCGu17JJK57vP3ikgRQKAagT3HzWRun2qu4BQCCCCAQGMLRBgjaB9+8AHdPX+BTpw8qaFGQjbN+EJx2YqViohopmFDh1TZJPMLSHPKP3M7HH9Ea9eut/a7dulsPfMHAvUtcPzHTLXoHlrf1VIfAggggAACjS7w/vsfGQncJA29fES5ew8cfKk17bI5Wrfsxg/wymo0/T4/rmn6PqAFCDizAO8hztx7tN2VBUjmunLvEhsCCNRYYM/x3bqu7401vp4LEUAAAQTOX8DD43QdHqU7lVQ5Y/o06+iba9Zp0WOPG794DLZG5z67fJnCwsLsJby9znys9fT0tL6AHDH6Suu8WaZ/vz5a99ZqBQQwasOOxk69CqTsy1LzziH1WieVIYAAAggg0BQCb76xSsXGMhel2zvvbtajjz2hL//fp8YI2IqzmPADvFIpnhFAAAEEEEAAgYYROPOtV8PUT60IIICAwwsknIxXXmG+OkZ2dPi20kAEEEDAlQTMUR0Hf9pzzpDMhK75yMzKUlBgkDG1n2eFMnEb1tiPXTt1iswHGwKNKZD8Y5YGDXGuNREb04d7IYAAAgg4j0CAv3+5xoaGhlizogQZUwlWtfEDvKpkOI4AAggggAACCJy/AMnc8zekBgQQcHKB3cYUyz1ieqi6kWFOHiLNRwABBFxCIDSEUY8u0ZEuGERRQbHS43PUvAt/R12wewkJAQQQcHuBX145RubjXBs/wDuXEOcRQAABBBBAAIG6CZDMrZsbpRBAwIUE9iTtVrcWPVwoIkJBAAEEEEAAgcYUMNfLDWrup4Awn8a8LfdCAAEEEEDAIQX4AZ5DdguNQgABBBBAAAEnFqg4R50TB0PTEUAAgboI7D6+S92NkblsCCCAAAIIIIBAXQTMKZZjGJVbFzrKIIAAAggggAACCCCAAAIIIIDAOQRI5p4DiNMIIODaAidyTijVlqpuMd1cO1CiQwABBBBAAIEGE0gxkrnNO4c2WP1UjAACCCCAAAIIIIAAAggggAAC7itAMtd9+57IEUDAEPjBGJXbIaqjfLx88UAAAQQQQAABBOokcPynLEUzMrdOdhRCAAEEEEAAAQQQQAABBBBAAIHqBUjmVu/DWQQQcHGBPUk/MMWyi/cx4SGAAAIIINCQArkZp5STmq/oziENeRvqRgABBBBAAAEEEEAAAQQQQAABNxXwdtO4CRsBBBCwBHYf/0HX9Z2GBgIIIIAAAgggUCeB5L1ZatYuUF6+/E62ToAUQgABBBBAAAEEEEAAAQScTOBU+ladSt6gU6nvOVnLaW59Cfi1miH/2Lvqq7pz1kMy95xEXIAAAq4qkFuQq8MnDqlHTC9XDZG4EEAAAQQQQKCBBZJ/zDSmWGa93AZmpnoEEEAAAQQQQAABBBBAoEkFSk6lqyB5owqOr1NJSYF8oycpdMAWefhGN2m7uLl7CJDMdY9+JkoEEKhEYE/yD2oV2lqh/kyLWAkPhxBAAAEEEECgBgLJxnq5HYZG1eBKLkEAAQQQQAABBBBAAAEEEHA2geL8JOX//C8jibtW3s2Gyb/d7fKJHOlsYdBeJxcgmevkHUjzEUCg7gJ7ju9W9xY96l4BJRFAAAEEEEDA7QWO783UoFnt3d4BAAQQQAABBBBAAAEEEEDAlQTsSdzkOPlGjVRI3/XyDGjnSiESixMJkMx1os6iqQggUL8Cu5N2acSFo+q3UmpDAAEEEEAAAbcRyDiaq6L8YkV0CHabmAkUAQQQQAABBBBAAAEEEHBFgaLsXSrK3qMi224V5f2s4twj8gm7WCF9VpPEdcUOd7KYSOY6WYfRXAQcVeDWN2crKSvJUZtXZbvuuPzuKs9xAgEEEEAAAQQQqE4g+ccsNe8cIg+P6q7iHAIIuJNA3qkS7dyfre0/Zeurfdn6/kiOCotKXIrAy1NqH+Ov7m0D1KNtkPXctW2g/H2c583wlNEnP/6cq91G/+yOz9UP8TnafzRPhcX131czr2iue65u7VJ/BwgGAQQQQACB6gRKio3/T838RkUZO1SY9ZWKMr+t7nKHOecZ0EHewd3kGdxdPs0nyiu4qzw8/R2mfTTEvQVI5rp3/xM9AvUisDd5j2wFNm28ZVO91EclCCCAAAIIIICAMwik/JSp6C4hztBU2oiAwwk0ZjKtMYM3E53dLgjUgM5BmnNljAZ0ClKgv1djNqHB73V2363/Iq3BEqENFczZCelJgyPkbAnphrKhXgQQQAABBOoqcCp9q04lb9Cp1PdOJ0RDL5Zf69ny7tZfHl6Bda2WcgggYAiQzOWvAQIInLfA7qQf1KvlReddDxUggAACCCCAAALOJHDcGJnbayKjrZypz1yprY43AjSxVrwk02rF5VAX+3h5qGe7QOvhUA2jMQgggAACCCDQ6AIlp9JVkLxRBcfXqaSkQL7RkxQ6YIs8fKMbvS3cEAFXFiCZ68q9S2wINJLAnuNmMrdPI92N2yCAAAIIIIAAAo0rkHEsVxvnfqPcjIIKN25xX/cKxziAwPkK1CRR60gjQI8npygmuvn5hk15BBBAAAEEEEDAbQWK8+KVvesWlRSkNZmBOaFwxv7a39672TD5x94ln4jhtS9MCQQQqJEAydwaMXERAghUJ7Dn+G5d1/fG6i7hHAIIIIAAAk4n8NKHyXpq3VGna3fDNLh2I+7MNnRq6dzrKZY6nsor0uaHdin2suaKGNuqwvqKK/+8p/RSnhGoNwFHStTWW1BUhAACCCCAAAIIIFCpQEmRTbY9d8g3aqyVFK30okY4yA/0GgGZWyBQRwGSuXWEoxgCCJwWSDgZr7zCfHWM7AgJAggggAACLiUw84pomQ933+ryD3pXWE+xtN/HHs+Rf1GJHv8hW+1T49W9bYB6tA0S6yuWCvGMAAIIIIAAAggggAACdRYoKZJt71x5+rU2Erl31LkaCiKAgGsLkMx17f4lOgQaXGC3McVyj5ge8vDwaPB7cQMEEEAAAQQQcA4BV1lPcefqI9r1Tp6uWdFfD4f7OAc+rUQAAQQQQAABBBBAAAGnEcg99BdjauVkBV30qtFmT6dpNw1FAIHGFSCZ27je3A0BlxPYk7Rb3Vr0cLm4CAgBBBBAAAEE3Fvg529Oasdr8Zq0pK8CSOS6918GokcAAQQQQAABBBBAoAEECo5v0KnULQru/ao8PAMb4A5UiQACriLATz1cpSeJA4EmEth9fJe6GyNz2RBAAAEEEEAAAVcROBFv0+fL9+my2zsrqlOwq4RFHAgggAACCCCAAAIIIOAgAoUZXyn34BMK7LpMnv6tHaRVNAMBBBxVgJG5jtoztAsBJxA4kXNCqbZUdYvp5gStpYkIIIAAAggggMC5BdITcxS34Dv1n9ZWnUfGnLsAVyCAAAIIIIAAAggggAAC5xAoKc5TYeY3KsrYoULbLhVn/6CAjn+Ud2ifc5TkNAIIICCRzOVvAQII1FngB2NUboeojvLx8q1zHRREAAEEEEAAAQQcRcBM5G6851srkdtzPL+Od5R+oR0IIIAAAggggAACCDibQFH2LhVl71GRbbeK8n5WSd4xySdcPqEXy6/ljUYSt588vJha2dn6lfYi0FQCJHObSp77IuACAnuSfmCKZRfoR0JAAAEEEEAAAYlELn8LEEAAAQQQQAABBBBAoC4C5UbdZm5XUdZ38gzoIO/gbvIM7i6f5hPlFdzVWBfXvy7VUwYBBBBgZC5/BxBAoO4Cu4//oOv6Tqt7BZREAAEEEEAAAQQcQIBErgN0Ak1AAAEEEEAAAQQQQKAageL8JOX//C8VHF9bzVVNd8pK2pqjbi+Yw6jbpusG7oyAywowMtdlu5bAEGhYgdyCXB0+cUg9Yno17I2oHQEEEEAAAQRcUuD1W7Yp81iuw8Q25NedxNTKDtMdNAQBBBBAAAEEEEAAAUvAnsRNjpNv1EiF9F1vjHpthw4CCCDgVgJOkcyNe2eTvt75je684/cKCw2tsoMSE49qQ1yc9u7Zq8jIKI0cMVzDLh1qv76oqFg3zbpFE8eP07VTp+irHTv17qbN9vNRzSM1aOBA9e/X136MHQQQkI5mHNWCuLs1svMo3TxwtkWyN3m3WoW2Vqh/CEQIIIAAAm4kkJ6ermdWPFsuYj9/P9077277sZSUFP37pVfUvWtXjR831n782LFjemvteu3bt089e/bQDddfp9CQyv9/ZMfXO/XOu5t1669mq0WLFvY6Snc2bIzT9z/8oAf+eK/4jFeq4jzPJxNylJ2Sr1s3Xe48jaalCCCAAAIIIIAAAggg0GgCp9K3qjBlo05lfCWfsIsV0mc1SdxG0+dGCCDgaAKejtagsu0xvwi89be/1x1z79ZLr7yi3JycsqfL7W/dtl1XjpuojcYXe60vuEA2W7Zmzp6jhxYusl/n5eWpbt26KqZFtHVs//79WrNuvQKDAhQQ6K+tW7dr6vXTtNb4kpENAQROC+QW5OiR9/+sHi176tMDH2u+kdRNy0nT7uO71b1FT5gQQAABBNxM4NDhI9bnMvPzU+kjwP/Muj8b347TiNFj9ffn/yHz81nplpKaqgmTp+rb775T7969tHnL+7pxxiwjEVtUekm553379lv3Wf1WxSm08vLy9cBDC/XCiy9ZZfiMV47OKV6cPGJTRPsgp2grjUQAAQQQQAABBBBAAIHGESg5la78xJeU9fVE5R54SB7+7RTSe5UCLlxEIrdxuoC7IICAgwo49Mjc11e/JV9fH61+bZWumza9SsKCggLNv+9+XT7sUj2zdInML/TMbdLECZpx82yNumKEhg4ZbB2bMnmSoqObW/vmH9HNozRv7l3210uXr9CLr7yqKVMm24+xg4A7Czz+0SK1DGule0fer6z8LD39yV90+9rb5OPto5kDZrkzDbEjgAACbilgjq5tEdOi3OenUgjzM9mf/rxQTz72qD786JPSw9bzZ599rtDQED3/t2etz2o33nC9evbpr+++36W+fS4qd23ZF6tefV23/ebX8vHxsR9+7/33rR/u2Q8YO3zGK6vh+Psn4nMU0ZZkruP3FC1EAAEEKgqUnCpU/t59yt/9o/J2/6QC83nfIRm/0Kp4MUfUbOZ1irrnNiQQQACBRhMwR7QWJK9XYer7jXbP+ryRd7Nh8o+9Sz4Rw+uzWupCAAEEnFrAoZO5N02fpvDwcB02RoBUt5mjPhISEhS3Ya09kWtebyZwn1i8yDjmZS8+d94Czbl5ZpXJWj9fPxUWFdqvZwcBdxZ4/ou/WaNw/zJ+qcUQ4heiP1+5UOu+W6OXtv/bGq3rzj7EjgACCLijQOLRo2oX21Z79v6ojIwMXWSMsg0ICLAozITr//v0Q4WFhVVI5g4ffrkGXXKJ/bOap+fpz2eFhVV/7urSpYt+/jlRH338ia4cM9rO/dKq13TJJQONWVW22Y/xGc9O4RQ76cbI3KhOlU+x7RQB0EgEEKizwKmk4zrx91eUvWGziqv5/4A636CpC3p6yr/bhQq4uK/x6KOA/hfJMyiwqVtV5f1LjNku8nZ+p5zt31iPgl17z90vRoy+7dvJr0dnBXTvrLBJY+VnxOxhLLvAhgACCCDQNALmiNaC5I0qOL5OJSUF8o2epMABW+The3qGyqZpFXdFAAEEEKgvAYdO5pqJ3JpsZrK3fWxspWuuTb3m6mqrSE5JlTnio6SkRAcOHtLa9Ru04pkl1ZbhJALuIPDe3k36dP/HWjpppQJ8T39JXxr31b2v0aUdLlN0MB8IS014RgABBNxFIDHxmJVEvfaG6fbRsf947lmNHPELeXh4WIncyiyiIiPLHV7x7LNq06aNlQwud6LMi+DgIN047Xq9YnxWK03m7tm7V998842WL3u6XDK3TDFrl894Z4s41mtzZG7nERXXQnasVtIaBBCoTwF7EvftLQq64nK1Wf+CfI0fB7naVjY5euIfq1Rwx5/OnRxtSoQyyeeIX013+ORzU1JxbwQQQKApBYqyd6koe4+KbLtVaPtRxdl7KzSHEa0VSDiAAAIIuIyAQydza6qcm5eriMgI++XZ2TZdNfHMNMmjR43U/fcusJ8vu2Ourfvl/43qOJqUZJ06anxJyYaAOwt8f/Rb/ePL5/XILxcrJiSmUgoSuZWycBABBBBweYFZM6dr7C/HqH+/fkasJVr+12f1q9/cpm93bFdISHCN4t+wMU5/e+55rX3zDWNJDd9qy1w/9Ro9/49/6sCBg+rYsYNef+MtK3FsJoKr2/iMV51O054rKS5RekKumsU67ki1phXi7vUtwJSw9S1aeX2ZlR8+c9TTQyFXjlSbtf92ySRuaaDm6NSAwRdbj/I/Yyq9gmcEEEAAAUcRMNdmzTvyjKM0p9p2eAZ0kHdwN3kGd1dA84nyCu4qD0//astwEgEEEEDAdQRcIpnbo3t3Pf7kU8byLEXWlMr+xj+eHlv0iNVL98y7V4UFVU/fZ47oXbn89BSyZoHNW97T726/U2PGjFJkxJkEcdkut9lylG2z2Q95yMP4KrPE/tpdd1JS09w19FrHff9H85SSk1zrco1Z4OaL5ijCo7mOJ6c05m25l4sL8D7h4h1MeOctEBPd/LzraOgK2rVrJ/NRuv3uN7dqxcpnjbVvv7eWuCg9XtXzZ//5j+bOm6+Vzyytdq3c0vKxse102bBL9cZbb+mO3/9eq157TS/86/nS01U+18dnvPy34pT/3EtV3sOdTpwzSVMLDJuP8Rk75g9KumKMTv+UshaFuRSBOgp4tmsjzy4d5dW5vTwvH6SQCzvIw48pYevIWaGY+RmveVTNUpcnzdL8G6OCIQdcW8AZPuO5dg8QHQLlBUpOZShn/5+Mka67FNhthXyaDS1/Aa8QQAABBBBwMAGXSOZ269rFYn077l1NnjRB3t7eGjLoEpkjdLOys9V/QL8asw8x1tk1t/j4hCqTuUHGejfmg62iAP9AqWhy9pGEk/HKLMjUxls2nX2K1wi4hQDvE27RzQTpwgLmqNrmzaPsiVvzx3Tm5u9/7l+F7/zmW8265dd69OGHjNG9V9ZYyZxqee499yqmebRaxLTQpUOGatfu3TUub15Yp894v5stmQ8338wfdtXne/fB/5eiyLcSdOHmz9xclvARcC2B2r5PFBYX6mDaAR1I3a8Dafu1P3Wf4k8cUVHJ6f9fcQYdTw9PtQ67QJ2iLlTH5p3UKfJCdYjqKD+vMz8UyC/K156k3dqV9J2+O/qdFWeRETub+whM7Hm1ZkfPcZ+AiRQBBxcozP5BOXvvlqd/S4VctJo1ZR28v9yteeZyDTlff6e8r4y17LftVN63PzQ6QX3+kLfRG88NEWhEgWYzr1PUPbc12h1dIpkbYYygffjBB3T3/AU6cfKk9eViWlqalq1YqYiIZho2dEiVoLm5eTLX3DW3w/FHtHbtemu/a5fO1jN/IFDfAofTD6ttM9dbG6q+nagPAQQQQMAxBY7Ex+uBhxbquWdXqE3rVnpmxbPGD+Ai1atnj2obvG//Ad00a46mXD1ZQwYPsn/+Cg8PU3h4eLVlRwwfLn9jBN3iJ57UfQvmGTOxeFZ7vXmSz3jnJGqyC8z1ciPaBjXZ/d35xq6QPHPn/nO12M9OhI68cFSFRKijx3z2/6Y++umDCglpM872kR3Vq0VvXdvnOvWI6aUA3wBHD432IeBUAgcH/dJYRzTHqdrckI1150SMh0+xfGLz5XNhgXy7lsini1el1Dlxxcp+J9c4N7XS8xxEoCkF/Hp0VuDF/RVx600K6Ndbno04qKy+f8jblI7cGwFXE3CKZK6Hx2l2j9KdSnphxvRp1tE316zTosceN0bOBlujc59dvkxhYWH2Et5eZ0L29PRU0vEkjRh9emSIWaZ/vz5a99ZqBQTwjys7Gjv1KmD+2jw2on291kllCCCAAAIINJbArb+ao2PHkjRj5izrlr179dLq116psPatp7E2YtnPbqvfWiNzHdu169Zbj9L23j33TplTNZ+9lS3r5eWlmcZavU8vfUZXT55kXfp/Hw/txfiMZ6dwqB1zKZLvj36rLXu3aOuR/8lMfFz0xVhlNkvSsn997VBtdYfGuELyzB36yRljdNcv/rw9vdW5eRfr4Yz9RpsRcBWBDl9udpVQzjuOhno/zj+6SnmHnz7v9jVGBeaasj6hF8srrL+8Q/vJw6vi7Iph5rifxxqjNdwDAQQQQACB+hHwyMzOqnKx18z0TLU2Rlw425aZlaWgwKAajdpwttgcub0N9YHRkWOuS9sWfbjQ+lX2hJ6nv4yuSx2UQcBZBXifcNaeo93OIpCYeFSh4aHnbG59fMYrLCxUfn6+8QM6RlieE9zJL6jLe3dmXqY+/Ol9vb93swqKT2lU5zEa3fVKRQZG6s3ffqVBN3dQ20uMtXPZEEDAJQTq8j7hEoETBAKNKNCYn/POJyyzne9u3qwff9ynX/zico0aOUJ+VaxR/tWOnXp305lEbFTzSA0aONAYaNG3Vk24/pk05eRX+fVmreri4vIC3p75mnPhPeofuU/L996p70/UfKmU8jXxCgEEEEAAAdcSuHpggG4eXj/fidXkc96ZYaou5BgaEuJC0RCKqwmYI3PHd5/gamERDwIIIICAmwl4e3vLfLjytuH7dXph2z9dOcQGjW1Am4GaPejXGtj2Evt9SopLlJ6Qq2axFUdI2C9iBwEEEEAAAQScUiAjM1OTplyr3r17qqexBMfDCxdpx1df688P3l9pPPv379caY9aWm2ZMU0lJibZu3a4lTy/TXx5brClTJldaprKD914wTkWF5pS5bPUpYEyOo1bNPWVMuKOjx4t1dchT1qM+70FdCFQvcPZ8TNVf7bhn+bGJ4/YNLUOg7gKhgTcYhRfUvYJalnTtb+BqicHlCDS0gDm1YFLWMWPN3NiGvhX1I4AAAggggMB5CkzqdbXMh7tv9TniLj0xV8bykQqJ8Xd3VuJHAAEEEEDA5QRW/PVvim3fTs//7a/GbHleGjF8uCZfc62VmO3Zo3ul8UY3j9K8uXfZzy1dvkIvvvJqrZK5vca+bZQnWWIiHk9JVYxher5bYfYu5R9aKM/AzvKL/aOaVTJV8fneg/IIIOB4AvX1HuJ4kdEiBJxfgGSu8/chETiRwKG0gwryDVZ4QLgTtZqmIoAAAggggAAC9SNw8ohNEe3rZxqi+mkRtSCAAAIIIIBAfQl89dUO3XjD9VYi16zzot691LtXL+3a9YOqSuaefW8/Xz8VFhWefbja17bvrlZJka3aa+py0rvZUPlGT5JP5Mi6FG+SMl7+HvIKaF7re5cU56kw8xsVZexQoW2Xim175dvyOvm3+W2t66IAAgg4r0Bd30OcN2JajoDzCJDMdZ6+oqUuIHDk5GF1jOzoApEQAgIIIIAAAgggUHuBE/E5imhLMrf2cpRAAAEEEEDA8QW++/573bdgXrmGxsa208HDh8odK/si2RhJuurV161plg8cPKS16zdoxTNLyl5yzv3QS/5zzmtqe0HJqRMqSH5beUeWKffQX+QbM1F+MVPk4Rtd26oc8voiY+RtUfYeFdl2qyjvZ5XkHZN8wuUTerH8Wt4o79B+8mA0rkP2HY1CAIGGE0j+MUsp+4zH/myl7s9S2sHshrsZNTu9QO+r22jwnA6NFgfJ3Eaj5kYISEeM9XKZYpm/CQgggAACCCDgrgLpxsjcqE4h7ho+cSOAAAIIIOCyAkVFRVZsXl7lv2oMCQ6RLTunyrhttmx9uXWbdf5oUtLp50QjsViLbeW4z+RTXIsClVx6yiNfh/y+Nx7f6Yj/HqX4JqnY43SlvVv46JpOKzS05d/1Y3qhvks7pa+Pn9IPqYVqFeyprpHe6hXpo54R3rrIeG7KzVzIImP/uVuwx4wj9ZS+P1GoPWmFOmg8FxSZU1V/eu7CXOGgAh4KLApWaGG0Qk+1ULPC1govukBeJb4O2l6ahYATCAQ6QRtpYpMJ7P/6Jw0Wydwm6wBujEBDChw5eUjDOlzWkLegbgQQQAABBBBAwGEFzJG5nUe0cNj20TAEEEAAAQQQqJuAuUZumzZtdOyYmYjta68kNTVFffv2sb8+e6d9bKxWLl9qP7x5y3v63e13asyYUYqMiLAfL7tjs+Uo23ZmWuXPL/qHioz/zncL9ApWO9+26uc7UFE+LRXgH6CwZsYjPECh4f7yCvdV75bH1Kc4UbMLj8qjJEvy8FexZ5SKvKJU7BWtE8ajROUT2ufbrtqUP3EiXRER517aK9qYifmKC41HbSrnWocWKCopUnJWspIyk5SUYTwyj8tWkODQbaZxjieQl5cvf38/x2sYLULAAQV6t+kj8zNJUFDjZP2b7tOFA+LTJAQaWuDIySO6sVlsQ9+G+hFAAAEEEEAAAYcTKCkuUXpCrprFNs4/dBwOgAYhgAACCCDg4gJdO3fWf//3hcaPG2tFaiYF/t//vtTkyRNrHPmQIYOta+PjE6pM5ppfmpb94vTNRatqXP/5X9jt/KtowBqCklMUY2Zq2dxS4EJ1ccu4Cbr+BI7zHlJ/mNSEQD0LkMytZ1CqQ6Aqgez8bKXnnlRsRGxVl3AcAQQQQAABBBBwWYH0xFx5eEohMeYEgGwIIIAAAggg4GoCc+bM1nU33KiL+/fTwIEDtPLZv6tlixhdPmxYlaHm5ubp8OEj1vnD8Ue0du16a79rl85VluEEAggggAACCCDgbgIkc92tx4m3yQQOnzio6OAY+XnzBWaTdQI3RgABBBBAAIEmEzhprJcb0T6oye7PjRFAAAEEEECgYQXMJO7DDz6gJcuWK+l4ki65ZKCeWbpEfn6VT9np6elpXTdi9JVWw4KCgtW/Xx+te2u1AgICGrax1I4AAggggAACCDiRAMlcJ+osmurcAodPHlY7RuU6dyfSegQQQAABBBCos4C5Xm5EW5K5dQakIAIIIIAAAk4gMGP6NE2/8Qbl5JhryFX///vXTp0i88FWfwJBgSxnUX+a1ISA+wnwHuJ+fU7EziNgTHTGhgACjSEQb6yX2y68XWPcinsggAACCCCAAAIOJ5BujMxt1pYvGB2uY2gQAggggAAC9Szg4eFxzkRuPd+S6v5PIDi4+gQ6UAgggEB1AryHVKfDOQSaVoBkbtP6c3c3Ejh84hAjc92ovwkVAQQQQAABBMoLMDK3vAevEEAAAQQQQAABBBBAAAEEEEAAgZoIkMytiRLXIFAPAodPGNMsN4uth5qoAgEEEEAAAQQQcC6Bkwk5Ys1c5+ozWosAAggggAACCCCAAAIIIIAAAo4hQDLXMfqBVri4QHJ2sgqK8tW2GdMsu3hXEx4CCCCAAAIInCWQnpijt+d/q6G/7aTgaL+zzvISAQQQQAABBBBAAAEEEEAAAQQQQKA6Ae/qTnIOAQTqRyD+5GFdENZG5roxbAgggAACCCDgHALfrvtZX/7zQL021jvAS5OX9FVErHusZ2aOyI0zErn9rmurnuNb16sllSGAAAIIIIAAAggggAACCCCAAALuIEAy1x16mRibXMCcYjk2on2Tt4MGIIAAAggggEDNBS66+gKZj/rctr10WF/+66DGPtKrPqt1yLpKR+T2n0Yi1yE7iEYhgAACCCCAgEMKxL2zSV/v/EZ33vF7hYWGWm385tvvtPHtd8q1t2uXzrru2mvKHSt9kZeXr9VvrdHXX3+tNm3a6OpJE9WhQ/nvpb79fpc2b3lPebl5Gj36Cg0ZdElpcZ4RQMCJBb4z/re9fsPbmjxpgnr36mlFkp6ermdWPFsuKj9/P9077+5yx8q+2LR5iz7/z3/l6+urMWNGaejgQfbTtX1PshdkBwEE6izANMt1pqMgAjUXiD95hCmWa87FlQgggAACCLisQL/r2yr1QLaOfp/usjGagZmJ3I33fCsSuS7dzQSHAAIIIIAAAvUokJKSolt/+3vdMfduvfTKK8rNybHXvm37dn386acKDAqwP/z8ql6+4te//Z1efe119ejRXUeOHNHEKddaz6UVmomYyVOmWolc89j0m27WlvfeLz3NMwIIOKFAfn6+lixbrknG/7bN95AjR+LtURw6fMQ6VvY9JMDf337+7J1nn3teC/74gFq1aqmAwADNmDlL773/gf2y2r4n2QuygwACdRZgZG6d6SiIQM0FDp84pKEdhtW8AFcigAACCCCAgEsKePt56uLp7fTfv+3X1GcHuGSMGcdytfFuY2rlGxiR65IdTFAI/H/2rgI8imQJFwQI7q7B3R0OP9zd3d31cD1cDzvc3eWEe7jDoXc4hweXAMHZ13+HHmY3K5ONbZKqfNmZae9/etqqq4oRYAQYAUaAEQgUBFavXS8k4CLS2lUrqH6jJmZ53Lv3gAoXLEh9e/U0c7f2cEswbQ4dPkxHD+6jRIkSySD1GjWl3//cQ+3atJbP/QYMok4d2lOfXj3kc/LkyajvgJ+oVMkSZI9JbC0/dmMEGAHXQODvM+doz1//o53bNlOzFm3MCuXp6UmJEyU21IeYTCZavGQZjRszkqpUqijTiRY1Kq1Zt4HKlysrn/3SJ5kVhB8YAUbAaQSYmes0dByREfCNwJO3T6jn5i70+sNrX55p46Xz5cYOjAAjwAgwAowAIxD2EMhUIQmdFfZ4L//xkDKVSxyqAPj0/gvtHn6R0pZIQNmrs43cUPVyuTKMACPACDACjAAjEKgINGvSiGLHjk1gxlrS3Xv3KEeObHTq9BmKKBi+2bJkJjc3NxkM0njlKlWlRg3qUfu2bQQDNyHt2r5VY+QiUMQIEejjp08y/Nu3b+n6jRs095eZ8hk/DerVpbE/jyfkky5tWs2dbxgBRiDkIJA1a2batmk9RYwY0Veh7z94QKk8UtKly1fo1atXlDNHdooSJYoWrm//gfTk6VNasvBX6bZsyUJK7eGh+btFcKOPHz9qz/b6JC0Q3zACjECAIsDM3ACFkxML6whM2TueKmURE+g85icowzouXH9GgBFgBBgBRoAR+I5AuPDhqGi7dLRv2hVKVyIhQVo3tNCeny+Re7QIVLQ9bwKGlnfK9WAEGAFGgBFgBBiBoEEAjFxbdOfOHdp/4ACtWrWWnj1/RvHixqMNa1dSqlSpKEKEiJQ7V05KlNBHChcMGtjTVbT/4EE6euwYjRo+VDrduXtXXlOkSK6CUPTo0ShatOhSLSszczVY+IYRCFEIxIwRw2Z579/3pOPHT1C9hk3o7ds3Mtyvc2dTmdKl5H26dGkp1rc+KFy4cJQ5U0YtrcePH9PceQtoxNDBmpu9PkkLxDeMACMQoAgwMzdA4eTEwjICv13eJSRy31D93A3DMgxcd0aAEWAEGAFGgBEwgEDKAnEpTopodHbjXcrXKJWBGK4f5Mza29IecJ2ZeQkMayZGgBFgBMIkAh/fkenKKfpy6Sh9vXSMTDfPEX32kYYLk3i4SqWFBGM4j6wUPnNhcstUmMJlLkAUObqrlI7LwQg4RGDKpAlSBXPmTJnozZu31KV7D+ojVCWvX71SSOiGp2mTJ1pN48rVa9SlWy8aPGggpUmTWoZ5+/advIYPb36gMG7cOOT99rudXqsJsiMjwAiESARaNm9ClSqWp7x58ojym2jGL7OpbYdOdO70SYoRI7qU6rdWMfQ3zVu3ox+KFKIa1atqQez1SVogvmEEGIEARYCZuQEKJycWVhF4/OYxLTu5mEZXGk9u4XzU3IRVLLjejAAjwAgwAowAI2AMgaKd09Lm7mcoa6WkFCW2b1VYxlJxjVD3zr6g06vuUI3JuUN8XVwDUS4FI8AIuCQCRhi1OqZhxGpdmGnoKi9S9+4+bZtFpmlBx2R3q9yOIjT6Ls3kKpBwOUIWAlCJqghStF07d6K6DRqRt7c3RRW2LK3R/fsPqEmzllS7Zg1q1aKZFiRlCh9TGJC2S5IkiXSHjcy7QmI3uU5aV4vAN4wAIxDiEYAUP/4VdRY2s2fOmk3nL1ygokUKK2ezK1S4d+randwjRSIwb/UHQJzpk8wS5wdGgBHwMwLMzPUzZByBEfCNwNR9E6hK1uqUJl4a357swggwAowAI8AIMAKMgBUE4qaMRmmLJ6ATy/6jEt2+q8KzEtSlnZ7feUsHZlyj4qIO8dOxlJNLvywjhdMxPFiq0AhgHAYIQDHoh7AAhROM2g+fTXTp1ke6cOcTXbz7ma55fqLPX8MCWMFXRyiHSB7PjdIlikjpErtR2kQRKE3iyOSevRhFEP9MjEBIQ+DLl68079cFVKlCefLw8GHGfPhmuzKCsIVrjZ4/f07NWramokUL05CfBpoFSZAggXw+fuKUJml37vwF6ZYqZQqzsPzACDACoQOBLVu3U4IE8TXG7ZcvX2TFIkeObLWC6Hf69BtA9+/fp43rVpvZ13WmT7KaCTsyAoyAnxCwPuL7KQkOzAiEbQRYvXLYfv9ce0aAEWAEGIHQi8DnXfPpy8rRgVrBnF8j0RavKZThSC2K6+YVqHk5m7g9Js3LL9Fp9+uxlCPKckq16CR9WORsLhzPlRAIlzaHVEXKUoWu9FZcuyyPHj8Rthp9mAP+KalkfN775PqMT5ibxP+f78UP/m0TGItpBFMxe8oIVLdwFMqaPCZFicSq6G0j5n+fz2J/+ubjT3Tj0Re6/vAz7bnwnm4//UJiXzpYqGb+KNSyVLRgyZszDR0IQI3y3v37ad+BgzRs8CAhHReORo0ZR5UrVhCqlyMRpGpHjBpLJUsWo5LFiwt7mG+pVdsOFMndnTq2byclboFE5MjulDhxYoI9zL69e9GYcePFcyKKGzcuDRw8lBo1aCDvQwdqXAtGgBHQI3Bb2N0eMnwkzZ09k1IkS0rTZ86WtrezZ8sqg61es468Xntp6pZHjBpDO3f/RiuWLaGXL1/JfwTEgRJHfZI+X75nBBiBgEOAmbkBhyWnFAYR8HzlSRvPradBZYeyeuUw+P65yowAI8AIMAKhG4EdCZrSopy1Ar2SaW89JS/P+XQob1r6ECnkmGuI5v2Bipy5RVfSJqBNyecFOk6cQRAj4AdmVRCXjLNzSQTAnHwaICVLl5gZnwECZBhOJIIYSjMkiSj/wzAMXPUQjIDgtUoC01XRjCmTqHvvflS1hs/cFIzc8ePGSO8PHz7Sxs1bKHKUyJKZe/joUak6FZ4Vq1RTSVDhQoVo5bLF8rldm1ZC4u6BsJnZWTB/30jG8IB+fbSwfMMIMAIhH4FwOFH2jdq3bUOeng+pafOW0iVH9uy0dtVyeSAEDgcOHqR79z0lM/fFixe0YtUqGa5Jsxbyqn6uXboomLluZK9PUmH5yggwAgGLQDivN69NtpL0eulFycRJDSZGwAgCAXUa20herhDm3Udv6rW1O+VPWYBaFWzrCkXiMjACLo9AWOsnXP6FcAFDHQLYkIkZO6bDeoXEOR7qtnP3brpy5RqVKlWCypYpTe5C2sAanTp9hnbu2q15xU8QjwoVKEB58+TW3FztZvfwi/Te6xPVmJSL9ItuVc5P3p704vI8en1rC0VPVo7iZO1IkaKnVt6BerXWd7+8701b+5yjvI1SUraqPnbXArUQnHiQIRCcbS3IKskZBTgC1vqJAM+EE2QEwjgCoXmeF8ZfrZ+q/+7dO8lIgUSunj5//ky2VC7rw1nef/r0ib5+/WpzXm0Znp8ZAUYgZCOAvgK2cKNFM9cYAQl/9AVg1PqFbPVJfkmDwzICjADJA1aO9vNYMpdbCiPgBAJfTV9pzJ6RlChGImpZoI0TKXAURoARYAQYAUaAETCKwCsvL6pRux7lyJGNsgk1UCNGjqHTp/6mYUN/sprE9evXacOmzdSsaSOpdu748ZM0eco0mjhuLNWuXdNqnKByNH39RB9eXqYPL/4RV/H/4l/68Ooapcn4hU5u7Uu7+iyijEX+8l2ccOEpRvJKlKLc5iBj4vouhI+Ls4zcjx8/0fVLnnTln/vi/wHdvv6IYG+JybUQgBRQfmFfr0LVehTu1Tp6sK85RYyRhiJETUKR42Qld/zHzkzh3Kzb13Kt2nBpXBkBW/0hmT67crG5bIyAnxGInaElxc/R18/xOAIjYA2BKFGiWHN2ipGLhCJGjGg1PXZkBBiB0IkADn1YO/iBNYBfGblAyFafFDrR41oxAsGLADNzgxd/zj2EIjD/6Fx69vYZTa05U9oaCaHV4GIzAowAI8AIMAIhAoGZv8whj9SpaP6cX+QCs3TJklSzTj3JmM2WNYvVOiRMEJ/69uqp+U2dMZOWLF/pJ2buy6tL6On5CVoaztx8/hKO7j6OQnceJ6Xbj9PSoxceZPqqTjsnEkniv9S3pN8Q3cno88yghFwAAEAASURBVG8zs502fYLa4/DS00RLjecK+24pUsenjFmTU+VaeSl9lqRCHaC5VInx1DhkYCHw/Olr2rnxFI39aT/lKVSYKtfpRHGiPtIOIHjd2iwPIDDDLbDeQMhN97Vfix7OjSLFTC0OB2SVBwVietTigwJ+xZDDMwKMACPACDACjAAjwAgwAoxAmECAmblh4jVzJQMSgT+v/EYHbuyjqTVmUuQILJEQkNhyWowAI8AIMAKMgDUETp06TY0bNtBOCufMkZ1g4+fixX/IFjPXMh33SO70+YvfpL1OXM5JG9Z0skzKz8+phE1ZMDDr1kjmkIF599QL2jX0PMX1iE7x00Sj+OljUIL04j5tDIrgHt7PeQdEBFafGhAohpw04saPQU3bl6LKtfNJpu7I3ht0EtSWBxBCTr24pK6OwEtRwMPf/l29rFw+RsBvCJStmpvqNi/qt0gcmhFgBBgBRoARYAQYAUaAEdAhwMxcHRh8ywg4QuDCg3M0T0jljqo4VqpYdhSe/RkBRoARYAQYAUbA/wicv3CBBvY3V0/o4ZGKbt76z2bij588pRUrV0s1yzdu/kcbN2+hmdMn2wxvzaNctdyE/6CkFPniUPtdJYIyS86LEbCKgGLqgrHLxAg4QoAPfThCiP0ZAUaAEWAEGAFGgBFgBBgBRoARcB4BZuY6jx3HDCIE2q9rTQ9fewZRbo6z6VasJ2VOZF2lo+PYHIIRYAQYAUaAEWAE/ILAly9fZHA3N/Npa4zoMejtG2+bSb19+4aOHT8h/R88fOhzve868wmbBXdBD2/vdy5YKi4SI8AIuBIC3E+40tvgsjACjAAjwAgwAowAI8AIMAKMQGhDwHxXLLTVjusT4hF4+PohPX7ziLa23hXi68IVYAQYAUaAEWAEGAG/I+Dm5kYpUqQgT08wYr9LyT59+oRy585lM8HUHh40a8ZUzX/3b79T5249qHz5shQvblzNXX/z9q03vXn7VnMKR+HIJP7COr319iZI3TExAowAI2ALAe4nbCHD7oyADwKJEiZgKBgBRoARYAQYAUaAEWAEGAGnEQg0Zu7Lly9p+szZZgVzj+xOA/r21tyePHlCi5YupyyZMlHVKpU0d2zWrd+4ma5du0bZsmWlhg3qU8wYMTR//c3pv8/Qjp27qX3bVpQ4cWK9l7zfsnU7XfjnHxoyaIC09dSsZWuqXrUK1atbm06dPkM7d+3W4sRPEI8KFShAefN83yjUPPkmWBB46OUp1Bn7fq/BUhjOlBFgBBgBRoARYASCBYFMGTLQ4SNHtfni+/cf6NCRY1SzZnXD5SlSpLAMe+fOXZvM3GjRohL+mXwjwJvQvjFhF0aAETBHgPsJczz4iRFgBBgBRoARYAQYAUaAEWAEGIGAQiB8QCVkmc5/t27T0uXLKWq0KNp/lMiRtWBbt22n0uUq0bz5v9LxEyc19ydPn1K1mnXp3PnzlCNHdtr92x/UuGlLwYj1UbGnBfx2c+3adZnP2vUbLb0IG31Dho+kxUuWSj83t/CUOXMmSpQ4oXy+fv06bdi0WZYvStTIdPz4SarboBFtFIxkJtdAAOqVk8RI6hqF4VIwAowAI8AIMAKMQLAg0KZNK1q3YYOco929e5eGjRhFSRInohLFitksz7t37+mWmI/if9+BAzR4yDAZNlPGDDbjsAcjwAgwAowAI8AIMAKMACPACDACjAAjwAgwAowAI+BqCASaZC6kaxMnSkx9e/X0VeePHz/S4GEjacK40bTnr71m/vv3H6CYMWPQ/DmzCczXxg0bULZceen8hYuUO1dOs7D6hxUrV1OnDu0oYsSImvPvf/xBsJemp9o1a1BCnXqbhAnim5Vx6oyZtGT5Sqpdu6Y+Gt8HEwIPXj2gJLGSBFPunC0jwAgwAowAI8AIuAIC+fPmoRFDh9DkaTPo4aOHVLBgAZo+dTK5u7tbLV748OFluNLlKkj/aNGiC80ruWjT+rUUJUoUq3HY0TYC0aKytLJtdNiHEWAEgAD3E9wOGAFGgBFgBBgBRoARYAQYAUaAEQg8BAKNmXv/wQNK5ZGSLl2+Qq9evaKcQspWbZ6B4Xpo3x6KFSuWL2ZuyZIlqFDBgpKRi2qHD+8ma//582ebKGTMmJHu3btPf/1vL1UoX04Lt3TFKrnZd/z4Cc2tV9/+1KZFc5vMWvdI7vT5i+28tIT4JkgQgGRutsTZgyQvzoQRYAQYAUaAEWAEXBeBpk0aUZPGDclb2G+NFi2a3YLCnAb+mQIGgejR7eMdMLlwKowAIxCSEeB+IiS/PS47I8AIMAKMACPACDACjAAjwAi4OgKBx8y97ynUFp+geg2baNKxv86dTWVKl6Jw4cJJRq41cOLHi2fmPHP2bEqRIoVkBpt56B6wcGzcqAEtF9K5ipl76fJlOnv2LM2YNkWWQxfc7Pbxk6cEqV6TyUQ3bv5HGzdvoZnTJ5uF4YfgQwA2c8tm+M6gD76ScM6MACPACDACjAAjENwIYA7piJEb3GXk/BkBRoARYAQYAUaAEWAEGAFGgBFgBBgBRoARYAQYgYBEINBs5rZs3oTWrFxOZ08dp2uXLlLXLp2obYdO9Pq1udpje5XZsnU7zZk7n6ZNnkiRIkWyF5Qa1K1DR48doxs3bspwq9esl4xjMILtEdQwHxNMZ9jtPX/xogz6QDCimVwDgQdeQs1yTLaZ6xpvg0vBCDACjAAjwAgwAowAI8AIMAKMACPACDACjEDIRODDhw907dp1ly38ly9fXLZsXDDnEeD36jx2RmO+efOGngiBLVBw433l6lV6//690aJzOCcQCO537ESROQojECAIBJpkbqpUqQj/ijp3aE8zZ80Wtm8vUNEihZWzzev+gwepV99+NGv6VLu2clUCHh6pqHixH2jN+vXUvUsXWrFqFS1eOF9527ym9vCgWTOmav67f/udOnfrQeXLl6V4ceNq7vqbt2+96c3bt5pTOApHJvEX1unJ02cBCsHLdy/o05ePFO6dGz36+CRA0+bEGAFGIHgQCOh+InhqwbkyAoGHQKKECQIvcU6ZEWAEGAFGgBFgBBgBRoARCMMIrFy1hs6dP0/Tpwa+Rj4wlyCY4kg4Rb2OfgMGCY2BN2njujXKia8hBIGLF/+hX+bMpTm/zPRV4tu371CpsuVp8YL5VKJ4MV/+ruJgtL0+fPSIBgwaTDOmTqGYMWP4ufjQjOnl9ZqgZdPNzce0op8TsYiwZes2wUPoT82aNKaWzZs5xLt3v/5Uv25dKpA/H714+ZJ69u5LfXr1pGxZs1ikbP0R8Vs2a0Z3792j60KorGvnjlpA4FOxSnU6feIonf77DO3dt48GDxpIrdq0pxHDh1CK5Mm1sPbajRbIzk3XHr2oRbMmlDdPHjuhgtbr3bv3kkcSNUqUQMv469evVKzUj1S3dk3q2b2b0/ls2LSZPD0fmr0/pxOziBgY7dwii2B/fCr4QH36D6D5c36hWbPnSq260MgLgt/u33+nQgUKUPr06WyWVaUxfcpkocU3ps1wRjz8+z0ZycNWGH2fYitMQLkHGjMXUrUJEsTXGLfqxETkyJEdlv3M2XPUsnU7Gj1iOFWqWMFheBUAqpZ79RlAiRIkpMSJEtMPRYrSxX//Vd6GrkW+MZrv3Llrk5kbLVpUoeIvqqH0wlqggNyEfvboMcWLFp+SJWHJ3LDWjri+oRuBgOwnQjdSXDtGgBFgBBgBRoARYAQYAUaAEWAEGIGAQACScnPm/0pLFv4aEMk5TKNR0+bUqGEDalCvrsOwCFC1SmV69ixghSQMZcyB/I3A0+fP6NCRo1bTSSAO64LhlClTRqv+ruJotL2+F8y6AwcP0efPn5wqOhi5ufMXpD9276B0adM6lYZlpPkLFtFPA/tT65YtyPvdO4d4Hzh4mMqWKSOT+fTpk6xP+7atLZO1+Xz02AmqVaMG3bt/nyCFq6djx45TjuzZKU7s2IKh9VQcHvHRArrvwAHy9vbWByV77cYsoI0HaBpFv+FKNGPWLPJ8+EhqWQ2scoUPH546tm8rmO9Z/ZXFzf/+I/B/AoMCo50HRjn9kyY0XaAv+PLlK4GRqt/rXbh4Mc37dSEVLlSIVi5bbDMb73feMo2PHz/aDGPUw7/fk9F8rIXT9ynW/APSLdCYubfv3KEhw0fS3NkzKUWypDR95mzBHI1H2bPZ/9CuXb9BzVq2odq1alKRwoXo1q3bsr6xY8ei2KIjtEelS5akyO7uNHb8BBrYv6844eNYizROjKg8bt25TRs3bpZZZMqYwV5W7BcECHi+EiqWYyQJgpw4C0aAEWAEGAFGgBFgBEI3Att37KK/z5ylHt27UKyYPqdez547T1u37TCrOObA9evVMXNTD+/ff6C16zfQ33//TTBlUqtGdUqTJrXyltdzFy4SNN1go6dcuR+pSKGCZv78wAgwAq6LwHnx/W7eso1q1qgmNiKzyYK+FBIrWMvryT2yOw3o21vvZHa/a/dvYmPmsJRGg8aromJdr8iv/Y6Kx1dGgBEIPQiAYXlKSKyFDxdOSMbl16RxoP4YWvBy58opKwvJpj//+p+UnosdK5Y0j5Y0aRJ6/vw5/fffLcqfLx8lE/uNl69cocuXrxCEMxImsK3lZpeYn0SLGpWyZsmsgQkJr0siLhgyacWcJmeOHJofbl6+ekUnTp4S/VlEyp83rxDsiCb9IbCy5397pdQR4j548IDy5MlNKb+Zetu7bz9d/Odf2rhpC8WPF49+LFNaiwcGzP37Yr8rSWK576mkExMnSiSkFaPLcMAIfXK+vHlk/p8/f6aCBQsQcFCkyn7p8mVR9jQabvCHKTlg9UhICd64+Z+QQrQ+t0NYVRdIKWJD/q14B0UKF6aoUaNIyULgXaJEcbKUtAMj69Sp0xQ7TmwhTFOEIkTw2WLGe3z3/p3cw/1bvOd06dJJiUdIwJ0Sc8gMQkorYwbzPVcw2jE+PBX1Rjn079GyLrVr1qC/BPaQRowfPx6qIAmYp0mdWmiJTKmctCvaCOqlJBghPXlO5FeqZAk5VqGt/bHnL8qVM4dgSCSU8SB1ifKnTJlSjonqPal3g3Hy4KHDVpm0YHLsO3CQ0ghtkJgrZ8iQXsMP9UG7hSTsv5cuC4ZmGsn80worblBWtDuEKV6smNRymT5dWkqcOLE+mK971AM4/nfrFmXJnElgnZ7A+FL06pUXHTtxgr6K9ltYjM2qPdlqryqetetHwQSVDEqhvbJggfwUT7RzELB++fIVFRLtVdEdwSOABCvcIK0H2rnrN6lhU33vwAxrFbTZ3Llymb1HR/XCu8qTO7dM111Iw+vxhqMezxLFi8tw6sftGz5ubgHDIjksmPolSzgnga1vN5BmRFtBv6DaNKSIT4pvrtyPPoxoVQcIxYG3kTNndvkNKHdc7eFq+W2hnzDSPm21I2hjXSG0HwDviuXLSUaekt621V+gjLbGBPjZIrTtuHHiaN6qP7x27RplF98m+kSj9OjxY/m9xYgRnQrmL0BRonwXRHSUrrWyg2lvrZ2rvhH9G95jXKERNn++vGbaG/DNow0BY3zD2b7x0Zzpp1XZrY0RRrFxJhzaKRi50LbbpXtP2Sehb1Wk8MZ4jD7bkuyNBwir2vRj8d5y5cypfR+W6Vh+T/C31Q7Vu8EYjG+gYoXyWv9omS6e7fUpKrytvJS/s9eA6ams5N6+bRspqt60eUvpi1Mpa1ctN2ug8AgfXigpFhM4Rdgggh3bjULUHf+KevfqQVDVbEn6uBhYmwtbvVOmTqdaYnAHfU/ZJ2YEXeeMAe3ho4dUupyP9G+0aNHFwJ6LNq1fKz7cwFMH4FMS/nWEwMPXDylJLJbKdYQT+zMCjAAjwAgwAowAI2ALgSdPntDgoSPEZuhfMkj7tq00Zu6Jkyfpf0L1V5XKFbXo7uJgpC1q17EzPXz4kOoIlVYXxAZj9dr1aMeWDWIB5WNaBZtHterWFyrOmsgkmjRrQbNnTqcKYjHPxAgwAq6LADY7Zs2ZR7/MniMLmSd3Lo2Z+5/YHFy6fDl17NBOq0CkiJG0e8ub2XPn05x5v1Lb1i3prdjMwn7AnFkzqHy5sjKoX/sdy/T5mRFgBAIPgb+u/klLTy6iV+9f+SmTWJFjUfP8rahMBp/v3F5kbCrXa9iEkgpGJgQ22nfqoknobd62TUpJYQMYhM3rDsJ/y8Z1FFvsKY4bP1G645AJ+hdsordr05pWrl4jmX9Qs7pm5XLJDJQBLX7+vXTJzA/pt23fSTKksGcJRkS9urXp5zGjZcyjx45R42YtKbWHh2BOvqfXr1/TxrWrJaPonZD+69i5q2QOYlP3iZDAQ3k2rFklmbo41AI6LZiX6zfGkcxcCJPUb9RYMnmxgY/NfDATF86fK8Pq63/hn3+oW8/eIu9UFDFiRAKzBozizRvWUhzBwNCXHQxK5KMvO7CCpBOYXHkFk9keM1fVBUw1SCmCCZ0pY0bJhLx4UTB3BdbYXD92aL/GzJ49dx5NmjJNMpCvCuYtVMeuX7NS+qMe+/YdkJjEFYxeCO10aNeGlq9cLeuD9Pv27ikk63zGFWzsV6leS+aBdLoJ1bFTJo6nGtWrSVws61KvTm2aMGmKPHjUpVNHGQYSdq3bdZBtRTpY/CDP8RMn0/HDByRzc936jTRtxkxavWKZZESCIY/3eXCvz3x5lhgPp0ybIZmsUH2Ncq1bvUIy29W7gWm+qIIZ0a1LJ4qsY/4A905duwv7rU9o+ZLFpPDdvWMrZYwRQ7ZjvNP74gBAFKG9EoxXqYa3RTNZ6ttCLXOVGrUImi0TxI9Pk8UeN97BqOFDqYIDZu7AwUMIdSspGJbArZRgwk/4eaxM9+ix46I9tyAwhT98+EjPBJMedcqcKRNZa68WEPp67NCpKz0WdVR1WL5kkdTOeVMcHgAD5+LZ0xIfRJw28xfBnHolGVNr1q6Xaa1YtVryA9DuVBuAR5LEiUQb7C/LXUcIeoHs1UsGED9KoMsSbz2eaI/TZswys2fr9u0Qgoqv0rN3BTM1btw45CHWQHq+BJhnv/3xJy2Y5zOfSp48mWxfSKta1SoUXfAdbJFlu0E4vEOoElbM3KtXr8k+8ebVS1oys8X8DW0UzMvz/S5Q965dxH9n6e8IV8tvC/0E3Oy1T3vtCH0a+kPQug0bZT8CZq69/sLemCATsvGjxwaHXdq07yglPPV9+bjRo8zej7WkwPxF/5MyRXLZz+LAAdoyeEyO0rVV9pji4LS1dq7vG5MlTSrHnLKiLc2bPUsW7fqNG1SzTn357avyDBrQj9q0aqn1I0b7aUdjhDUs/OoWVWithUZdfDt58+am5KKfBC1fsUqODfBrLtrEnHnztTri0AzGdfRDz1+8lLjr81VtFmOOtfFA+SOOGl/Qx6m+QqVl7Xuy1w7xbn7//U/Zp+FbKiIkitVhF5WmujrqUxDOWl67tm9RSfjv6vXmtcnW/71798XhF/+RmAiYxKkC/yXCsUMEAg8fPQ7Qck7633jT+rNrAzRNTowRYASCF4GA7ieCtzacOyPgeghg7mZrXqd3D4g5nuvVnktkDYHpM38xdenWwyRO95tSp89k8vT01IINGTbS1H/gYO3Z3o2QgJHxBTNXC1a3YRPTvF8XaM9lK1Q2TZw8VXv+deFiU7Zc+UxiMaa58Q0jwAi4HgJHjh43VahS3SQYHaZ8BYuatm3fqRVy567dpsI/lNSe7d2ITUwZf/vOXVow9EEtWrfTnv3S72iR+IYRYAQkAoE9z2u6ooGp2oKKTv0jrhEaM268qU79RlrQZStWmv63d598Hj9psqmzmLMown4i5i7Cxq10ql6rrqlew8YmscEu/0uULmvKV6ioSTBvpH+rtu1Nw0aMUtF9XeH/68JFmvv8BQtl/MePn0g3cVBNzFvymoRkoUwT98IOqvRD/zZ46HAT8gQJxq4s26ix4+QzyoryDRo8VD7jp2qNWqbVa9dpz1evXjP16tvP9OTJU+mGeqF+QkpXPuvrv3f/fun3x597pB/KiLDbtu+Qz6hH6bIVTEICSj5fuXJV+gtGi3xGWYCzwkY62vhRdZkybboMIRjAMi3BkDOh3kgDWGA8AAnGsvQHXiDEL1exsgn9PQj1QHix6S6fB/40RIYHrqAFixbLsssH8SPM7Ml/vFeQsH8qwytcrNVFHBoyS0MwX82eZUK6H5QF+AmmrnRFmiijYJTKZ7QFYedU3gvpUBkWc2eQt/c7Wb8hw0fIZ/Vu9vz1P/mMH7ghPcFAMInDjzIt9W4Uvqr+yBv/an6Mb6Jwse/jLNq4YHaYBDNGpr9oyVJZHqH5RsvP2s3zFy9kuEOHj0hvTzFnHzVmrEkwgrV3uGLlKumH99qn3wD5Pam0LNurcre8qjUB2rIivHvUH+8QeAFr1V6QP54Fw1gGF1K78vna9esqugnfpmDia3Vev2GjDOPl5WWyVy8koNqrYKzJ9CzxbtikmXwnCs+Fi5bItBWeQgJSPuO9g1A+fDvigKrZf7+BP0l/ez8oA+qq3q29sPCz127gj3ai3hmehVS/TB/3IPR/6AcEA1U+Hzl6VPpfuPiPfLaHKwIgfct+wl77VH2BKpO1dvTzhImm7r36yPzx46i/sDcmaIlYudFjg/UosBBqrWVIwdyWOKg2aCW6dEJfhfd15+5d+XzylM96GfNhkKN07ZXdWjtX+am9mD/3/CXzV30dnkeMGiO/I+SPvlL1DapdG+2nHY0RRts52rI4qITiGCK0CYwdqh8Cts1btZFjFdop8F64eKlMC98k+ku4qXHY0Xhg6Y85BDDCGGzve3LUDtW4pd6Nvco66lNs5WUvTeVnZJ73XdeC/3jCNmNDzYZSQ2IzEHswAlYQeOB1n5LEZDXLVqBhJ0aAEWAEGAFGgBFgBAwh0KxJI5opJFxwst+SIK2RKHFCOnX6DEE9Mk7wKoKkXoky5YSKpAXSKVGihLRr+1ZKJFR9KYoo5vlQsQbCKWycJobqZUWwEQeNO8iHiRFgBFwXgaxZM9O2TeuldI5lKSE5lMojpVRDCtWgYiPPLEjf/gOpReu2mtuyJQvpx9I+6kTh6BbBTUqHqQD2+h0Vhq+MACMQehGA2khIkQomqehXLlOTRg2ldKrRGpcvV05KTEFqCup4y5QW5taEBCOoqFAN/M+/3yXWpKPu54ZQ86o334Y+rWnjRpQggc8cCeosL5w5JVUAQ1ITcxtIRIEgfdeubWsSG9NSckclW7mij3YT7H2WK1tGzoWUn+UValMn/jxOqBJ+Sr/9/gf98aePFCi0ntii0qVKSi+UEbYHoS0BJBjgFENIeZ4+/bdUOYy+FZK7F4VEr6JKFctr2Cg3e1dlQzR5smRSZW4ZkTfqDXwhrSaYbzL6qdOn5RUSUlB3DJWU6YXKU8Gc1pJHeKUqOZ+QQoZ6YKVaGe8N0qiCSSDnnlDV26F9W/lekUD1alVleH16lnWpWrmSTEO9702bt1LDBvW0/C1vUBZItB0+ckSq6YYUdr8+vWjf/v0yKNQMK00yaJ8oP6SnQVC5Ciniw4ePymf1o96NekZ76SCkewVDhlYuX2JTqgvhUR+lDQftBm0AkmSCISElttu2bqWpR27UoL7Kwu4VZlSAM74tlCFK5ChS4hfqsVV7ji9wwDtD+4HJFEhS6uf/djOw8GzZzEeSGM4tmzeV3wu+MeDVsH492rp9h4yxT2ALvgCk0K0R8gf+KA+uKB8knkGQuLZXL8FMo+KlfpRSeemFOm9LgmQlvvN2bXR4NjTHM4KYp4CUZK67eyRZH9jf1f9XM2CbFt8CpKLVu7Usj7Vnv7Qba/Ebiz5U4YU+IlvWLPJbdISrSsvy24K7rfbpTDty1F/4d0xAeYF786aNNVXfUN0LTQVQVe6Iihf7QUqAIhy0HKCtQvIS5ChdZ8qO9gE166ASxYvJK0yVgqCOH/0SVOxv3bZdSgqjbxCMPumPH6P9tKMxwkg7F0xJypw9FwlGOXUVGhNgB3i/UB8P+9q2CGPGzGlTpJQ+wkC6FnbqIeV6+fIVGQ37EyBozG3RrKm8xw/arL3xQPljLMYcAIQx/MiBvZqaf1vfk6N2iLRg7lW9GzxDw0D9Rk20f4zbRvoUW3khzYCgQFOzHBCF4zTCNgIPvR5S4pisZjlstwKuPSPACDACjAAjwAj4BwH9pqVlOrBftV9soK1atVaoWntG8eLGow1rV0q1yREiRJSbXokSJpLRYIIE9nQV7T94kKB+ECrfQNjcBKUQKqoURY8eTSyIo8sFcbq0aZUzXxkBRsDFEIgpGAK26P59TzouNkKhFhWHM0C/zp0tGCil5H06oSYtllCVCsIGTuZMGeU9fmDLau68BTRi6GDNzV6/owXiG0aAEQgWBKAq2T9qlo0Uuuo3hsiSZSuk+lgwHiaOH6cx+vRp6Dewlbu7sF2rKJzYCI4o5iuKwgkzbvYIm9c4rKYINibLl7WuGvrBA0/JGIgk7G8qUgfjhJYTzR4j7MoqwlxJCCWpR19X5IfDL1BvC1WgsB0LMok/awSmgtqwhj/mVSbTVxlUSN5J5tnCxUvkM35gI1fPRIokVPn6hSLqsEU8pX4W93q7q0JyCE6kzxvPYMYp0pdDGNcjfVnChQuvgkks8BBfZ/sWz1BBisNEivTxpb9ghoBxpdQDgzlcRTB47VE58a737T9AYFaDsYvwQpJbMgzB8BvUv5+MjvrBnrGeEggmKPJQbRLvBmOeJYEZCYLd1zjfxkbLMHiGrUhFkQXTFSQk2oSNXB8VtbFif7eNDCyRnyPCO4J5wzlz5xNUjoOpARXQPbp1FTadPWX0pcuWmyUDpjXse+JggF8JtpIVKVvPYPDDXi1UZIMJAruf23fsJNg5VocuVBx1xfcAgtnFv8+cUc6SoQ7Gib165RcHA9AOTwvbxh8EM9zSrrOQ6pXpQTW5IpRDj6dqj+HD+zCH4K9MQ6g4Rq8HDh6iYsWKGg2uhTPabtBGLAmqZvWEg7ewT+0IVxXH8tuCu6326Uw7ctRf+GVMUGW2vKJvrVDOvC+HrWH0k45ItV2EwzeNb0Hh7ChdZ8oO1cSKoM4apPoVHMLAt4s2CBuz6ptR/ghrtJ92NEYYaedCQl4elOjcsQP1GziIipYoJfuVVi1tM3NRRluE/gG2tXH4SRHU1StSbdbWeKD8EyZMoKJYvVr7nhy1QySk3odKFKrR337rk+GWVuxnGOlTbOWl0vXv9Tt6/k2J4zMCAYjAu4/e9Obja0oaI0kApspJMQKMACPACDACjAAjwAgoBKZMmkCRxMYdbGVh86hL9x7UZ8AgWr96pTydPm2yj206FV5dr1y9Rl269ZKn/dOkSS2d3759J6/6zT44wJ6U91tv6cc/jAAjEPIQaNm8iZTQgLQCWA4zfplNbTt0onOnT4oNr+jUvm0bq5VCn9K8dTv6oUghsalbVQtjr9/RAvENI8AIBAsCsHlrxO6tfwsH6Vowe54LJk7XHr0JNh+nT50sJQlx4EPRrW/SUerZv1dIjz59+kxLBoxk2NHVEySRUqf2kAwp2MBFeLWxrCRTcUBNv7muj295r5gCcF+3YYOUDN69Y5uUXgSja+nyFZZRDD3jQA1si/bv20cLD5u8kIoMbMokDu0Au1XLl2pZOZs3JGbBWLt27TpBmg4EhrtQSSwZkVoGVm5gS3TC5KmSwQ1pNzBv7BHsx46fOEkyayAlCmYrxjbY0gWDIUuWzDJ65syZaJFgEOIdK4atUGMtGcDq2VY+/54/I5kxsCe7ddMGihUrpq2gVt3R1lAWtEPYbQRBOhWMWSME6bexo0fSmFEjhOT3HurYpRtVrlRJSE6nk9HnzJqplQmSwDgsoD8woG+vjvKDRh4wxkF37vgc6lSHN2GnGVLC6zdupN9FOTauW+MrOdO3gw+qDUwYN4aU9C6wf//+g9aebdULtmvPnT5BOfMWoJs3/5PtUp+RSlvfvsBQ0uOJQx6wkeqRKqWMKtSgU8GiPhKT+rRwAAP2u20R2i2YSLAH7Vey1W5wWER/qOHW7du+kr76TWIeHpBchLQ6mFCq7vZw9ZWYAwej7QjlUGSkv7A1Jqg0HF2zZ88mNcjowwGHrFmy6J38fG8kXUdlV+3cSOYzxRwbtl+HDh4k+x5I1wpV0Uai+grjaIww0s579eguDghFkn0m+vsjR4/Rl69fqFhRvx9YQAHRP2BcRd5KIwb6EUWqzeq/V/14oPwvCwlfNV7gMAqecwrmtyJr35ORdqjiqyv6F2tkOWZZ9im28rKWljNu349DOROb4zACgYTAfa8HFMM9JkWJ9P3ESiBlxckyAowAI8AIMAKMACMQJhHImSO7plYV0h5dO3eS6vqwKLJFwqYPNWnWUp6wb9WimRYsZQqfzRxI4inCRsxdIbGbPMV3aV3lx1dGgBEIGQikSpVKqjKF+kFs+Hbu0F4WHCoqbRE2Xjp1FRtAQqINzFv9IQ9n+h1b+bA7I8AIhDwEevcbQJ1F//D4yRN6/fqN+PfSpEkh2S9smtLipcvobyFpN3josACtYKqUKcWm72UtzcpCMlPY25PSnWCsrli5mmrXayCZiR6i78uUMSMNHDxEahiBelFh85vKis1dvVSflpiVm/jx4gstJsc1cxMxY8aS9YaaZWxog7HoLFWsUF6YwlgoGWVv3ryhg4cOU9acueVmu7NpGo1XtEhhqe55xqzZkiGPzfgq1WuSsJtqNAmzcPXr1aERo8dK1bCQKBQ2IzXJNLOAFg9QSQoVpHPnL6A6grHriCAxCgYjpN+K/eDDjChdqoR8rlyxgjZWoX4PRDmmzZgp3xcYGFPFPRhk9gjtAtJuYJ5hvOzZu69TKoyhLhYYLF+5ioT9YHGA0hhzEAwQMDWFLV9xSPMNvXz1ShYXkpepPTxke4Z0HbTpoP1BArBB4+9zecv2aq+u8Bs1epxU3wyVtMKesGSkKolmjPswtzL25wkyb0gZKlLS7AcOHdIOV9QXKnFR54vfJM7RtgsU+UHWwV69kCYkKYH9V8FkskY1hNputC+kfe/+fdGvDDcL9kJI765Zt176wQMHUQ/s3ePrf96cWWbxLB/Onjsvy5FBHBqxR4ePHJVqrlUYe+0GzMjlol/6Q7RZqJ+dMm2GiqZd5877Vaq+RZ86URxueP36taYi3B6uWgJ+uDHSjiAFLexpC7XsN6RKWkf9hb0xwWjR8P0uEVLnwg6ybNsrV62W6rp/LFPKaBJWwzlK117ZrbVzq5noHOMKKVX0afh2cYgDfZCz5GiMMNLOcbhESe2jT0O/iYMz+gMgfikfDoGjDQ0eNlyOi2C4Dxs52iwJR+MB/BEH6xDgBO0KGKdVmWx9T47aoVkhHDw46lNs5eUgWcPeEQyH5ICMQBAi4Pn6gVCxzFK5QQg5Z8UIMAKMACPACDACYQiBL1++Snu4lcRmoIdHKllzqCcD6VUfSYdvP5CgadayNRUtWpiG/DRQ7yVO1/qoOzp+4pQmhXfuvA+zJ1XKFGZh+YERYARCDgJbtm6Xp+exMQFS0hZK9ZtlTdC39BHMmvtiw3TjutVCqua7ClJn+h3L9PmZEWAEQjYCA/r2ltK4hYoWlxWBZCTUwIIglVe3Tm0aNWaclE7s2b2rtOnpSBpSRjbwA1utc+bNlwwGzHUgdYP5DDaGwdzCJvCs6VMpUcKEMrXFC+dLhlypsuXlc/myP9KkCT/bzSm8TtUz7PpBkwEkqyApBElS2AMtUdpHHShsOoKghtgoKZWwKMuIYUMkYwplB0GlbuFCBa0mhU1vr2/MPX2AWLFii01wv8n5wAbignlzaKhg4ClmA+zN6m0f6vNwdD9ASBeD+VizTn0ZFBKQq5Yt0ZgItuJHjx6dataoJm0PlypZUo5PGHusUUrByAeBOQPGXbasWeUzJMzAAFMSoXCEtKmq38xf5sh20axJY2GTs4mM4+gH5Zo/9xcqW6GysF87j/SHH+3FVQefoNIUDJQdO3fJttpetKPRwjYsCBLQT558Pzip0nMXTGRITQ7s31cwNoZq7Xn40MHCfIpP3dGee/XpTyXLlJPRcFhh6uQJKglpE1q119PHj8qDFprntxvko75HfKsVq1SXPviO5wsTDHqCjVm0j3p162hx4A9Vpj8N7E+wd4vvARJ/A/r1Feqe31FDYYsTUrP4FicJ9euQyMW/vXohTcxJIMlrjZDXi5cvqVqtOtK7ccMGkqGk6vHk6VP5jZYT3xQwAVNISRxbS8+WG8zPQNWveo+2woHpiLWRpc1ly3aD77lj+7ZS9XSHTl1kmWHDd8KkyWZJd+nUUdr2BG6wmz1v9ixNSt0ermaJGHhAvYCNo3aEQw+YO5avVIVWr1hGBQvk174na/2FrTHBXltXfbQqNg7ZoK0PFYw99IfAAX05+hJ7fZ+Kb3lV79Beuohjq+zws9bO4W6NVFvs1aMbtW7XkfIW8JlzQ4MFDjgpf2txbbk5GiOcbee28jPijjwX/TqPuvfqo42DkGRHH6zq6Gg8UP41ateTWYI5PHvWdF/ZW/ueVL9urR36SsCOg6M+xdYYaSdJP3mF83rz2rpxBpGM10svM8O/fkqZA4c5BB49fiImvfb1lhsFZf3ZtXTnxW3qXaqf0SgcjhFgBEIAAgHZT4SA6nIRGYEgRwBSkzFjO1bnxXO8IH81wZ4hbP6ULleBjhzYK6USUKC6DRuLhVN4GiZUOWHzsVffAZROnJidKRa/kKodMWoslSxZTJ7AxQZBYyGRC4Yv1C9D4g4UObK7lt4ccTJ80eKlIv4Ucao9rlyo5c2dm0aPDFjJGpkx/zACjECgIJC/0A9SvVvVKpVk+pC0WrBoCc2dPZNSCBuF02fOJtiEO3zgf0JNeyRavWYdeQnJOqVueejwUbRi1SpaITbikwoJKEXq0Ii9fkeF5SsjwAhYRyA0zfPAvMPmLZg2lvT+/XvZv6gNdUt/Z58xt6lcrSb17tlds/uNtOD+7NlzwUCOq20o6/OAxhLMl5xRYQy1tYiPjWVFOBwXIUJEihkzhnLy1xWqoOMIu5nYKLdFo8f9LOdolv6dhLaFPr16WDobfoZEM8YCZ7CxzAT2UcHQ8wsurdq0l/vWo0YMkww7xQSxTPvi2dMUVWen1tLf1jOYgLArbw9bW3GddQfzCd+AUhsNO6U/lCxNa1Yul4wpMPYsSa8CGO0ZDMr4Ql2ztW8ITDKoWLamAlq11yNCotxRPiiD97t3Mi0wXC0JqqIh6X54/15fNogRFu8b//rDYTgw9uLFS6vfor16NRJMYDBge4lvW+FmWR7U+8uXz2bfogrz6dMnX/YylZ/RK5hLLZo1kSrk7cUBM71fn17ChEUFe8HM/FB2e98YcHsqmJiWTE6ViD1cVRi/Xu21I6SFtSO+OcWkg5u9/sJyTIA0spE2iHQVoY1A0hrrUEUB0fdZS1elj6tl2fV+1tq53t/yHnlBbS/UwOttj1uG88uzkTHCL+kFRFi0BUgvW9qpVWk7Gg/g/0a0MWt9j0rD1tVeO7QVx5q7vT5FhfdrXkbmeczMVejy1d8IBCSTZuaBaRQvenxqlMfYyTd/F54TYAQYgSBBICD7iSApMGfCCIQwBIxM/lAlZuaGsBcbAMW9LWwslSpbgY4e3EeJvtkU8/T0pO69+9GpU6dkDpBWGC9Uw2HhjdPt+Qv/QI0bNZCnjv/Ys0csqH0kZ/TFKVyoEK1ctlg6YaNg2IjRtHX7DrGAfyOlH8aNGS02TXxv1OrT4HtGgBFwHQTAzB029CeqUqmiLBT6guFCag22HkHYMJ4ycTwpe9kdO3cVqgk9afuWDXIDLW/BIjKc5c+1SxflZri9fscyDj8zAoyAOQI8zzPHw5kn2O9ctnylNndxJo2QGAdzNGv2UJW0XUir06nTp4U91s20fsNG+vO3nZp9WTDlrJEthoG1sMHt1m/AIDokVPH26NqFIkSMQGuFJPG/ly7T6eNHpPYcvEtLAsPMlmYdy7BGntFW/JMPVHBv2ryF8ubNTZMn+EgVG8nX2TBQ1wpJ8ezZskkJTWfT8U88SHyXF5K5YMLZIjA4s+fOR6dPHLUbzlb8sOTu3zaosAptfZ+qF19DJwJG5nnMzA2d7z5YahWQTJpBO/tR2QzlqVR668amg6WCnCkjwAj4G4GA7Cf8XRhOgBEIhQgYmfyh2szMDYUv3x9VeidO1UPiAJIVesKJV2c2hrCRhgV4QJ0m1peJ7xkBRiB4EEB/AFu4llJ0kCDA9+5XqSVb/U7w1I5zZQRCBgI8zwsZ74lLGfgIwJbsyVOnqXq1qtKue+DnGHQ5QNprybJl0g7yp0+fKXPmjAQJalsSp0FXMmM5wWYrVKVDvXOrFi3sSpQaSzH0hIIk85kzZ0mZrgg9NeOaMAKMQEAgYGSex8zcgECa05AIBCSTpuXqptSv9EDKnCgLo8sIMAKhCIGA7CdCESxcFUYgwBAwMvlDZszMDTDIOSFGgBFgBBgBRoARYASCBAGe5wUJzJwJI8AIMAKMACPACDACQY6AkXme36zcB3kVOMOwiMCnLx/pufczShwzSVisPteZEWAEGAFGgBFgBBgBRoARYAQYAUaAEWAEGAFGgBFgBBgBRoARYAQYAUaAEZAIMDOXG4LLIeDp9ZAiukWiOFHiuFzZuECMACPACDACjAAjwAgwAowAI8AIMAKMACPACDACjAAjwAgwAowAI8AIMAKMQFAhwMzcoEKa8zGMgOfrB5Q0ZlLD4TkgI8AIMAKMACPACDACjAAjwAgwAowAI8AIMAKMACPACDACjAAjwAgwAowAIxAaEWBmbmh8qyG8Tg+9PCkJM3ND+Fvk4jMCjAAjwAgwAowAI8AIMAKMACPACDACjAAjwAgwAowAI8AIMAKMACPACPgXAWbm+hdBjh/gCHgyMzfAMeUEGQFGgBFgBBgBRoARYAQYAUaAEWAEGAFGgBFgBBgBRoARYAQYAUaAEWAEQh4CzMwNee8s1Jf4odcDIZmbONTXkyvICDACjAAjwAgwAowAI8AIMAKMACPACDACjAAjwAgwAowAI8AIMAKMACPACNhDgJm59tBhv2BBAGqWE8dIEix5c6aMACPACDACjAAjwAgwAowAI8AIMAKMACPACDACjAAjwAgwAowAI8AIMAKMgKsgwMxcV3kTXA6JwN0Xd8jztbCZGysZI8IIMAKMACPACDACjAAjwAgwAowAI8AIMAKMACPACDACjAAjwAgwAowAI8AIhGkEmJkbpl+/a1X+/st7NHBnP2pbuCMljJ7QtQrHpWEEGAFGgBFgBBgBRoARYAQYAUaAEWAEGAFGgBFgBBgBRoARYAQYAUaAEWAEghiBCEGcX6jMbsuFTbT4xIIArZt7hMg0pfoMSh47eYCm66qJQSJ30M7+VC9XA6qSpaqrFpPLxQgwAowAI8AIMAKMACPACDACjAAjwAgwAowAI8AIMAKMACPACDACjAAjwAgEGQLMzA0AqGtkr0X4D0iadWg6bT6/gboW7xGQybpkWkoit0GexszIdck3xIViBBgBRoARYASCHoGPHz/S06fPKGnSJEGfOecYpAh4eb0mb++3lDhx4iDN15nMuF06gxrHCW4Ebt++Q4kSJaTIkSMHd1Ec5o9+3909EsWIEcNhWA4QcAh8+fKF3NzcAi7BQEwpJI0ZgQhDiE+ax9MQ/woNVyAkfbPcLg2/VpcI+PbtW3rg+ZBSpUxBkSJFCvIyhZT5Fcb4hw8fibVWohAz1gf5ywygDEPSfMpelVGPe/fuU/LkybjN2AMqGPxYzXIwgG4ky5rZatP+G3vp5buXRoKH2DBg5Pbf0YeYkRtiXyEXnBFgBBgBRoARCHAErl69RnkLFqGmLVoFeNphOcHe/frTxYv/0O7ffqeZv8wJFigOHzlKo8eOk3m3atOe7t67RydPnaIixUvRgJ8GB0uZjGbK7dIoUn4LFxTt8v3799SidVvZ3vxWOmOh37x5Q9gA9g+ZTCZ69cqLsHniH1q4eAlt2LSZbv73H3Xs3FUm1bVHT8pf+Af6599L/kk60OMOGTaCChT5gQ4eOhzoeYWVDKz1uaj7iFFj6H9790kY+g0YRPUaNpb3jn4whqh25Siss/7oE06cPCWjWyt/SBkznK1/WIjH42ngvOWgGE8dlTwkf7PcLh29Xef8jbbLI0eP+Wkt8Oeevyh77nxUvlIV+vvMWecK9y2Wmifeu39funz+/JlwCEFP1uoREuZX7969p6o1alOxUmUkQ1dfJ753HgFr820w99Nnzkb7Dxx0PuFgiImDlFgnYS0zZdoM+ut/e+n58xdUqmx52Xa8vb2DoVScpS0EmJlrC5lgdk8m1CvnSp6Hdv67LZhLEnjZP3n7hPpt782qlQMPYk6ZEWAEGAFGgBEIkQis37iJChUsQHt+3xUiy++qhT567AS98vIibFRcuXo1WIr59OlTOnf+osx734EDQiLXm8qULkW7tm+hdes30qPHj4OlXEYy5XZpBCW/hwmKdolNuQMHD8n25vcSOo7RqGlz2rRlq+OAdkJg0zB3/oL0361bdkI59rpx46Y4SX9PbkIeEocnQFs3baASxYvR2vXrHScQTCFevHxJK1evoS0b11GlihWCqRShL1trfS5qeebsOfL09JQVrlqlMjVt3MhQ5Z8+f0aqXRmK4ESgAwcPi03E5zKmtfKHlDHDiaqHmSg8ngbOqw6K8dRRyUPyN8vt0tHbdc7faLt89OgxnTx52nAmS5atoDq1atLFc39Tgfz5DMezFlDNEyHpC8KhsqIlSpkFtVaPkDC/OnzkCD3B+uv0CUqWLKlZnfjBeQSszbcTJExAPbt3o0yZMjqfcDDE/PDhg1wnffnyVR78fvjwISVIEJ8unj1NL1+9on37DwRDqThLWwiwmmVbyLiAe41stWj0n8OprrAjG8kt6NVFBDYEU/aOp8pZq1K1bDUCOytOnxFgBBgBRoARYARCEAJYcObLm5fChQsnS338xEm5+IT027+XLlO6tGkoR/bsZjW6f/8BnTp9mr58/UoF8+fXFqvPnj2j8xcuUu7cueiIYGzEihWLChbIT+/evSOkGzVqVPmsVy+JBQ1OeD969Ihy58pFqVKlNMsLEm/nz1+gJEmSCP+cmlovVc7Xr1/TpctXKGuWzJQhfXqtHkgEdYDUAiTwsmTORNmyZTVLG+7HTpyg8KLu+fLmoThx4mj+X0XdkO6ly5cpbZo0Mm/N0583YPCeOnWaEiZMSHnz5BZqTt21FHFa/ey58/RUYInNkoQJEmh+qDNUYQOrGzf/o/p160g/VY+vQsqwcOFCFFvgbo8yZfRZ9GIDP5EogytScLdLR+8/NLZLSG7//fcZSpkypfjms2lqvtR3DTdsuGHTBG1IYYTDCmnTpKacOXKYNaXPn7/IfuLu3fuUM2d2SpM6tZm/vXYLyQb0MWij6J/Uhtjeffvp4j//0sZNWyh+vHj0Y5nSZKt8kLo9dvwEob9KkiQxFRHfBvoeHGrY/fvvsiw7d/1GxYv9oH3fznx/ZpUSD+hL8+fLS8eOHbf0cplnxbzLltWnTwRWe4RkQKECBeThkwcPHlAe0TelTJFCK7MtPBFA9U1I97//bon655Pv7PKVK3RZ9KNFihQ268sQx5n3r941+kYwOd3Ch5djiqWaaEi0XhbtMpoYc34oWsRMjbSjdmuvXCi3fylxokQUPXp0mYyqD8YfSMdig7ugOFxlqw/HeLlPSKCk8fCg9OnTyTTUeBI7Tmz6oUgRihDBZ9vp2rXr9O79O5kX3k/FCuVlutg8R14YH0sUL26oOiFhzDBUkTAaKLjHU57n8TzP2qcX3O1SjQW25vmhcZ537foNOnfuHKVL5zN+WL4XW+PfH0Iq9+ixY2LNkocOisN6mHuB7K2zMO5gvFPrOhwiOynWPuV+LGOWLeaeW7fvIIxNv//xp5xfqjhmAcVDSJhfPRPzIKxJ1bzEyDhvC0c1N8OcB/MaYFSkcGGxno5Cp8V8HXOuEiWKU9QoUcygsjUvQCCU55SIi7VvAbGGjxUrpoyr5gwJ4icQczowopNRrpw5KGLEiFra9uaBCKS+KVvrAlvtS8vAjzfuQtV3hgzptfqjzWG9ADxt7WHo50DFixUT+xYXKH26tNL8kJrLWq6z7Y1h0PSDdTsOh2KvAXsR4cXcFGTPz1pVsU+SXexVoA0xuQ4CzMx1nXfhqyTZkmSnhNET0e9XdlPVLNV9+Ydkh98u76LXH95Q/dwNQ3I1uOyMACPACDACjECYQuCvq3/S0pOL6NX7V36qd6zIsah5/lZUJkNZQ/GwMIsQ4bvtvnHjJ8qF232xmR9F2HzE4mTwoIHUqkUzmd72HTupe68+lFpsJoP63BpAG9askhv/F/75h7r17E0pkieXTFcskGpUryY2Ds5LhiU29rGxvmzxQhkXkqFVqteS90mEXaGL//SnCT+PlSe/4Qjpuz79BkjGCFQSgXZs3UxRokQmVc7Tf/8tGTGQfGpYvx6NGTVChrt+4wbVrFNf2q1MmSK5lIwaNKAftWnVUvofFYyWxs1ayHp4CYYwmDhrVi6XC3Bg0rZ9J7FpfkBuXCCPenVr089jRsu4Rn6wWRE3bhzySJXKjMH8y5y5NHnqdMkgBz7Zsmah5UsWy8W0wgNlAYbdevSiKRPHSwyRJ+oMlUzY+AATGMxcVQ8sRD98+CgXgOtWr6DMmTJJuztgpoOqVa1C0aP5MBDwHC1aNKFi9itu/URetzbTswuT6csHvy003dzjUrzsvSmmR01D+QVnu3T0/kNju5w1e45U9YWDGzdu3pTtD+0ITCf1XceLG1ceyOjWpZPY+EinfSOIg7Zs+Y0MHzlaSKy+oucvXsrNo8UL5kuJVTQAe+0WGy11GzSWkg3ZBbOxZ59+NGnCz1SrRnXatfs32X7wTa7fGEduKForX6qUqah+o8aS8Zs/X165gViqZAlaOH8uvRHpr1nrIzW7YtVq+X3ioIgz3192weAGRmC+VSj3vc91C+9GX8UGjzO058J7Wrrfm155G/8+Y0UNT81LRKUfsxuz0/v127evNpxw4AbqfLFRC/yxyY4NP9W3g7luC0/UEX0T6KXYrH0rmOWI265Nayn9iwMpvfr2l/2rkuZx9v2rd43+8cuXz/T6zVvCgZ5N69fKzTiUYcjwkbRSvFe806uCoYkN1R1bNor+OK5Uq636dmvt1l65kLYjSi5sndnqc1Xczdu20Z07d2nW9Knat5XaI5UcdzGOgYG+ecNas8NFiIu+v1PX7vTkyRM5ZsBt9tx5NGnKNK2uwGX9mpWyf0c+v//+Jz0W4XEgqUihQvTq5SuqUqOWHBfjCubvtBmz5NiHtED2yu/smOGTMv9aQyAsjKeqX0X9eZ4X06lxxl6/FBjfrDNjEN6vX8chnud5UFCuP0aP+5kWLV4q1x+Y52X4diAI7w5kr52t37BRhsHcK2bMGIT5FNaH9tZZmBfUrV1TY+ZeFWZ9OnTqQjevmpugwHi4TTBzQetEPvXr1ZVxbK2j/DO/+rJ/HX1ZM45MXj5rSpmpg59wMeORW4OB5FainoOQPt5o1/pDy2reYmuct7deVXMzzGc+ffok57Q4XJVGHKC8eFEwd8V8C2vGY4f2y3EfJbA3L8DBhXoNm1BSccAxduzY1F68jz927xAHt9MS5gz79h2Qa0zMGdRaYMPaVXLu72geqF87Bcb8ytp8W+Gze8dWyijmempvwNYeBtQyqzlQgvjx5XocGI4aPpQqJE5sdZ3taAwbOHiI1HZVUhyOQ/6lBHMdexkgW35Ro0WVWnHc3MJT3ry5xdwruQyPHzDPcbCPyYUQ8Hrz2mTrXxg6Fkx7puBE4MDN/aYWq5qYxGmS4CyGobwfPnpsKNyj149MDZfVMd14esNQeA5gArBOAABAAElEQVTECDACoQcBo/1E6Kkx14QRCFoEMHezNa/Tuzs7x2u6ooGp2oKKTv0jrhESiwVTidJlTctXrNKCV69V14R/sTiUbmPGjTcVLlZS8xeLRLPwrdq2Nw0aPFT6792/35Q6fSbTocNH5POWrdvk84qVPumfO39ePj989Ej6I65gWJrEAlA+i80C6e/l5SWfK1apbpo6fYa8F4tY088TJprEolc+o4z5ChU1PXnyVD6LBaqMizKAhG0nk7BTaEIdQQsWLdbqIRZ/pmy58poEY1X6If8u3XuaBJNaPv+6cJGpdNkKJnGKXD5fuXJVpi02OuQzrrXq1vf1r8dRBrT4ERv1Mh0hLSh9UE/gL9SdyueWrduZ8K/KrPATkoXSH3WuU7+RCeUHqXoofDGHFcxvk7DHKP3t/QC7tes22Ati1e/mtqKma+szO/WPuEYouNulo/fvqu3y5ctXsn1Yts1+A3+yC7uQjJftUkjryXDe3u9M5SpWNg0ZPkI+q+96z1//09KZv2Ch/P4eP34i3S5cuCi/KXFgwySYazI9fH8gvM/mrdqYxCaefHbUbpEP+hGkA0J/gu9XUdUatUyr165TjyZr5RObhqZefftp/YPqe9S3BKyQx7Xr17V0/Pr9aRGt3Kxbv0Hio75lK0FsOjWZ+cxUdfwTP/8jnlHavGWrfF8qvHpno8aOk07ob9HfqL7dEZ4Ii34H9VXfL/oY1Vehrx82YpRM2z/vX73rmb/MlmmhzxPMfhPaBAj1GPjTEJOQ6pbPGMfQ14uNYvlsr906KhcSWLhoia9+H9/b6dN/y/Rt/QAf1U+PnzTZ1LlbDxlU1eePP/fIZ3xPaJeqvPBH+QUj19SuY2cT+h41LqnxBN8eCHXHdzt95i/yGfkgrn4O0rBJM5mOGnNRH+QnbLvLOPZ+nB0z7KXp6n6BPc8LC+Mpz/NC3jzP2TEI45bRcUiNE/p5M/pJ/AfF+iOszfOw7kBfj3EDhDkQ1nZY64CMjH+Wcy976yykqR/38KzKgHs158CcESRsypvNSaSjjR//zK8+dMhlet8ohZ//Ec8o9R/0kzbGI46jcd4ejgqnKdOmy+zFYV75HrFmxfxHvbedu3ZLf0fzAqzpsY5UtGzFSok9njFnQBtRa1Qh3SrXqOMnTpLBHc0D/Tu/Qp0s1y94FsxWVVxfV4WPakeO+hDMU7EWUXOgRUuWms2BEF+/zkaG9saw5y9eyPhq38Pz4UPTqDFjZZnt+fmqiM4BaxfMa5mCBgEj8zyWzHUhxrq1ovzgUYwWHfuVDt06SMVSG1M5ZC0dV3Kbum8CVclandLES+NKxeKyMAKMACPACDACjEAwIwDpTsFIlCd5y5X70aw0lSqW11T/litbhgQjRUoFRRLqjDq2b0dQlQV1W1CfCikhsfFvFr9woYLyGSeJQVABBcJJXRDs3kBFKlSmdurQXl7hDvVCIKg2g8rWHDmy0Zat28UJ4qRUVKjp7N+3j/RXP3Vq1aD48ePJR5xULiukYc8KySacjoUKMEgBQ+3znTt3pGQubNKIpYFUIwrps1Ytmsu4kE6bOW2KSpbEpoKU5hIb9JobpKUuCslj2BfGfeuWLTQ/dZM6tYe6tXqF2lhICSrJLUiM7fvrDxlWLCylJDCkg9WJ7urVqtL4SVOE3dvzUr0yAuLdRBYS0yCosUI94gvJt7+EilRQClG2jZu3SAk0lY70sPjp37c39RswiAb8NNjXKXmLoEH6GNztEmqnHb1/V22X7u6RqGXzpr7eF9Sd2yNIWqBdo22CIPmO73zmL3PMopUuVVJ7Fps90u4nbDyBoML8wplT8h7qzUCwDQpCOywvpFYXLFwsnx21W6hMA439eYKUSke58P07In35oIJ24s/jhGTmNamuGaqZQegDoKrckpz5/izT0D+j/5kqpB7TZ85Gv+3YJtXA6f2D8z5Nhswy+5HDhvoqRuWKFaUbVPWi798vVPqCjOBZvlw5re+CBG54IXGg+qqiQi3g7t99+rqAeP9NGzeW5YLKRfTFYpOZvIV0MaSkx44eKW2VY3y5dfu2DAdV2yB77Rb9rKP+FPVKLLRIWFKy5Mksnfz0rNouvqfCQoL2v1s+5UYiKFMHITWN+pw+cVRTwYzxBASpkUf/87F/nj59ejleSA/xA9XiSkW5YJ7I+kNyV0lkN2pYnyCtZYRcdcwwUvawGia4x1Oe55GcS/I8z/wLDO52GRbneYLJJ9dEUJsLgmrdBkICduu27fLZ0bhsbT1hb52lTPfIxAP4JyTMr6DZxpJsjfP2cFRplC3jo5o6uVB9HE+sn8uI+TgwxhwL83dxMFEGdTQvgBpgrOmhJQrladKooZn2KGiLUmtUaONoKbRy7di5W6btaB7o3/lVbbGm937rraqsXSPp1DxrjnZubO1hAC+o+YbGGW0O1KA+jRozziw1/TobawN7exXZs2WT6pmBJ0y4QG01tJmBIgsTSomFtK81P7MMLR6aNWksJd7FgW6XWp9bFDNMPTIz18VfNz7uWjnr0Poza0IFM5fVK7t4g+PiMQKMACPACDACdhCAqmT/qFm2k7T0ihkjprxio1hIt5rZM4SdQUWRI/vY4REngKXTlGkzCCpZodY3Q4YMgulrrtYTiz+1SBIrRBkngmDmWJKyB7N2/QZhM/eM5o1FKTadQYMHDqAly5ZLlVFgOlaqWIHGjhopVXzBX2/jFs9Q5/nggSduSZx0lqo9sdDF5oViKoCZizAop3KTEXQ/Fy762CVauHiJ5goGkLJtC/ubiRL53dasOP0pbRBpiepuFB6KOa28kiVNSlAXpUi/qFV1XSow0hMwxKJS2WvS+6l7teCvXMmHeaPcHV2hKtk/apYdpR/c7RLlc/T+XbVdoj2DaepXQrtEm9ZTAvEtQYUevhcQvhf95twtwWwqX9Z+XrDppQgq2xU5ardKVezsufOpQeOmcuNq9IhhdutmrXwtWreVasdxiESpEzSRT31UWdTVme9PxbV2hVp4MI5BUEnoF4K6ZGfVLBvJp06tmrRh02bJ9GvSuKFZFLN3JmywCcEP6Y/37QhP90gRtbTCiQMyESPon33GAgQIiPcfI8Z3lfHxhDp70FNxsChBgoTUWagihop8HCaCqkD0g+q922u3jsqFdLIIO3iZxWaoJWljnqWHgWe0Xf1GefTo0cR35zPequjYTATBjlscoRoRhO8WpB+n8IwDPYr0tu6ElIh01o+b6DOQvxFydswwknZYDRPax1PVr/I8z6eFKzxcfZ7nzBiEGio1y46+Z57nOb/+cHaeh/mIOnyn3k+8eHHVrcNx2dp6wt46Sz9fVJmodaR6dvbqn/kV1CU7q2bZL+W9efMW5cvrc0AS8eyN8/ZwVHlG1M2v4OYmDtwp0s8/HM0L1CHLJctWSBXDYN5OHD+OMor1PCh+PJ8DmiptmKdQh+IczQP9O78qVrSoytbsqp8fmXnYeLC1h/FGmOUAxYr9/YAr1vWWcyD9Olv12bbGMGC/dtVymiPWKzAngj0VmKLp0a2r3Aux5Wej6NIZbYfJtRD4/rW5Vrm4NDoEymWsQGtOr6J/PC9QVmFHN6SS5ytP2nhuPQ0qO5TcwvneQA2p9eJyMwKMACPACDACYQUB2Lw1avfWGUxwKht2i2rUrkcnTp6UtmIdpfPqlZdk5MLWHxiroJ8nTKJ/L11yFNWXPxivWEBNGDdG2l5CADCO3r//ICUD8RxeMIEhIdilU0dSNoV27t4tbePC/5qwh6gnMOGqVqkknYQaTml7d+jgQZIJBWlLoYZK+qUT9j6x4IItQZQDJFQ/CzuPzyUOZUqXkrbd9JLAsBUEiUXQ73/8KW0XygfdT4f2balf7146F/PbjBkzSOlE1FNtdFy7fkMwiSNJaV/ggTqlSZ1aRvzw4QPBzjAWhtYIp6RBc2bNlKfscQ+7ilj4Olr87tz1G82f84uUYEY8owSbt0bt3hpNUx8uuNslyuLo/btqu8ShjIJFi+nhlPdgZm7ZuM6Xu3IAc2qROLigb5dCtbhkhql2qsKqKzaALL97SH6kTu1B1g5vqHi4Gmm32FiCfVu0Z6FqnQYPGyHbqmrXjjYF123YIO2B7RZSsfhu0XctXb5CXwx5b/rGrFT9kV++P1+J6RxOCqlJaAvYtX2LztXYLezeGrV9ayxF81Cw5YUNPaH6Wm7imftafzKKp/XY5q7+ef8qpbt372l2+K4IO3ygZEJi5cDBQ5KRe2jf/zQJ7EpVa6ho0ka5rXZrpFyQ4LDWjhYtmCc1QmgZBfDNv+fPyI3CDp260tZNG2R/nylTRlmfVcuXarnpxynN8duNtTYOqV6MhUbI2THDSNphNUxoH09Vm+N5Xsia5wX2GMTzPOfXH87O86DxBAc/zeZ5QruPIiPjnwqrrvbWWQiDw2H6w6iKKajiO3v1z/wKdm+N2r51pnxYV8OO/V9791K9urUNJeEIR0OJfAtkZF4ALSo1qlej58+fU9cevWn2nHk0fepkmcJl0SYgjarm2pcvXxFatbJJP0fzQHvrAiPtq1zFKvIQqWV9z/99UmpdsXT36zMO0UCqGWsVHPQDQROYvTmQkTEsttB+BI0wY0aNIGEygzp26UaVK1WSh97t+dkq///27ZMaZ34a2N9WEHYPYgTCB3F+nJ0TCLi7uVPFLJVo04UNTsR2jSjvPnrTyD+GUmGPIpQ6rs9moGuUjEvBCDACjAAjwAgwAq6GgIdHKiF9ZS4FZKuMkSO7S687YiMdix9hO5aEvVdbwR261xcLXWFXky4KJizSm/frQipQ5Ad6+eoVgZH5Y/lKQtXrbPLyek2vX7+RYfSSRlAnvH3nLsIp7bnzFwiVyhdInezFaWKcREdaWKxNmzFTK0+a1B5yE3zAwMFSBTPUMLdq0542Cmk1UMUK5WVZfheLMqiMPXjoMGXNmZuOHD0m/YsXL0YH9u7x9d++TRvpb+un2A9FJQMZC/1nz55J9a/lK1WhS5cuyyj169WhEaPHSok5T8+HEhucwldq0SzTTe3hIRlG/QYOojt378o0cTK4QeNmlkGtPidJksSquys4Bme7tPf+XbldxhUSitba5bw5s+y+UqgwfiDaG74RHHBAO58q7qtVrWIzXuXKlUjY2qJdu3+TjNIVK1dT7XoN5HdrM9I3D0ftds269VSqbAWhNu6G/P7UaXolfQDJAfQ9UNVoi2LGjCXr8vTZU/ldCJtfZkGVBOqBQ4dk/wFPv35/ZglaPHz98pVSpfwuIWnhHeyPlpLYjgrkCE9H8fX+/n3/SEvYc5Z9t7CVTiNFn1mzRjW5+Rgrpo/Gidt3bsu2s2rNWnkgRuVvr906KhfS6Na1s9VvrGD+AiqLAL/ikA/GATDEsMHas3dfudmK7xbqmGfMmi03ZXHgqUr1miRs5tosQw2huh9jDMbce/fv0+Chw22GtebhymOGtfKymw8CwTme8jzvNPE8z/qXGJztMszN8woXlnMqjBdgCP8htBdh3qbIyPinwqqrvXUWwmTNkoWWizyQF7RlQLOTLYotNE5gHXji5Cmx3nttK5h0d/X5VXJhdkFpmLJbkW+ejnA0koYK42he0LvfAKm9BHN9rKtfv/bStE4hDaybJ0+dJtsINILMmTefKnzT+ONoHujf+dWqFUutzq+UCSZVR/9cmzdtLNfWy1euEmactlGXbj0dJmdvDMMB0Jx5C9Cev/4n55zYcwBButeen71MceAiRYrk9oKwXxAjECGI8+PsnESgSpbq1H1zZ7r74g6liJPSyVSCL9rPf42hJLGSUquCbYOvEJwzI8AIMAKMACPACIQIBNyEXcN3wtagIwIjBTZzx48dTf0HDaYJkybLE66wIYhTvM7QgH59hTrgd9SwaXO5iMem9SSh7gknWUHIa/jI0XKzGs845VxFpxa4ccMGNG78RLn4xGlbSAwre5u9enSj1u06Ut4ChRFVnkKG3UxIGqIu8+fOpl59+lHJH8tLf0hjdu/aRd6XL/sjjRg2RG50g+kKgnSssgUcVagfjSqkwPxKsHUEadjhI0fJBTLiQ5oX9pJAA4RNYDCPa9apL58hUblq2RKb6pKxsb94oVDt1Kc/lSxTTsaBNODUyRPkva0fMO+xaRIhgutqbwnOdmnv/aP9uGq7RHtAG/MrIc6CeXNoqGCQwU4uvkPYbGretInNpMoJ+9RDfhpIw8T3iW8EcfD9wRadspmrj6yX8HXUbuvWriVte2IDHCRtTs2Ypkmzt2vbmtp26CQl7SGxaI3q1q4p7UjDLjhISUiEo3DyGYdCcOp9zLjxMhykG/36/cmEbPy8e//OTA2ejWDB5hzBzWdrAhuOESLY3qYIH94HL0d4+qUi/n3/aGuQ3Nb33aOGD5NFyClU6mNcaNyspXxGH4o+MVw4n3P19totIjjqT6HiWKk5lhkE0o8qrz756NGji3HrFypbobKwwTZPjknqu1WHlSqUL0ctmjXVRzO7R5uHzftqtepId2CFTXz992kW4dtDSBgzrJWb3XwQCM7xlOd5PM+z9R0GZ7sMa/O8VKlS0q9i3TNk+Ehx4GeWXL91aNdGaBraI1+Po3FZvUP9WGFvnYXwHcX6BmZ0OnTqIscZ2LfH2tEaQfoTZl9gWqNn927UtXNHa8Gkm+vPr9wMravVOO8IR5tAWPGAmRJ784IBfXtLadxCRYvL2Hnz5JEqgVVSPxQtQmfPnZdafjDXgnasunV8JIwdzQP9O7/C+iGwSB0G7dyxg1xT7xAHwTH/bS/WE6PFOsAe2RvDsF8xsH9fGjh4qLYWGj50sKY5xp6frTxhN9hN7FMwuRACXm9em2z9C93mggHP5CoI7Pp3h6nzhvamz18/u0qRzMrx8NFjs2f1MOfwL6YO69qY3n16p5z4yggwAmEUAVv9RBiFg6vNCAQ4Api72ZrX6d1dfY4nTmmbKlapbhJqVQ1j9OnTJ5Onp6dJLIQMx7EXEOmIk+ImsWFsNZhgFpmEulUzv+q16ppWrFwl4zx+/MTMTz0gPc+HD03v379XTr6ugqlpwr8tQrkCqp76PIT9QhNwtEZwF2phrXnZdBNMcdPLl69s+isPhBPS1KbU6TMZCq/iBfXVFdol6mzv/YfWdumX9o5vzN6366jd2Gu3+OaBsTUSB0hMQnrDmpeZG+Lb+5bwrYnDLGZxnPn+9AlcvXbdhP5p4uSpemeXun/r7S37AGGT3OTlZbyvcYSnXyvp1/e/d/9+U7ZceWU26O/EwQGrWcLd1riACI7arb1yWc0wmB2BBcpslBDWyPeD9BA2JIwZRuvul3A8z+N5nl/ai2VYnudZImL+zPO84Fl/YGzEHMoW+WX8M7LO8uvYZG8OGhLmV8eOn5Dzq0OHjxhePxrB0db7suVub16A8d9y/jR+0mRT5249ZHLCBIPNNaqjeaArz6/EYTa5L6Awu3//gXxXx0+cVE42r/b2KlBnYGbtu7Lnp88M4YRmJDnHFSZD9F58H4gIGJnnMWvdhRjrjopSMXNliuEendadcV51oKM8Atr/zyu/0YEb+2h4hdEUOYKPTbeAzoPTYwQYAUaAEWAEGIHQhUCTxg0Jqs56CNWNRgmSXJCWw0nugCCkE1/YstGf+NanCxVUevXKej/ESZAgvt5Ju4df4kSJzFRIaZ7fbqC+yZ4KJ5QroOqpzxvSXbYk4uAeM2YMfXCH97ALCjtkjujAwYO0cNES+nnMaEPhHaUXWP6u0C5RN3vvP7S2S7+0d3xj9r5dR+3DXrvFNw+MrRFO2UcXkoqOCPHtfUv41qDCVk/OfH/6+IPECX30SfYkm/Xhg+Me2gWmT5lEq4Sa/H0HDhougiM8DSf0LaCz7x/R0d9BcsQawd3WuIDwjtqtvXJZyy+43YAFymyUENbI94P0QsqYYbTuYTGcK4ynPM8zb3nOjDNG+6WQ8s26QrvEWwlr8zyMjUpS0bxV+jwZbWcIbWSd5dexyd4cNCTMr6CxChKfWFeLA8XWIPblZgRHX5EcONibF2D8tzV/QrKwFYs+yho5mge68vxqrJDCrVW3Aa1bv5E2bdlKPfv0lTjYMmekr7+9MQx1BmbWvit7fvr0ofoaarBr16xBRQoX0nvxfTAjEA5SGrbK4PXSi5IlS2rL2yXdxSkG2rl7N125co1KlSpBZYWKOHd3H1tqlgU+dfqMVIWl3OMniEeFChSgvHlyKyeXuz5+85h6CHXLoyuNpzTx0rhU+R49fiLUmCXQynThwTka8ccwGlVxLGVOlEVz5xtGgBEIuwhY9hNhFwmuOSPgG4EPn010+8lnShEvAkWJFM53AAMumAfFjO2YeRYS53gGqh/sQaCqq6CYS5YQ9muZGAFXQYDbpau8CS5HaEQAqvKXLltOE4U6fiZGILAR4HleYCNsP30eT+3jw77BgwC3y+DBnXMNXARgQ/apMJvSplXLwM0oGFN/9+49LVm2jA4eOkyfPn2mzJkzUqcO7eXB72AsFmcdjAgYmeeFKmbuKy8v+rFcJcqRIxtly5aVVq1aK22YDRv6k9XXsGbtehrz8wRq1rQRCQlpunjxXzp0+DBNHDeWagubRq5Kv13eRULlMs2oNfv/7Z0H/E7VH8e/RvZKtswoRWUU0dKinREyklRGScMuDRGiTUqLQguhJf0bZkkhNFUyKkKyR8Xz/37Or/O4v8ddz/Nbnp/P9/f6PXedc+4573vuud+zvicaxWW/LZVZP8ySBb/MjZ47HHZ6nn2HXHB8yrpQYeMT2b9X9v65RPZs/EJ2b1ok+7Z8rc/nn7De6S6zCOg6T4WPvVSOrtld8hSqkll35X2SnAA7c5P8ATL6GUbgva/2ynMf7pL9ByKSU0dStj2rgLRpmD/u+4VR/hAoO3PjRksPJEACJEACJEACJJClBKjnZSl+3pwESIAESIAESIAEMoxAGD3PfY56hkUpYwMe9dTTUrlKJXn26aeM6bnzGzeW5le3Nh2ztWq6zwwtpeYc+tx5RzRijz05SsZPmJRlnbn/7F4vf30/Vnb8Ms2zA7Oaxran/v805WCaYMypBf6L6s/hJMtvk5+WxxmhHLkkb7ETJX/J+lK8RhfJV/I0yZnb3VxVnCHTeToSsHl13QfNpVD5JuzUTUe2DIoESODIIrBrX0TG/m+nfvdT0q0rtMqkebuk8Ul5pHTR9DEZfGQRZWpJgARIgARIgARIgARIgARIgARIgARIgARIIPsQyFaduV9+uVjat70muobYqaecLKecfLLOuP1GvDpzYx9l3jx55d/9/8aezvBj2zG2Y/V00zFWoel039mOm3Ztkh5TuspJpWvJxSdeIg0qNczwOAbdgDPugghlr+tHFSgrpereL0fX6GoGIKyb1cxzAEL2SjlTk1YCO9IaAP2TQDYjsP4fXWMx8q6m6qBp5aNyivyx9QA7c7PZs2ZySIAESIAESIAESIAESIAESIAESIAESIAESCBeAtmqM3f5ihUyoF+fVAwqV64kq1b/kuqc82Djps0ycdKr2gkVkZ9X/SJTp02XUU884nQSuL915XjZvHxEoLsgB4UrXC4Vmkzz7cS1YZQsWFJev+5Ne8gtCWQZAdupi45dCgkEEeCgjyBCvH4kEiirM3PlyT+1Q/dg6v85IFK6mPboUkiABEiABEiABEiABEiABEiABEiABEiABEiABI5oAtmmM3f//v3mQebKlTpJhQsVll07d3s+5F27dsrCzxeZ679v2JCy/W29p3u3C8WO7yT4p5AACZAACZAACZBAvAQK5s0hXS8qJM/+b5cclSsif+/PIVc3yMdZufGCpHsSIAESIAESIAESIAESIAESIAESIAESIAESyIYEUvd8JnECc+XKJRUqVJD169ERWyeaks2bN0mdOrWjx7E7VSpXltFPPhY9PfP9WXJLz9uladOL5JjixaPnnTu7du2Wnbt2RU/lULOIEed0muiVI2tn8+YtR1aCmVoSIIG4CbCciBsZPRwhBOqVExnVPiJ7chwtFY/JLfnyHDS5fIQgYDJJgARIgARIgARIgARIgARIgARIgARIgARIgARcCGSbzlykrcbxx8uCTz+TKy6/1CR17959Mv/ThdK8+VUuSXc/1ahRytqza9eu8+zMLViwgOCfciiB0qVKHnqSZ0iABEjAQYDlhAMGd0mABEiABEiABEiABEiABEiABEiABEiABEiABEiABEjAh0C26sy98cbO0qZtezm9Xl2pX/80GT1mrJQtU1rOPftsTwR79uyV1avXmOur166RqVOnmf0aJxzv6YcXSIAESIAESIAESIAESIAESIAESIAESIAESIAESIAESIAESIAESIAESCCjCWSrzlx04g669x555PEnZcMfG6RBg/ryxGOPSN68eV055syZ07g7v8nF5nrBgoWkXt3a8ubk1yV//vyufniSBEiABEiABEiABEiABEiABEiABEiABEiABEiABEiABEiABEiABEiABDKDQI7tO3dEvG60fet2KV9eF3FLMolEIrJ79241hVwwyWKe3NHFWsI0P53cz5CxJ4GMJsByIqMJM/wjncBvv/0uRYoVCcSQrDpeYMLogARIgARIgARIgASyKQHqedn0wTJZJEACJEACJEACRzyBMHpezuxIKUeOHOzIzYIHy47cLIDOW5JAkhFgOZFkD4zRJQESIAESIAESIAESIAESIAESIAESIAESIAESIAESyFIC2bIzN0uJ8uYkQAIkQAIkQAIkQAJpJvD333/L77+vT3M4DCA+Avv374/Pw2HgOtnijPiuWbNWkiHeiCNGCCdDXA+DrJjlUfjnn3/k51WrZNu27VkSF+TrvXv3Zsm9eVMSIIHkIkA9L7meF2PrToA6nTsXnj1IINl06GTS5TZv/lN27NhxEDb3MoVAsuVpQEnGOHs9THbmepHheRIgARIgARIgARIggSwhsHLlj1KvQSO5tlPnLLl/dr1pr7795Ouvv5GZ78+SUU89bZK5fMUKufnW28w+Ku/VT6wlc+bOC0SADptON9wk6379NdBtog4+/Wyh9L97oK93VMzOOOtceXL0GF93WXURjQzghEbrRx9/Uj76+BPZsuUvOe+ipnJFs5ZmaZisilvQfffs2WviePZ5F8iGDX8EOef1kAReGDdeprw5TVb98ot0v+VWT18274TtmMX72+ic8+Siiy+TlyZM9Aw37IVBgx+Ujz+ZbZxjGSPEw9kQ4paOW2+/Q05veJZ88+13YW9DdyRAAkcgAep5GfPQ3fQ86H1+3xq/mGz44w+jw2zfnjydJTt37jQ6l1+6Er1mv8vU6RIlmP38uelCto7062+/yYEDB+Ts8y6Ux554MlTiHxgy1NQVQjlOwJHNw1a3dCszkkWXu+e+QVK/0Vkyb/6CBEjQixuBBZ9+JkOGDjOXOt/YNVrPd9YJ+va/S1q3be/m/ZBzqO/YNodDLqbTCeThRV986Rva5ClTpfZpDbJssKtv5BK4yM7cBKDRCwmQAAmQAAmQAAmQQMYRmDz1TTmjQX35cNZ7GXeTIzDkzxYukm3btwsaF35YudIQ2PLXX9FKcMlSJeWO23pKjRonBNL5999/Ze68+RnaGfnHHxvliy8W+8YlV65ccust3eXcc87ydZdVF/ft22c47d9/wHSkb9iwQUqWLCFff7VYtm7bJrPnzM2qqAXed8Gnn8qmzZtl2eJFUr58uUD3dBCOwM8/r5JfdRAEGsfna6OJl+zes9vkHTQah5F33ntPihQuLEu/+Fy6d70pjBdfN0u/Wibr16dYR0Bc65zeQH5ZvTrqxy0dM96cou/i2fL65MlRd9whARIggVgC1PNiiaTPsZuet3nLn77fGr8779VBXdD1/v33Hz9nh9W1dtdeJ29On5EhcaJOlyFYkzpQN13I1pF27dolOXPmNDpZ43PPDZXOJUu/0gGUG0K5TcRRrG7pVmYkgy7319atMunV12T61Dfk0ksuTgQF/bgQ2Ix63/KvzZXZc+dG6/nOOsEVl18m17Zv5+L70FMYuGrbHA69mj5n5s5boAOlt/gGVrduHbm5WxcpVKigr7tkuZg7WSLKeJIACZAACZAACZAACRwZBNCBdFq9epIjRw6T4M8XfWE6kzDa/tvvvpdqx1WVU04+ORUMmIL9cvFi2a8joBucfnq08+nPP/+U5Su+ljp1asun2nFStGhRaVD/dNmzZ48g3AIFCphjdApaQWMNKtN/6IyEOrVrS6VKFe0ls0XFZPnyFVK2bFm9fqrkyZPHnLfxhLmn777/QWqedKIcX716NB1whDRg1CtGRJ90Yg2pVaum8Wt/cH7hokWSU9N+Wr26cvTRR9tLZnQ3wv3u++/luKpVzb2jF9NhJ6+m4/jjq0uB/PlNaDY9ftydt0W6wBEd8RCblgM6e7ZhwzOkmLKHYHbfhzpD9XRNHyqHuXLnksbnnGOu/fjTz7Js2TKpVq2aOQ7zU13dFitaLOo0iHHQ8/1j40Yzwreg5g2kBSO+G597juTNm9fcw8u/W7qqH+eeDuS7k/XZ/xlQ+YwmKgt2EDfk4cLaQQj58cefZM/ePVKqZEn54svFUrx4cTn9tHrR/A83Xuwtm/qnn2Y6tdHA1ahhQ33/8sviJUtNJfxcZWzzHsKCYODBl3qvYkcXk7MaNZLcuQ9WX/Fuf6l+8a7U13e+aNEixo+NZ8kSJfUdR0d0eal96ily1FFHmev4QXwWfr7ImJAuW7aMxuUMk3etA/uMN2peqH3qqYeUAX7xsmEksnXmvapVqhwShI1XbNm0eMkSeebZ5wVcF37+udSrW1dKlDjGN514v8uULh1NGxrG8FybXHhBqvvu3r1bZs6aZc69+977cs7ZZ3mWPSizkScWLvw8VRg8IAESIAEnAep5WaPn4RngOzJbLbBUrVxZqlatYvSxRmc0iH7roeP+pQP98B2x8rea8DcN+7t2G535mGOOsZfM1kvfS+XI5cBNn8Z38CvVDS+84Pzodxl69Wf6zT6jfn0pUqSw6vB7jc6PBnzUF+yAs09mz5Gvv/lWpr45XUpoHBEGBLMjvfRnqzMUK1ZMlqhOAf2zVs2TdDDTBtUxlqgeX01OOP54l9gfPEWdjjrdwdxw6B7qgsX/q8/Z/OanSztDgKUT6JwXnn+eeR+89ED4gV5XrlxZU3/9edUv0qbV1SaoIN3SeT/sJ4MuZzvvatVMqUfb+j7qzpiliQ71BlqHs3VPpMtP97fsEO4vv6xWXfY0U658/8MP8r3WvRs1amjqPwjHil+551VG2XiiPoQBnbm0sx/tErauZcOGRYXvdeA16qJnndko1XVbnqGT9Dgtw0895RTrzWz94pXKYYIHqDsUKlTI+Lbp8ePuvA2sPSxbtjxaT8E1rzqVfVdwLzyfSy5uap4n6jp4xqhznvtf+4HzHm77RYsUNW0yzvYeP8Z+8cI15C+0BeEbVl+f344dO81tUW+24pUuez0t24O14bSEQr/ZhsDb77xnGi9vv62HFC2S0iDylb5oM956J1Uaa5xwvLRpnfJhSHVBD/bu3aejsaeoIrREKlSoIC2aXWWURKe7ZdqoChN/GOnXpMmFAuWRQgIkkBwE0Ckybfpb0rzZldqZUstEeqs2AD4xKrWJy7z58kr/Pr08E/XezPd1pO8C0wjctOlFcqY2pFqJt9yx/rglARLIWAKRdT/IP+PuksgPX8R1oxwnnC5HXT9UclQ4IZQ/VLZyaweflWEPjTQdMb/9/rvkz5fPzA4beNcA6dypo3Hy9jvvym139pYq2jAF6b26v0x57RXBKMwV33wjPe/oJRWOPdaUNzAr3OyqK01FAp1zqKShkvTyuBeMX1R4L7+qhdkvW6a0Ngr1kxHDh8rVLZqbcxjt37tvf9NhAVNVkHdmTJP8+fOJjSc6VtDJi47Ktm1ay4ODBxl3P/38szS/uo3k0zRUrHCsuX5X/75yY+frzfXPtAOkfcdOJh3bteEKZrpemzTBdKiByU1dbzaNaWhgwz1at2opwx8cYvyG+UEnTfHiR0vlSpVSdTBbv+jghim+me/MkBO0A8+mx4u79YftmGfGytNjnzPxxbFNS/Vqx2nD4d+m0/KNVyfKiTVqmI503KfGCSeYEb9XXnG56cwdMmy4vDjuJdNRj3U/0YAWRh4a+Yi0atncdEoFMQ56vrM++J9079FTEO8tf22VqlUqmw6uzxfM0xm1ecXPv+XnTBcq2BgxnitXTqlXr44cq/nQCjoXURmMV/b99ItsHPyI7F2yIi6v+eqeLKXu6SV5q1UJ5Q95zlnpnfbWWzJ79lwzW7d8uXI6SGKFXKR5auyY0SY8P/aWDd4LrOuKxlZwQkMyKtO7tMMQ+X3h/DlSsGDKqGnkqYcffdy8Syu1Ixnv8OTXJpnrGNDQum0HKacdsWiA7XpzD/lg5js60OM4sfGECXAMekBegt8pr79iBm+ggaVNu/YmDuh4RAfmeY3PlReefcakw/mMi2snMgYYOMsAv3iFAXuy6k5omEAD08VNLop6+eDDj6SbpsPmPZQRTnHGK7ZsWvDpQtORC/dvqCkx5DNw9Esn3m/73sAfzJ7i/qtWpjaRvFMbTV57fTKcyMRXXjVlB56jVzpy5cwlB9QsM4UESCD5CGTm94V6XubrebD0gKU1Nm3aJBPGj4vqY1bvQ47FoJ2vdFCd/SbiXLebb5WN6sfq4BPGvyhnaucGxE/fMw48frz06Yh2vEIPg/6LDg/IzPc/kMFq+vPLhQvMt67VNe2NLnKyduTc0buvPDxiuGl3RPsCBDry5KlHm87cIP3Z6gwYYGC/+d263CgTJr2q+ngloyv06XWHzq7sIgUKFkh3ne6n3/fI4Fd/lSU/7zJxD/tT97iCck/bY6VauZQBmEH+qNNJ9Plmhk7nfB5OfcuZ39x0aac/LDfT4brrjQ4KfdxPD4Q/3AfvOPTfeloHRmdukG7pVTdMiy63Zc0umTf6J9nwzTZncnz3y9QsImf30E7vSil1AF/HevGAWjyCYOYzxNb38c6ifoU6eEXtj5g25XUzMDpI9wc7CNo1USdBJ2WXG28ws3/R8X5nn36pyiS/cg+djV5llI0n6iX79/8rO3buMmv+vjn5daP/Iw733P+ATFJ9G7o26j/o6H1n+lQziNZZnmFgO+pizvYAv3gh7CA59tjypnMZ7lA/L1QwpdPW6Q95eO3adTL6iccCuTv9YYBMyzZtdVDomab+iGt+dSrcZ9as/5lvD+pzjc44Q7Zt3SaXN2th2lJQXj/+5GhTf3Tex23/62+/kdt79ZEVS1PMMfsxDooX8lLbDh0NezyjQWoaHfkO7TM1T7rb3N4vXW7xi/vc9p07Il7/v/76my6PQzkSCOio80iXbrdEqlSvYf7VpFY02WOfez5yzvkXRUY88mj0Xztyotdjd67tdENE12qKwF+PnrdHatU+LbJ69eqoMy1UzT3uGzQkgn/cUzt2o9e5QwIkcHgS0EbWyMOPPREtJ956+91oRHUGmznvLCf0wxq9Hrvz1NNjTdnwxKinIkMfGmn8vj/rg6izeMudqEfukMARTgC6m5de5zyfqI63b1CLyN52FRL6h98wop1bkXNV75gw8ZWo86tatIrgH+UQ5MFhD0Uant04el0V5lTuO9/UNXLXwHvN9U/mzDFlzPwFn5rj6TPeMscTJ6WEv2z5cnOsI0XNdfjtefudEa0smWNdY8Vc3759uzm+5PKrIrrukdnXTqnI8BEjI9qJZY4Rx9POODOyadNmc6wdTsYv4gD534cfRXTNmQjSCHn+xXHRdGhnl5aL9SJPPf2MuYb797jtjoh2Upvj5154MXL+RRdHdPacOf7hh5UmbK20mWNsW7Rqc8i/k6NxGPODuOG+EJ35YMLUDm5z7Mfd6VZnBJowVnz9jfFn02IZ6wjiiHaAR3R9HXPd+sVztKKzJM29oSdCtm7dZtggzUGCeNp7+TFGOH7PV0f4mjiMf3mCuSXirZ1b5tzGjZvMOT//bukynjx+7uzTN6KNkB5XvU+v7XhLZGWtcxL6h9+w0u+uuyO3qC5v5aGHHzEsbPkB1tDjdVa8ceLH3rJ59PEnjFttaDJ+kcfB2eaZd9+baa7b+sKKFV+bY/hvcsllEegNEOSdq9u0M/v4eXnipIiu72qObTyRpyB4rihTHhr5sDnWTssI2Nv31JYBNh3X39Algn/7niJslDd434PihXyLeMW+i30H3G3u7fWjDT+GxwvjXjJO8P536Z5SNwuT9+AJZZEtL3AclE7newP39h3EPsR5HenCs/7xp59SLvr8vjF5iikHLT8fp7xEAiQQJ4GM1vMy4/tCPS9r9Dzt5DHfFeixVpe032ar9yE7Pjl6jNGVsK8z1EzZj2+mFXyHoTfiOdpvt9XBYvU968dt66dPX9f5xsg99w+Kemt3bSdtOxxsjj/86GMTJ8QdAv0e+rSVK5q1iLz6+hv2MBKkP0NnQHq0o8z4GXD3PSZ8ywRhh9FFE9XpOj68MlKr+9KE/uE3rFCnS6l7ZYZOF/teOfUpq6N66dLWLep10LtQD7XiVweBG/iFDor3EhJGtzQOXX7SostN7/1V5JlL5sT9P733UpeYuJ+aNn1GtP4KF7a+/8H/PjQeoDuD31tvv2OOw+jEqKeiXLPfKNTpLUuwt2VQULnnV0bZeI56aoyJF8pM1AVRbkGQd1AGqbUxc4y2D5RPNh3PPv+C0bFt3QD1JFxHeRUULwT4wovjD6mjoM6yePEScz+vH5svcR152NYPbXq8uFu36zdsMHUx1IfAFxJUp7Jls31X4Ec7Uc13zLbTID14zkF9SrHtHX6Mg+KFbyDqhagbQXTwk4nD/Q8MMcdB/o0jn58weh5n5sbd/Z09Pbyqo63z5DlKXn9loo7g7pAqkb/++rs0bNBA+tx5R6rzbgerV6+R+QsWyGfzZktpnXoPad3uWpn1vw/NqBYcY7Hsm7t1ld533o5DHTleXvr0v9uMiLfm68wF/pAACRxWBJYsXSaqmMi7b02Tjp1uTBU3rKlWpnSZUOWEfrdk3PiXZdiDD8jll15iwoH5kNfemCJN/5uhEk+5kyoiPCABEshQAvHOyHVGJoxfjCTWThczowyWO5xy6SVNo2Zum1x0gWjjihl9DBPHGC0PE6GfLVwo69b9ZmYcaMeL07s0/M8KCEZQQmDSFWLNNWPNI5hkg4k26CnYQmA6DQIzOphlecoptWT6jLd1RmA5MyuhX5/e5rr9ubpFM2PeFMeYeYiZizAXBzPCMPeGWcCwcLB27VozahjrIqFchKkkjOTt3Ok6ExRGGo96/FEbrGhHlRmZq5Wt6DmMOP5aZx7DFDD2b7i+U/Sa3alSpbLdTWjrxd0GNubpsfL2u+/JjDcnG7N0OG/TUkJHMn+k5pQhsNYyddp0Y+LKnNAfjPi1ohUfwwbmcCEwmXtN61ZqHeZtc4wZIbfelloXHTFsaNRErHGkP36MtcLs+3y1cmmCad/2GrOFmbFO13U0eixOaMXR1z9GDUOc6TInPH46dmhvZmrrAINDZkN6eDGn452R6wwrrN+qx6eYicJsaqcgH1tzhlgbFbJG8zLMuvmxt2FcdEGKCd9j1fQxzDRecF5jM9MTs9WRj7Wz0DiFyXQIZiH88fFGs19dzdRpx6vZh4lylAE6+EHO1zA6tGubarY5TCTCbBkEM1Sv11n877w70xxX1xnfI4cP09HuPxozjZglDMG7WLp0KTP7/ZUJL0VnJWNdKLs2VFC88ubNI9dfd60Jz/kD8+5+AhNukI4dUtagwvvfqeO1oh3k5nxQ3os1sQZPfunE88ooQT54TEfKVz+xlrz/zlvGdHtG3YvhkgAJpC+BsN8It7uG8Us9L2v0POiX3dQiCnTbxYs+S2V61O1Zxp67vmOKJRycxzfu8SdHCfRmLL2AsL30PSzX4KW7+enTLZs3k7vuuU/uUSs8W9TkM/T7vr1TdEAsBwIZOnyEsbQDCxt2lrC5EPMTpD/DOfQPzL6DnKbhwQy1Na2M2cE6gMzM/oKu4iWJ6nTxzsh13j+sX+p0mavTOZ+R276fLg33c3V5F8wchBWqq1umWIsKqwei3mbzaZBu6RY3ey5hXU4Ns8QzI9feD9sN32x3Hnru2/z8wH33HuIGdQJIyZIltO5/hlrzWmOOw+jETZs0ier+eO9z5soZZXmmLg0zc9YHJqygem6YMura9u1NWKhrov6unbmyWy1kwXLP0CEPGNPDKK9Xr0mJP5aTgmCJGNRJkD5IrVo1o7NNUUfyK48xuxvpKqOWx2KlvPbLpEW8uCNMtHk0OruxaScYqtbKrNWnoDoV/GIZHFvvRD0d6YeVJjsju13bNgLLXlawNNLoMU/bQ7Wcll/Gv/Bc9Bg7QYyD4oXrHfUZ2OV9UAfDN8RKkH/rLi1bduamhV428ouGA5goQ2dsrEDhhqL15eKlcpR2+NZSG+D25YO9/iaXXiHtrmktXW+60TSAvPf2jGhHLsI6KnduwRobEBQsMMH2zFOjzDF+0FA3dPhDxhQETKNRSIAEDk8CNWueKG9pY71zzTkbU5jgrFS5olmLZtu2bdrhcbL5cNrrffoNMKaQ7If05fEviDWHCjdYLxEmYaz4lTvWDbckQAKZTwDmksN0yrrFDH6DpEjhlCUeoC/orLlowwr8YdCHlXz5UkyKoXMO8ujjTxrFHeZJj9d1rfLmTd3Ygs4cq/Rrj4/xk1srNLFi1y81y0UsXRq9DAXddvQNHNBfdOamMQvU/+6Bxtza0MEPmDW84MG5xi2O0Tj0++/rsWs6ZmCmCZVsdFrayjY6c+EG8bTnjAfHj856NXrUC+PGR8+iQ8YOhMO6n+iISm/x4457oSMXggaDk2ulmN636X1JOTkFHLH+JiqukKOOOlgVQUearZhaP8ccU9zuSuFChVVnbB09xk7RYod2kKHzy4tx0POF2Ww8g9yqu1qxFTUcB/m3fpzpsufctqtWrXY7HXgO5pLDNJq7BQS/8QjiiPXorMDEoBWrDyD/QvzYR/1oXcIpuRyso++oOtBRycaZM7/jBAYFQK64/DKzHf/yRHnksSdMA8HIh4ZFG19LHJPSyGEc6Q/W97UNIqjvdLrhJvM8MZjDmvOOSCT6jEuVSmnUtf7tNiheeH/twDTrJ8wWndbo3HbmvWM0zlbC5j3rHlu/dDrd2X1bntrjRLd4j/A+Q7C2IYUESCB5CGT094V6XtbpeXaQItZcP1rb/rzEftOd17FuvRU0hEPw3cKahRAvfc9Pd/PTpy/QQUG7dPkUmJnFgDG0G9hBS3bJhTHPPCvXtL/WfDuHDLrP89sbpD8j/laXxn4O/cujZlqt5MiRYsbVHnttE9XpYC45bKds7L3hNx6hTpeaVkbpdKnvcuiRny4N13Yg3zdqGtZKWD3QmXeDdEsbtts2YV1Oq3hlahZNqEMXppbDCJY+mvLmNDPAs0P7tlEvqMPZvgqcLFSooA6YTmkrCKMT53XUUXLooMqjcjvKgZwpdVeEG1TPDVNGFS6cUo4ivGN0CSTIZh24XLJkKblFTeFjjXIMQMdAYZhZRh0FgnQ0vegisx/7ExQvhHOS9uecqANiY8VZB4u9FnTsxx1+7aDZ7dt3GNP+9hsS9P7Br61rYh8DeyDOthbUu3B/K1WqVE7VXuBczsG6gZlkP8ZB8ULH+tH/PTMbJuqZVoL8W3dp2R5sqUhLKPSb9ATQkeslGEUxRwuSV155XRs4/tSC5hhdc2qSzoSopA0OR5kCpnSplJEdGPWA9XStzJk3z4yiG3x/yoiZtevWmUsVHGtAoYAtqHbY16xZa9a5sn65JQESOLwIFNGPv5f89tt6+VxHSWH9ul27Uip1zz0zRi44/zzjpZp2sBT9r5xBI/6JNQ6um6lm3uWZsc/LoHsHRoP3K3eijrhDAiSQ6QSw7m1a1swNijA6zrBeY7OWrWXRF1+YtWKD/Gzbtt105GLdFqxNChk+4mH59rvvgrwech0dr6gQjBj2oLEYAgdo1Nq7d59ZExfHObUTGDOBe9zc3QxQwxq4786cadbGxfUfdW0bp6AR6YrLLzWn1KSSWXv33oF3mQ5NzBZQs7LmWrVq1UxnLWag2tkBavpZ1+zZYjigPMU6mc6ZwKiMYK1eCNZ6xTposdKt603St9edsafT7fjF58eadXP63TVQTlAdEJ1jGP0MeXr0qOioVQzYQQUb/7bxzxkJjGJGYyB4285ejHy2gnRirfYg8WMc9Hyhi2IgAbaVKlU0t1q+/OvoLYP8u6Ur6tll5+PZs81o7LsH9HO56n0K696mZc1c75APXsF7iPVqP/rkE7MW08Er3nt+7L19uV+poXoCZtdihqwVZ37HOYygx/rXWzDz5/ZeglniTzz2iHH+veYdzGKwjToYbHDKySmDDd6YMsUMYp2ps0aRr1CGvDRhovFnnzHcV61SxZzDAAQcn6oDMILihUEoDc5MmbFsPP/3g/di+tQ3nKdS7WNAK9bngn87qAEDYK3YePmVTdat3fqlE24KFMgvGIxnxXZ222O3beRASmOS2zV77gsdsQ6rBO+9Pd2e4pYESCBJCGT094V63i6z/h/KdEhm6nnfLl9qBrth/dsZb04x+hms20DQCWBnov7s+PaYi/qD7xEsakCwViIE361du3eZfS99Dxe9dDc/fbqAtitiHUjoyFgzsk3rq8197A/iijV9oVvq0icy8L5BxjqI/eY7BycF6c82zLRuE9XpsO5tWtbMDRNv6nSZq9OFeSZ+brBWK2bYoj6MQQyY9Z2IHhikW/rFIS263Nk9qiW8Zq5fnOw1rHmMQZ1qjl0wkDOMBOnEYcKwboLquXDnVUbZMNat+zVa1/xh5Y/mdHktY+fOm286cufP/thYPcKFS69oZr2ZulFsGwesW1WpUjmw/o1ABj84LFrnwbEV1OcxYzwjBHWCVye+LFe1uFrUzLI89eTjpq4fVKeKjYt9B9DWYutoGLCAursVfKfst8qei90u/PxzX8ZB8apbp7Z8+eVisyY1wsZ3SJcd1E72C82tgvzHxieRY3bmJkLtCPPz6MMjjAnmE2vU0Ma3XdLjttult5pKnvzqJG0gySmPP5KyUHgsFhRIPXreaUxDVK2a0hiya9ce4yx21EdxHdWwe9fu2CB4TAIkkCQErr+ug1E4sei7dn3Ik9phcVO3m2XZ4i90JFkhM3PfLSkoU667oYuc1egMbZC9IurEr9yJOuIOCZBAphPIUeEEyXPv1Ay/b+XKlcTZEON3w3z58prLa7VSBGUeJownvfqaGWzm58/rWhttPNJ1baVkiRKmYjRh0qvGlOu82R9Jfh39eWHTS6X11S3UHHIn2bFjp7mnc9QoTAmfo+ZnsUQFRg0vX7HCdA7jfhi1iRlrW9WCwV86uhRm6qxUrVLZVND6Dxgo9997tznd7ZaexmxPTR1Fe8nFTaW7msirXbu2nKkmh1BxQyV24kvjjAki3HPuJx/a4KJbzIrISClbpoyp/MG00w1duqtZ1RlSpXJl05nTd8Bdgo5KzO6974Eh8scfG41pJLf4wHzVwHvvF12rTS2+tJGly5bJRGWPsOIRP8YIx+/5YrAhzGB36X6zdOvSxTxbXa8n1e39/LvN9k7lOeYAHdfOAY4xlz0P81arIhVeGu15Pb0uYCkUXfc5dHBB7EMHpA5hMhFmDZEfOrS7xozG7tq9hzFhfdutt0ivvv1lu3bCDh82RPbs3qPv4nYp7zAdjPfskcceV3OQ1xlT5E+PfVYeGjrERKFIkaKmMX3zn5sFDcaY2esUNBojvyL9FStWlAeHDjfv8az33gmMF+o0bu+hs4xw3svuo66EvD7wvvu17qRp09HriINT/PJeMRczzkHprHnSSYLyDWUKltuBhQMvQccvZO78+WZE25gJcgAAP9NJREFUfIkSx3g5lQP7D0iliikzqD0d8QIJkMBhSSCzvi/U8zJXz8NARcxgwoAgXftQ7ujVR54bO0bL/jxGX4NZSrjBUgewuHJe43NT5c/BQ4ZJ2dFlJJ9avtG1bI2+CoswGDSFhvp49D0EvG/fvkB9utmVV0q7a68z8XjmqYPfp9femGy+2xjshRltaE+A2DZGWObQ9Ubl7LPOFMyQC9Kfjed0+ElUp6tWLr+81Kt6OsTAPwjqdJmn0/k/ieCrFVT/xCDA4Q8OEViBQls8zInHqweG0S29YpMWXa54pYJy1chTvYJOl/Mof+KRIJ04nrCC6rlBZRTuhXIUFgV26YDRB4YMNYNeMBilaJGU2clr1q4x1m3eeudd0fVwowPDL7vsUul2cw9jLvnMRo3kbb1+76AH5LP5c0w9Iqg87ql1qBs6dzokuZi0l1GCfIiBXM+MGWU6psc+94LWs28MrFO5xafZlVfIIOVVvlw5gcUItNnEK0GMg+qgLXQZgPYdO5nBt7BKpusZRy0SIS5B/uONr5t7dua6UeG5VARgLtUKZtHeesvN0uqadsZMnl1Hzl63W0w779DxesFaF511jSorFSuUN7uYiVe2bFmzD6Vnnc7YPVYb0CgkQALJSQAz9fFv5RZdb3KUNsCiE8NrDRtU4jCLLK9WItF5aytgCCORcsfem1sSIIHkJ4DBYnt03ZggQbmBhih00mBm6AjteIOpUqwHgwamRKR/3z6q4+yRttqAhM5hNG49rKN+bWcJ7nW/drKgkwmCmQN2/W8cY73VYQ+NNEo94oIZw3btnDtv72k6POvVbwinZlYhTA9hJirS8qxaNLizd19pfGFTcx2zCW67tYfZx2jPQffdYzo8MYMP0rPHzdG1gNEpVeC/WRPmYgb+OMtre5shgwZJy9bX6AzJO00H87gXntW09JPGFzQxTlC5fOyREdb5IVvMhIVFB6wR9cSo0eY5oqI364NDO6gP8ew44ccYzoKe75hRT+hM72dk3Esvmc73YQ8Olp6aJit+/uOdmYuBjLn0uR+ugs7pMO+hnUkdxD6edKIB9vmxT8u92thhBz1c3LSJWUcW4fTv08vMxj3jzJRR5BhMdnvPW6O3QKf8V8uWm1myeIcxm77V1S3N9VYtm5u1nLE+NwTvMCSH/kH66zrYeJaYEQGpUrmyjBmd0uEbFC80xASNCDeBxvzA34vPjZXb1KykjVefXnfIyEcei85U98t7CM4+Bxt0UDq766z9JWpOHo1CSCPW7EIZ6ibojMbADHSwYx1s54zpWPdYQ9FpPjv2Oo9JgARIgHpe1uh5MG/57DNPyUUXX6YDFccaPfJBXcOwS/dbjMlifDuvu7aDWa8RudR+V/D9vOTyq0zGxfcW+ioE36549T34g1njIH0anVfQozGgsYwOHLTSStcQxbqJTS+93JzCNTvTCye63HSDGVSOWb2YjRykP9tw07qlTudNMEh3ym46nTcJ7yv2XXO6gH6KwbKdb+oqH3/wfmAdxukX+2F0y1g/9vhw1+Vy50rpzsIySM4lSmz87daaSQ/Sia37MNugci+ojEK9BDN3nfX9wfffZ24NK0BoS2iv/SkQdOqjDm3T0eTCC+SeuweYAZ9oD0BYaGsoXaqUcR9UHsPEvp+ZfRNIOvzY+DqDQjqeePRhU9c5VZfyxJrGfnU9p1+7j7rIX1u3ypU6yxcCVqjDuL0/1k/sNohxUHnV8IwGgpnMr772hsyeM89YhcjvWA4syH9sfBI63r5zR8TrX+08az8b5Ugi8MsvqyNVqteIrF+/3iT733/3R1TJi+C8lQWfLTRutCPGnkq11QIlcv5FF0e0MSIC/07RWTbG77Tpb0VP68wScw7+KCRAAslB4LQGZ0beevvdaGTxTs9f8Gn0WE0Smvf6y8VLouecOygbevS83ZQVOjvNecmUG/GWO6kC4AEJHMEEoLt56XXO84e7jqcdpRFtNIr88MPK0E/zn3/+MfqLVupC+/FziHDU5GkEuoubQG9RszqpLulsh8jESa8YPxs3bkp1zR4gvPUbNkT27t1rTx2y1U7kCP69BPFKr3R63SO9zmvHeGTr1m1xBQd22hkf2o92fkVef2NK1H0Yxl7P9+dVqyJOHVdHRJvvGdLhFC//Tjde+4ifrgMXqVW7XkTNaXk5y/Lz2lhq0o7ve9j8FoZ9vAlD/onlb8PYsWNHRDte7aHZ6mzqyC2qY0DU/FYEZYOb4B1WE8tul8w5+NMGA8/rfvHy9BTiAsKNLVuc3uLNe0Hp9GLrvKfdBxPt4LeHh2zVHGYE5aB2Qh9yjSdIgATSToB63vrQ36Mg2kFl6ZGm5wV9C3QGme83Ef7j1ffwjNw44zy+z9CToIe5Cb6T8Osm0CGhH8RKRujP1OliKfsf++lO2VGn86eR2NWgssst1CDd0uknGXQ5lEfouxj/8oTI9u3eurwzXdgP0olj3Qcd+5V7bmXUJ3PmmHIN4eKZxNZh7P1w3qstAW5Q7vi1U/jFy97jcNr6lQtu8UT63Mp4N7c4p4N7otytmyDGcOcWL7x/eEes4HuDPjBdbsieim7d/EcveuyE0fM4MzehLvAjxxNGTGpho/bE58l9ur5bTl30GzbWL9M16TATRvOeTmsfKo0bn21M7GEGS+ebukkeHWmHEfCYcQuBCUSMmMNoiT66bhtGdZfRdd9gjm3AwHvVnN41Zv/IIcuUkkD2IrBG19bGbCqYzqhQvpzOqhpj1tc+uVZNk1CMWtquJhC73nSjOYY5jHdnvi8TXx4v+oEz/7gAk1tB5Y4JgD8kQALZmkCH9m2Nedfb1Qxc2HUXMSrXOXI/rYAw6raEjylR6DBeAn3HrnsZ6wbXypQuHXs61bGX5RPryC9e1s3hssWapHZd37Bx8mLn5h+zpNeqvnmSztywEoax2/PVypl0vrGrWaOonY703aTrFz/3wjgzqyM2DW7+7f2DtlgXGWaCYcGmUcMzgpxn2XXMcO+qM1zwHk6b8nqoGadh2MebIJjm8pJCOsvIT+y6hG5u/N5huEeZYmfku/n3i5eb+7DngsKNN+8FpTM2b/vFE0z8ZkDcpfU6vL+Y2UUhARIgAS8C1PMKeKEx57NCzwv6FhgLMGoFxkvgPygMN79u36jpM96SyVOn6XJNhaPrEMb6hcUIN79wBwsybvpBRnClThf7ZPyP/XQct2fmDC0ZdTpn/NNrP149EPf14x4br2TQ5VAeYZYnTMSjHLhCzQ+HEa8yI4xfNzd+5Z5fGYWw/J4JZtzi30tQ3/Irz/zi5RVmVp73Y+EWr3i+NUuWLDWm+WPr3EGMcV+3eM1Qs8q9tR4PC0qVdDme2XPmyi+rV7uuOezm3y098Z5jZ268xLK5ey0PjKBgsPIkpsH36itXNGthTqEj9yFdawOyb9/fgrXh8qnihsWyF3z2mTGrimuXXH4lNkYwfX7Sy+PMfpcbOwvMMN/U7RY1X7jTdAz379v7P5fckAAJJAuBHDq4wwo6adev3yDXXne9OQVzIK+/MsEM+sCJufPmqbmm9aYzF+tETnzlFeOug6414JQfv/vamIPxK3ec7rlPAiSQPQnA/A/M3SabNGrYQNfZ5LIRmfnc9u7bK08/Ncqs35bW+6KT6tWJL8vY556XceNf0sGI+eWa1q0Eumt6CkxhfTr3k/QMMkPCQn2gn5ocxn8yyfHVqknxo49Opihnm7hOfm1StkkLE0ICJJBxBKjnZRzb7BDyjz/9LCeeeIK2Ow6JticcrumiTpexT4Y6XcbydQs9WXS5Ky6/TNeSvcwtCYftOazpfXGTlGVeDttIZrOIwSwz1k6//rpr0yVlza+60iyThPWMZ74/S6ppvRPvTK3/JjKly00CAskBk3tebrZv3S7ldYYVhQRAAGtmYQQQZuQ6BbMY/EZoO90699VMl6hpALNehvM890mABJKXAMoDrIUbO4oMs/jxvqMMiUe8yp14wqBbEjiSCGCwVJFi3rPYLAvqeJYEtyRAAiRAAiRAAiSQHASo5yXHc2IsSYAESIAESIAESCBeAmH0PM7MjZfqEew+v4dJlUQ6coERJgcoJEAC2YsAygO3MgGze+LtyAUZr3Ine1FjakiABEiABEiABEiABEiABEiABEiABEiABEiABEiABEjAnUBO99M8SwIkQAIkQAIkQAIkQAIkQAIkQAIkQAIkQAIkQAIkQAIkQAIkQAIkQAIkkJUE2JmblfR5bxIgARIgARIgARIgARIgARIgARIgARIgARIgARIgARIgARIgARIgARLwIMDOXA8wPE0CJEACJEACJEACJEACJEACJEACJEACJEACJEACJEACJEACJEACJEACWUmAnblZSZ/3JgESIAESIAESIAESIAESIAESIAESIAESIAESIAESIAESIAESIAESIAEPAuzM9QDD0yRAAiRAAiRAAiRAAiRAAiRAAiRAAiRAAiRAAiRAAiRAAiRAAiRAAiSQlQTYmZuV9HlvEiABEiABEiABEiABEiABEiABEiABEiABEiABEiABEiABEiABEiABEvAgwM5cDzA8TQIkQAIkQAIkQAIkQAIkQAIkQAIkQAIkQAIkQAIkQAIkQAIkQAIkQAJZSYCduVlJn/cmARIgARIgARIgARIgARIgARIgARIgARIgARIgARIgARIgARIgARIgAQ8C7Mz1AMPTJEACJEACJEACJEACJEACJEACJEACJEACJEACJEACJEACJEACJEACJJCVBJK+M/fvv/+W339fn5UMee8MILBmzVrZu3dvBoSc/kFu3vyn7NixI/0DZoiZQmDTps2yevUaiUQirvf7Y+NG2bZtu+u1w+0k8+Lh9kTii8+uXbvkx59+FnzX3CSZ8qJb/HmOBOIlQB0vXmJ0fzgS2L9/v0CvxfZwF8Txt99+T4q4Hu4sD6f4JZP+sHPnToFuTklOAkG67PbtO2TDhg3JmTjGOt0JUM9Ld6QMMBMIsK0yEyDzFoYA2yqZEQ5nAslUxz2cOSYSt6TuzF258kep16CRXNupcyJppx8PAr369pOvv/5GZr4/S0Y99bSHq/Q77Xa/W2+/Q05veJZ88+136XejDAjpnvsGSf1GZ8m8+QsyIPQjM8gFn34mQ4YOM4nvfGNXWffrrxkGYsTDj0iDM8+W85tcLHv27JEXxo2XKW9Ok1W//CLdb7nV3Hf8Sy9LndMbmPMZFpF0CJh5MR0gxgSRmXnxfx9+JCfXOU2aXnq5LFn6VVLnxRiMPCSBhAhQx0sIW6AnN50LOp/95gUGEONgwx9/SKcbbhI00CeLoLPIa9BMWtOAQVXggfAfffxJ+ejjT2TLlr/kvIuayhXNWsru3bvTeosM879nz14Tx7PPu0A7W/7IsPscaQG76ZYZycDtfsmiy06f8ZacUvd0eerpZzIS0REVtluZlFEAYnVZNz36iy+/lEbnnCf97x6YUdFguElCgHpexjwoNz0vve+ESRfQdTKqnSY99DQM1MeA/LQOpHPjybbK9M5RyROe23cto2LPtsqMIps9ws3MvAhibvpkstRxs8cTT52KpO7MnTz1TTmjQX35cNZ7qVPFozQR+GzhItm2fbv8+ttv8sPKlWkKK4xnt/vNeHOKnHvO2fL65MlhgsgSN39t3SqTXn1Npk99Qy695OIsiUN2vOnmzZtl2fKvTdJmz52bYQ2f+/btk2eefV6GDnlAvlvxlRQoUEB+/nmV/Kqdx2iUnq+dypB+fXrLA/fdK6MzYWCDuWECP8yLCUAL4SWz8iKiMv7liXJ1i+by9bIlUv/005I2L4bASickEIoAdbxQmOJ25KZzbd7yZ/SbF2+Ae7UDcO68+fLvv//E6zXL3Le79jp5c/qMDLk/dAvw2L//gBkYiRloJUuWkK+/Wixbt22T2XPmZsh90yPQBZ9+Kpuggy1eJOXLl0uPIBmGEnDTLTMSjNv9kkGXBZNnn39R7h7QT+6/lx196ZVH3Mqk9Ao7NpxYXdZNj77g/PPkvbenyxuTpwpmjFOOXALU8zLm2bvpeel9p3///dfoOhk1QC099DS052BA/i+rV6cp+W482VaZJqRJ7dntu5YRCWJbZUZQzV5hZlZetNTc9MlkqePaNGSnbe5kTgwaHE6rV09y5MhhkvH5oi9M4wNGcn373fdS7biqcsrJJ6dKIkyHfbl4sew/cEAanH56tLHizz//lOUrvpY6dWrLp9qJU7RoUWlQ/3QzWw/hoqMHx7ly5YqGh8yMGVR/6KyEOrVrS6VKFaPXsIPZfcuXr5CyZcvq9VMlT5485rqNJ0zzfvf9D1LzpBPl+OrVo+mAI6QBIy0wmuykE2tIrVo1jV/7g/MLFy2SnJr20+rVlaOPPtpekgOaNoT73fffy3FVq5p7Ry8muAM+Xy1bLqiAWQHH4sWLS8UKFczMg3p160qJEsfYy/LxJ7PNM6hYsaIZEbfw80XGdFvZsmWkUcMzUrGMevpvB8/09NPqycKFn8deOmyOt2zZYuJSq2bKs7F5CM9j0RdfasPmv9JABxsU07xkBSMDvTggX5QrV1ZncGyRX35Zrek/zeTP73/4Qb7X59moUUMpVbKkDcpsbT44oOE2VKbOe2GGBZ4RwsN7YhvmbDzRYYQOy1w5c5q8Xbhw4VRhY6bO99qZX1Dz/llnNhLndZvH0Nl/XNUqcuopp6Ty6xevVA7jPPB7p8qULh19B9G5+cWXi6XJhReYvPehzow5XZ/L0q+WSa7cuaTOqbVl5qxZ5u5//LHRnMfAEC9BubB23Tqvy1l+PjYvIp8hzWfUr28GZPz+++9St24d867ayPrlxR9//En27N0jxYoVkyVLlkq1atWkVs2TZP36DfLlkiVaXlWTE44/3gZltn7P3Csv2nieqXl3mZaVSAfe+zJlyqQK2y8vwiEGnnypz7tUqVJST9OZN2/eqP+gcjrqMM6dRPIibmHfc3w3fl71i7RpdbV8oLNyP1u4UONeV+ZpJ8CFF5zvGZvDPS96RpwXSCBOAtTxMk/Hi300KDdnz50nVStXlqr6jcf3pNEZDaJ6AMq/v/76y5RZ1u/f//yjfnQA1q7dRqc45piD+iDc+H0jbBhuW7eyFh0AX+n3HGWl1cuhU3+meia+e0WKFFb93V0H+mT2HPn6m29l6pvTpYTG0Za3Vq9x050T+SbGpgX1iJNVl//zP90x9vrhcIy4oU5i9T2bbuie0Kmg8+MbbesziLNXfcV+36Fr4hu+a9cu1f0ban0qvyxWvQLf+3PPPUcK5M+fKun2e17s6GJyVqNGkjv3waoq9Ncv1S/qPvW1Dle0aBHj18azZImS+o1FR3R5qX3qKXLUUUdFw/bTeeDI6gobNW/VPvXUqD5pA/CLl3UTz9by8XqvPv1soZQsUUKqq75lBTosBHVKSJBuZBw5fpJBf8Asr7p16phYW0Z+uiwcenGw+SIeXdbmA7e6PWZ5oS6MjgHUzVF3z6l1KBvPIF3Wqw3CPiKbxzJTl/V7p3bqO2vzGtL+v48+NoMNUddMqy5b44QTTLJRDpRW3Z1yZBKgnpf5eh7KWNTt0T53ysm1ojqUbR/COVicq1HjBMF7anUjrzaff//db9qb1q37TU499WSpWqVKqszsp/vFo6d5xc/r245OZtvW8+5778s5Z58VLc8wqxhl+WbVKaCjONvX3Mq2VAn674BtlWyrdMsXbnUWuEO+YlulaHtiSru51Zv89Duvdxs8E9HvEimLbDyD9DsvPRRxhWS2fueX37zq0Kh3oI8GdUCvul1Kag79TYY67qGxTv4zB2vI6ZiWNX+tkWcWjJZv//gmrlBPKl1Tup3ZQyodXSmUP7xcubVjxsqwh0aaivtv2nGRP18+U9kaeNcA6dypo3Hy9jvvym139pYq2jgF6b26v0x57RXTybHim2+k5x29pMKxx5pGiuUrVkizq66UZfqhR8cAOtTQofXyuBeMX7wEl1/VwuyXLVNaG4b6yYjhQ83MKpzEiP/effubRg9MR4e8M2Oa5M+fT2w8F2unCCpJqJy3bdNaHhw8yLj76eefpfnVbSSfpqFihWPN9bv695UbO19vrn+mHZztO3Yy6diujVdQSF6bNME0wIDJTV1vNg1q6BjAPVq3ainDHxxi/Ib5QQdY8eJHS+VKlaIdzOBze68+smLpl9EgYD4OnbudO10nIx5+VJo3u1J63NzdXMeH7Mau3eXt6W+aBrU27dqbxjM0AqFB6LzG58oLz6aY0HK7HwLJlTOXHNDKYyLy97YfZePSQbJ385LQ3vOVqCul6twneYpWD+XngM66gKAiD7F5qErlSiYf4rmio3valNdNZzsUVj8OyBeQrdoRuUsVUCitXW68wcz+hZJ5Z59+5jlD6YTYfFC92nHaCPW3aSB849WJcmKNGqbRrNU17c0Mi5P1o3lH777y8Ijh0qLZVdF4Iq/v3/+v7Ni5y6z5++bk1wVhQe65/wGZ9MqrJn+u1I49FOrvTJ9qGvKceQyDJfCuOPOYX7xM4AE/xx5b3jQEw9mVV1wuhQoWMj6C3qlWLZtHG99gtqnbzT1k1crvzIAMmI9EhQSKPcJE2l97fbIJd6KmEx8sdOaerBWYQoUKmU7xi5tcZK7jJ1euxI0YrNm8X57+QAeY/Bp+1lLNY4+S7k0KScUSB8u3aGRcdmLzIkxGI80oA9CAisoy8pMt74Ly4rS33pLZs+caf8W1QRXruHbrcqNMmPSqljuVzLvcp9cd0r1rFxMbv2eO+3vlRRtPlAurdAADGi5RRj/28Ai56sorTNh+eREOYIrvkceeMAN3kBfR6Txh/DjTyBtUTpsb+Pykd17ErfCew/wmKtPoeEZn7uQpU00sUF6jEwLlY0bkRZ+k8hIJhCbw0+97ZPCr2hj0867QfuCw7nEF5Z62x0q1cqk7b7wCoY5XWTJLx3M+A5RPN996m65ZucmUpbacnvnODDnhv0FfaBj7atmyqB4H/91uvlU2qh+rf08Y/6KcqYPQIH7fCOPA48frux/RQYvde/RMpRPNfP8DGaxLNHy5cIGvDvTezPfN3VDeTp56tOnMdeo1brpzPN/EAgULGGst0Bvq1asjx6q+YQWdixjoF69sWbNL5o3+UTZ8sz0ur2VqFpGze1SX4pUKhvIHDrZzHB6c6S5frpzR9y7SOsLYMaNNeH71FZtvUM/5Rzv60YEOPQyDA9DoAT0X9ZeF8+dIwYIp8RvzzFh5+NHHo7ondLXJr00y19HJ3rptBymnA0LROddVdbwPZr6jg0aPi8YT31UMYv151Sqj5015/RUzGDdI53HqClbncdbp/OIVBqzb99zy8Xqv3v/gA/lJda9XJrxkboFn06X7LVrP6mb4+OlGbvdDIGnRZX9b+6dMfHa2/PT9+jBJNm6q1SgrHbo0lvIVUw/sCArAxtMy8tJlEY4fB2f+tc/VT5d15gO3uv2AgfeY2aSNzznH6HLn6WAE5BMbTz9d1q8NAunISF3Wq0wKeqfWrl0no594DNEzHdaoV8EaVTGt+4XVZb30aISJ9x4WDCiHH4FE3nekIt53HuUa2/Iypy0Pz2f0mKfN8g9ov7HfSbQdoe3DtmMdo4O20DDfs8fN2i5ULdqu6NbmgzDvf2CIWjTbJlv+2mraGsY9/6yxrodrfrqfX/uAm57mFr9KFSt5tq1hMIqzrQedr9BHbDkP/QM6Rs/b75RHRz5k2n0RZ7eyLSPaKn/4/QcZ8MoAWfTTItw2lNSvVl+GtRsmJ5RLGQwT5Cm2fcgyZFtlSlu6WxtqEFNc9/quedVZbPv/4dpWeWD3T7J71VDZv/2rMMk3bnIVri35j7tLchU4OODQz3NsXrR6k5d+F6S3x6vfJVoW2Xj66Xd+eiiYZKR+55UXUY555TcMzvOqQy/+/FPxq9t56ZNIZ6J1XPilJEhg+84dEa//X3/9TZ91/NL/7d6RK5+/JKF/+A0j2hgSOff8iyITJr4SdX5Vi1YR/OvH2Zx7cNhDkYZnN45e18p4Kvedb+oauWvgveb6J3PmRKpUrxGZv+BTc6xr9pjjiZNSwl+2fLk51rXBzHX41Y9/RJVQc6yN8eb69u3bzfEll18VeeyJJ82+NmJEho8YGdEXwxwjjqedcWZk06bN5lgrU8Yv4gDR9WYigwY/GEEaIc+/OC6aDi1QIrVq14tooWCu4f49brsjoh0g5vi5F16MnH/RxRGdmWiOf/hhpQlbCzBzjG2LVm0O+XdyNA5jfhA33NcpbTt0NHHDOTVXa+5rr6uyGGlyyWXmcOXKHyN39ukbTa9lqSOUrXPX7RuTpxhOloOrI4+T6z5pH/lx8olx/8NfWJk2fUYqJjYPffC/D00QGzduMuzfevsdcxzEAfmiddv25rnb/I18gmcOQZ67b9Bgs2/zgc2fOmoyooMHjH84+PCjj829daaKcY98jXwEsfEc9dQYcwy/2tkbuaJZC3MMPwPuvieis3rNMd4nPHubjmeff8E8F6QPsmLF1+a6DngwcYVbr3jB/Qsvjj8k/yFPLl68BJc9JeidsvdEADr72aQf+0gP3m2UB07ZunWbOf/jTz85T7vua4XHuMU2Xuk3aWvkioc2xf3fX/2Fldi8aNOsDdsmCJRByF+2vAvKiw89/Ih5plrhMf6RH8AQzxjyvOYllDOQtORFG09d9zxa3r36+hvmXjpa3zw7v7yoAyaMWzxvCMpffBfU/Lk5DiqnMzsvIlJ4Dle3aRd9r01E9QfvH9IeJGnJi0Fh83r2IADdzUuvc55PVMfr+PDKSK3uSxP6h98wYr+BTt0E7w7+qeNlnI6nHbkR7TCK4Htr9UhbTtvyH8/vydFjjE6CfbUkYsph6HlWnhj1lPmG4DkGfSOsH7et33f/us43Ru65f1DUW7trO0V1JD8dCB5iy9sg3Tmeb2I0Qi47YAR9K16Z3ntp5JlL5iT0D79hpd9dd0du6Xl71DnSjW+/LStQP8Gx1d/96is23zz6+BMmPO1oNX5RZ4HeafPFu+/NNNft9xw6JQT+UY9AXoJAh8O308rLEydF1AKQObTxtLqADtAzusBDIx8214N0nutv6BLBv61vIGzUH6E7BcULuiTiFVu36jvgbhtV163l4/VeqeUnw2v9hg3Gv1r8McfQveHXTzdyvaGeTIv+8NDAqZEbW46K+3/43VO8onPIeZtHUC+GWEZeumwQh3jfWz+dcctffxn+tp0Az2Xwg0MjOighGk8vXRZp8WuDsHnM5t94ddlE6/ZB75SzLMC7gHcfdXhIWnVZhIE67utvhM8f8ENJIZDReh7e20Ted/gJ+85Tz8vctjz7TcG3BLJ79x7zjbV6lG0fgv5kxa/Nx5bPaLOE4HlCL9NBH+bYfuNt+0w8bVUIIFZPc4tf0Lfdra0n9ntv23ytXuNVtplExfykpa2y+cjmkfJdy8f9D39hJbZ9yDJkWyXbKp15aOeKzpGtC+rE/b9j+fXOYHz3Y/OiLT+89Lugdzse/S4tZZGNp5d+F6SHplW/S7StEuWYLXvxYJxt4zh2q0NDp4X41e2MA4+fROu4HsEd8afD6HkZMjM33hm5zn7oMH4x8lob7M2IziZNLnR619HwTaMmNptcdIFop4OZBQWTYJhFBvOrMGcJUyCYdaCVk1T+G6oZOYg1KwQTYBBrrhnrEMEsG8y03dytq9niOkawQVbpjFSYnD3llFoyfcbbOoK8nJmZgLWKnHJ1i2ZRk8QYqY6R7jAZh9G+MPmGWcAw+7x27VozMxdrbmmONiZTMZINs2EhmBU66vFHo0HDtDFmUWrHWPQcZod+rTNrMfMQ+zdc3yl6ze5UqVLZ7ia0veKyS0UbTeSbb78zM4TfnDZD2re9xoQFE2Ejhw+TlT/+aMywYHQ+BGmCWWEvAYfHnhwt1U+sJe+/85Ycf3y4GbMIL54Zuc77h/VX9fgTjTespRor55/X2JyC/fiGZ5yhM8TXmOMwHJo2aRKdFYEZuDl1ZgdmaEPOVPN0M2d9YPZh6gb5oITO2P1IzR9CKuiznTptuhk9bVkNHT7CjDTEaCI7Q8Y41p9r27c3uxipiDyhSrPs1hmdGJ2JdWRhDgL5fPWalPjDPBhEPwbqt51ZAw7HMAFuZ2xrJd83XpjxgXSV0dnssVJeZ+T6SdA75ecX1zAjN1HBLPX27drKhU0vlWtatzJ8woYVz4xcZ5jfhJzJ65cXL7vkEhNkbjVTiPJwjprNhITJiygvrNmh0zT/wOSmNa2MZ6iNQGZWTXrkxeuv6xjN962vbina6WxM5SPP+uVFmBFH3oYJfAjKvtkfpbwjGO0dVE5nVV7Ed8q+1ybicfykJS/GcRs6JQFPAvHOyHUGFMYvdbys0fGgU3RTiw4oNxcv+izVsg3OZ+i1f33HjtFL1193rTz+5CizVihM9vvpKzDte+ttd0T9YmfEsKHG0obfd79l82Zy1z33yT1qgUc7Woxu37d3SjhhdCDnDYN0Z7gN+030K9s7dmhvLO9o46GxHOKMg99+vDNynWGF9Wt1CczScQrqJXaZjnPPOdtcWqN1E+jvfvUVG8ZFF1xgdo9V08cwvX2B6sjQO8EJTHVAnbmO7zkEs2b++DhlHc3qasYWeiUEZm1Rp8MId+jZHVQnQzhWYJXD6gKY8Xe9WmV6592Z5rKfzlO6dCljzQgzYO2sZOi4+IcExStv3jyC/B4rWK4nLQIz0aizzfrgf3LdtR1EO72NNSTULSB+upHXfRPVH7T6KT9+l1IH8Arb63zYmbzQKV8YN95YuMJsMKd46bJB9RWEEfa9xYwCP53x5Fq1zBIgyH+w8gMz37D+BYF1H4ifLuvXBpFWXTbRun3QO2US5fOTFl0Wwfbr00v69r9L+t89MK7y0CdKvJROBMK+t263C+OXel7m63mwRoLyEPVmCGYLolwa9dTTqR6jbcfCSb82H1vuXXH5ZcY/vp9N1arZ8y+MM8fp0T5gAor5ccbP79vu1saItgEsBwKLhvZ7D0tgD6mFQega1k/Ysi0tbZXxzMh1Igjrz+p0bKtkW6Uz/xy6H5F/ty899HSIM/t3hJvJ65cXvfS7MO92WP0uPcoiP/3OTx9Pq36XaFtl0ONr2aK5aW911qH79+1lvPnV7Zz1rth7JFrHjQ2Hx+EJZEhnLswlh+mUdYsm/AZJkcIpayShcUhnt0Y7HOAP63tayZcvxZSfjgQzp2AWGOZFYFLheF3vMW/elE4y6x6Vf2syV1sIzOncjjVyrTu73tXrk6fomrkHCz8UKDoqzTgbOKC/jH95gsA0Fyopl15ysQwd/IAxoQkHzjVucYxOk99/TzFdpaMhjEldNHSgMm8bhtCZCzeIpz0Hv05Z8XXKulSoEFuBYmLXkMR6tWi4SA+BQmQF90AHtDWLgvWELrsspSNptXZmdrrhJmMGGJ3iWG8TEtE/P4F5anT4QmB6NB6ByeSwHbPOcOEvjFytBeCUN6cZxa9D+7ZRL3g2VjnEyUKFCmonfEr+C8Mhb56D63vl0I76o3I7jw82Wtm88pLmMacgD6KRwZqmG/PMs3JN+2tNA9qQQfcZJdu6L1w4xXwxjo9Rs9qQzTrAoWTJUnKLmliEsotBDTBZh04y+7yQjqYXHTRBbDz+9xMUL4Rzkq7HdqI2ysVK9N2LvfDfcdA75fRm33nnuaOOSry4g9lJrKUNwVrG8chJajI5kQ5dmFoOI155EX6xNp2V/LounU6GMYeh8qJj3dkckkPyONaey5HjoNnpoGceJi/CZKIV5AM0TKFBFyZW/PKijlgya+NZv85tmHI6q/Kik6UzzmH205IXw4RPNyQQRADmksN0yrqFA79BQh0v63Q8dGZAsF7k0Y5yOfaZQR+NFaxxagWdLBCU47bBz0tfKVyosA6Sam29mm3RYikdYX7f/Qt0wN8uNcuPNX7QuYglVDCYEhLmu2Mc/vcTpDvDmdWjse/3TcR1L1m1arXXJd/zMJcctlM2NiD4jUcQx9PqpTT2wh9Malmxa9Da5+9XX4n6cei1OJdLB5dZcep9+J5DnPUXHGOgIsQ2GI9/eaJZWgGdtyMfUnODWp+DlDgmpZPTHOgP1ve1gxH9dB6rK5QqVdJ6TbUNihfqY2jATg+xXBEWGkzatL5apk1/ywyOxWDNkWrSFxKkGxlHLj+J6g+oElc/sVxCHbowuxpGTtdBgnj2WE95n+rczrWUvXTZMBzCvrc2H3jV7ZFXX39lgjyt9Sose4M2CJghvb3nrdHkeemycODXBpFWXTbRun3QOxVNmO4486Y9nxZdFmHYgRKXXZrSXmDD5TbrCeC9DdMp6xbTMO889bzM1/NQzqCscEpJbX9Em519v9GO5Wys92vzseGkKp/1e2glPdoHbFh26xa/eNoYbTlfokRq0/9YRgLL9FkJW7alpa0SJpPDdszaeGELf2HEq32IbZUp7e2edZIjrq0yh+QuUiehDl2YWg4jXnkRflOVH2yrNDidfUqJtlXGPpfYtnEslQk91lmHxqBFiF/dzvl9iL1HonXc2HB4HJ7AwRp1eD+BLrHubVrWzA26QdGiRcwIzmYtW8uiL74wM0GD/GDBa3TkYu0XdKxCho94WGd/fRfk9ZDr6HjFh3DEsAfN2oZwACVo7959ZpQbjnNqJzBGu2ENWWt3/N2ZM83auLiORbudgoakKy6/1JxS87dmZPK9A+8yChVmDGBENqSajlbGi4d1yeysOTX9rGtUbDEc8GJinR/nTGBUdjH6DoIR3lgLLVa6db1J+va6M/Z09Di/dozjvlu3bTOzNVAgfPvd9zrb78KoG8ySwMg2dF5iJH/pUimdxm9MmWLWt5qps2sRDzyLlyZMjPrz2vlCR+lj1vJ7b0/3cuJ5HmvfJrpmrmegjgtYIwmVYDVRYBqTHJc8dxPl4BYgRitBnh49yqwNin000qAj2XYmo4EL6xLjvJr8loH3DTKzKOAWsm7dr2bmC/Z/0DVmIeV15sTcefNNR+782R8fHKF4RTNzHT9oQIt9b9SEhFSpUtnM+IQbv3gNfnCY6/N/8fmxJt/Av5v4vVNQBJxKuG3AcwsnkXNghcoO1hGIHYgRFB7Wvk10zdygsHE9O+RFNf0XtYawffsOWbtuna6DV1VHBH/umxdPOOF4MwIY5a9VLrC+L2bKoEM4qJw+0vJimPxENyQQRADr3qZlzdyg8KnjZb6OZ5/Jt8uXmo4KrH87480pRr+AZRsIGuZsx9nPP/9svUS30HUx+xKCtRYhWM901+6UtZX99ILmza407mN/fL/7Wulv3aql0Y9Xqk6Nji+neOlAVkdyVmyDdGdnuGnZ/3j2bGMJ5e4B/eIKBuvepmXN3DA3W7XyO7Ne7UeffGK4hvHjV18J49/ppkaNE4x+adeIxTVn/QXHsF7T7KorRZdhkFtv7yVjnh4rTzz2CC7J92qxBoNM7fP9/vsf1KpSSsOEn/5t63RwX7VKFRMWBkXi+FQdUBsULwwqbnDm2caf8weDV7G+qJeEea9Qzxj5yGOiS0eYYBr/Zy0qSDfyumdadNn2N52b8Jq5XvFxnseahMsWL5JT69WXVat+MXnBed1tP1EObmHZfOBXty+ms60xA+PBwYNEzVSaNccuu/RSU+9GmF66bFAbRFp12UTr9oiz1zuFej+sg1lZvebgvj2X1i3WXn/26adS1U3TGib9pw8BrHUd7xrZuLNdMzcoFtTzMl/Pw0D6F3XAjLPOrMuxmfq3rUPHPje/Nh+3CS9O/2lpq7Lfcaee5gzb7vt9260bbCP/DWa35TzaYe33ft++faLLHZjBOU4/YfbT0laJtW8TXTM3TNyyQ/sQ2yrDPOkUN2nR7/JXHZDwmrlhYpgd8qKXfhekh6ZVv0u0rTKobRwDJmFtEn1MqENf06ZV9FEmWrdLtI4bvTF34iaQO24fITxUOrqSDLt8ZAiXaXNSuXIlnWmWMusxKKR8+fIaJ2u1UwadkjBhjMqxNacc5D/2ehttQNI1IqRkiRKmE2vCpFeN6a95sz+S/DoqDeZYW1/dQs0hd5IdO3aae9oR7QgLI6zPUXNlDRs0MDM8l69YYTqHcQ2jyTEjFR2nf6npOJiqs1K1SmVTwe0/YKDcf+/d5nS3W3oasyk1dcbjJRc3le5qJq927dpqlvcMY6IZHY4TXxonjfQY95z7yYc2uOgWMyP8xM6m1bV/pU2rVjLjrbdNmpx+YCpa1wITXT/XdJrba0WKFDWdz5v/3GxGWj/y2BP2ku8WC6VXqpgyIt/XocvFPEWry7GNgzuMXbyGPhU7ujHIY6Ic3MKtojNQ0NHdd8BdgkZBzEi/74EhOptmo0x+bZK89sZkM3MBjWKYdbtzZ0pjqnMWhK6RIpitq+s9yQNDhgoaU6E8Fy2SMotjzdo1Zkb0W++8a5RcO9jgMjWpreuhGHPJZzZqJG/r9XsHPSCfzZ8jQfFCWnreeovc0LnTIck6pnjqUZJOB1C0/d6pmiedJHgHke/z6CwQjIBPT9l/YL8JLt6OXHiqVCKXDG+XMssoPePkDCvZ8+JDIx8xM/aRB4aruXZ0xB5fvbp8+0/KYBuvvHj2WWcKTIk//OjjWtZ2NB3urdt20MEET5ow/MppNModaXnRmWe4TwKJEqhWLr+81Kt6ot5D+6OOl3k6Hh4KBr9gliE6M3StHbmjVx95buwY/abmMfoGBkTCDczivv3ue9HBjPaBDh4yTMqOLiP51OoN9As0AuLbhA42P33F+o/dBn334b7ZlVdKu2uvM16feergdz9IB8IsTl1nUvANwSzeIN05Nm6JHqMRtUKFY+P2XrxSQblqZLgR8HEH7vBwrC53oeuVOs747/rVV/x9HnoVyyrA1K6ux6wmlK8xprO7du9hlsi4TfXGXn37y3YdDDp82BDZs3uP1q22S3nHUi2oNz3y2ONq6vY6s7TM02OflYeGDjE3CtK/MRAAOjTSX7FiRXlw6HCtJ66QWe+9Y5Yo8YtXcdWx3epVzjrfoamVUO8VBkdguRbUN2EFCO8nJEhPd7sfzqVFly1f8RjpN6SlV9Dpch7We1DGHPhP5w4KNFEOXuH66YybNm6SppddYTofYc4bdXSIcwaXly5rO0q82iDSqssmWrf3e6dO1MEVGAg87qWX5VQdmKDr03lhS9P5smXDzdxO003oOW4CmfG+I1LU8zJPz8M3doh+29CuiKWjftLBz4/pfu87b/fMH35tPrm17clPgtqE4tXT3O4V9G23s/7mzp9vBuNjRi6+94O03QtLfpVSa3TouMC3FdYQ45W0tFWeUO4EebP3m/HeMi73yd4+xLbK8I87LfpdzgLVpFCtF8PfLAGXyZ4XvfS7w7GtEo8nTNt482ZXSZt2HczTfGbMwf6mROt2idZxE8hO9PIfgQzpzM0surl0PVFd0DrwdujAQmMUKvX97hooI7RCgnWbYIPcaSo4MCCHg/59+6g52z3SVhuR0DmMyufDau4LHQQQ3Ot+bRhAowQEswcud5gRwnqywx4aaTptERfMGLZrfN15e0+5oUt3qVe/ofGLUehYZxaVQaTl2WfGyJ3aadr4wqbmOmYU3HZrD7PfVGfKDrrvHhl47/06W/dPcw5moOxawBiFUeC/mRPmYsgfdGINvv9e7Wh5RN6YPFVgEx1rbuTQPytYN7jV1S1l8pSp2sjX2J6WVi2bm3Vdsc4xBCwgTr/mRMwP1llzmmOLuZzlh7lzpbw+MK2dO7f3q2RN0ibKwS2h6HQd94Ka+urdTxpf0MQ4QWPpY4+MMPutWrYw65w0vfRyc1ymTBl56snHo7MXkV8xa8WZhwbff59xi5kIyJ/tO15vjjG7AGHbdGD0/D13DzANX8hjCAv5187E9osXAoTpRj/zjeamMT8wk+b3TnXXmeUweY5O5iqVK5uZL3jP/cQ2rtitn1vMukc6D1cJmxdz5kx5Xw+nvAimrbXcgKUFCPLac2OfNhWroLyIhk6M6r//gcGChlsIrAxgrQdIUDl9uORFE1n9yQ550aaFWxJIKwHqeJmn4zmfFUwkP/vMU3LRxZfpIMWxZrYCZqJ16X6LWbYBS2pgDc9ff0sxi2vLLeh/l1x+lQmqXt26RlfFQZC+4ry3cz/ouw+30EOhQ2MwI/QcK0E6UJebbpCbut1sRiRjNnKQ7mzDTet2967dkkv1+MNVMNMmTL3KPnO/+kq8aUSn+vP67b9XBwLYQawXN20inTpea4Lq36eXmY17xpnnmGPkMaeJW+TLr5YtN7Nkoa/BOhLyJCRI5+nfp7cxB271EOiRY0anDDwNihfyt52Rbm4Wx4/fe2WDgXm6zxYulOZXpbxbOB+kG1m/sdvDXZdFfNGojnj6idVlE+XgFbafzoj6/YB+fWTAwHtN/Rp57P57BxoLR9aUvJcui/v5tUGkVZdNtG7v906d1/hc8/5gVgjK2Dtuu1W++HJxKD3Vlg9enHEeg/HRfpI7dy4/Z7yWzQlQz8s8PQ/ljP3GYp1clGFoz4M+5yV+bT623HP6db77QbpfvHqa8z52P+jbjkFVmPSAAVkfffyJYJKD/d43v7qNCQbtXK+8PN4sKWbDDbtlW6U3qbQ+f+RPtlWmtNs53ysv4oe7fse2ysxrq0QeCdM2Xq9uHVN3xqS9MqVLR7NWonW7w72OG01gdtrZvnNHxOtf11bQDvbDV7SjNKINRxE1ERI6kv/8809k/fr1Ee2AC+3HzyHCURNbEa2UuDrTzq6ImrlNdU1nPEQmTnrF+Nm4cVOqa/YA4a3fsCGyd+9ee+qQrVaCIvj3EsQrvdJp74HwEg0TLNTUlA3Kd6vT/SPgpObFfN1l5UWd0RqpUr1GRNdGjmzfHi5diG88HMKkTwcVRLZu3ebqFHkP93PKJ3PmRGrVrmdOwZ8q487L0X2c98qfcIQ86pf3/eIVvUkCO27vlA0G90xvQRrvGnivyY/pHXZ6hZeseXHHjh3mHVLzRqasi82rlk9QXoS7LX/9FUH57iZB5bSbnzDnmBfDUKKbzCYA3c1Lr3Oep44X/GSCyg63MiCZdbwgIkHfWHyL/tq61TOYRPUCN864CXRK6DNqQcT1nm46kHWogzkj+AbFSkboztCXdF0iE1ddyiL2lofN8cLPF5lv8vwFn4bW9cPUV+JNIHRTr7yGZxart+qswcgtPW83t9F1mj11AeQjv3oIdAi//OsXr3jT6HTvlVanG7f9MLqR9ZcMuizi2rZDx0iffgNMHdjGPWgbD4egsHDdr9xHfkceQ/lhJawuG6YNIit0Wbd3yqZNB3ekSqs9n5Yt8rtaRzNljVf9NS3hHwl+qeexLS8t+RzlTDzteUFtPkFx8dP9EtHTYu8X5tuOsswpKI/99AGnW7d9tlW6UXE/F+/zZ1ulO0evs8mg37GtMmvaKhOtX8RTt4PbZKjjer0/h+v5MHre4Ts8PESPOUxOwTzL7WoKLqxgBiVG72O0UHoIwimhJju8RsxgmrqXqS34KVmyhGs0cA0jJDAzwUswExb/XoJ4pVc67T0QXqJhgkWRIv7mnO19tPPMsPEbLWjdZtUWI6GfePRheUXNdc+eOy90NOLhECZQrEOMtWfcBHkP9/MS+MPINzfBea/8CffIo3553y9ebvcLe87vnbJrQ4cNK4y7518cZ8xM33dPiimkMH4y2012yIso67zyalBeBG/MsvWaIR9UTif6vJgXEyVHfyQQTIA6XubreEFPJegbi2+RtVDjFlaieoFbWTt9xltmzUqYZsXMWjfx04Fg6aaQzkKOlYzQnTdu2mTMBLds3swseRJ7z8PlGBaLuuqsZdSrdEBpqGiFqa+ECsjhCLqpV17DM/PSWxEE1sTz0gWQj/zqIfDnl3/94uWIfty7XmkNCiiMbmTDSAZdFnG9e0B/s/bsM2Ofs1EP3MbDITAwdeCnMyK/I485l61xhumny4Zpg8gKXdbvncJMaa+0OtMdz/7cefPkhRfHy/AHh3jWX+MJj26TlwD1vKzR81DOxNOeF9TmE5QD/XS/RPS02PuF+bbbZQqsX5THfvqAdee1ZVulF5lDzyf6/BES2yoP5Rl7Jhn0O7ZVZk1bZaL1i3jqdslSx419b7LDcQ7M0vBKyPatuh5R+XJel3k+QQIw/9qgfn05V9evpZBAZhOAye6XXp4gI9UsOIUEspLAnj17pU//ATJAzdbzW5OVT4L3zk4EfvvtdylSzH2AjzOd1PGcNNJvnzpe+rH0C0ktt8i+v/cZM7yJmrn1C5/XkocAOvY367IfN3a+PnkizZhmGwLUZbPNo0yahFDPy9pHRT0va/nz7tmbANsqs/fzTabUUb9LpqeVveIaRs9jZ272euZMDQmQAAmQAAmQwBFMIIzyBzzszD2CMwmTTgIkQAIkQAIkkJQEqOcl5WNjpEmABEiABEiABEggkEAYPS+pzSwHEqADEiABEiABEiABEiABEiABEiABEiABEiABEiABEiABEiABEiABEiABEkhSAuzMTdIHx2iTAAmQAAmQAAmQAAmQAAmQAAmQAAmQAAmQAAmQAAmQAAmQAAmQAAlkbwLszM3ez5epIwESIAESIAESIAESIAESIAESIAESIAESIAESIAESIAESIAESIAESSFIC7MxN0gfHaJMACZAACZAACZAACZAACZAACZAACZAACZAACZAACZAACZAACZAACWRvAuzMzd7Pl6kjARIgARIgARIgARIgARIgARIgARIgARIgARIgARIgARIgARIgARJIUgLszE3SB8dokwAJkAAJkAAJkAAJkAAJkAAJkAAJkAAJkAAJkAAJkAAJkAAJkAAJZG8C7MzN3s+XqSMBEiABEiABEiABEiABEiABEiABEiABEiABEiABEiABEiABEiABEkhSAuzMTdIHx2iTAAmQAAmQAAmQAAmQAAmQAAmQAAmQAAmQAAmQAAmQAAmQAAmQAAlkbwLszM3ez5epIwESIAESIAESIAESIAESIAESIAESIAESIAESIAESIAESIAESIAESSFIC7MxN0gfHaJMACZAACZAACZAACZAACZAACZAACZAACZAACZAACZAACZAACZAACWRvAr6duTly5pA9e/ZkbwJMHQmQAAmQAAmQAAlkAwLQ2aC7hRHqeGEo0Q0JkAAJkAAJkAAJHB4EqOcdHs+BsSABEiABEiABEiCB9CYQVs/LsX3njojXzf/9Z7925u6WyAFPJ15eeZ4ESIAESIAESIAESCATCaCDNn/+ApL7qFyBd6WOF4iIDkiABEiABEiABEjgsCFAPe+weRSMCAmQAAmQAAmQAAmkK4Gwep5vZ266xoiBkQAJkAAJkAAJkAAJkAAJkAAJkAAJkAAJkAAJkAAJkAAJkAAJkAAJkAAJhCbga2Y5dCh0SAIkQAIkQAIkQAIkQAIkQAIkQAIkQAIkQAIkQAIkQAIkQAIkQAIkQAIkkK4E2JmbrjgZGAmQAAmQAAmQAAmQAAmQAAmQAAmQAAmQAAmQAAmQAAmQAAmQAAmQAAmkDwF25qYPR4ZCAiRAAiRAAiRAAiRAAiRAAiRAAiRAAiRAAiRAAiRAAiRAAiRAAiRAAulKgJ256YqTgZEACZAACZAACZAACZAACZAACZAACZAACZAACZAACZAACZAACZAACZBA+hBgZ276cGQoJEACJEACJEACJEACJEACJEACJEACJEACJEACJEACJEACJEACJEACJJCuBNiZm644GRgJkAAJkAAJkAAJkAAJkAAJkAAJkAAJkAAJkAAJkAAJkAAJkAAJkAAJpA8BduamD0eGQgIkQAIkQAIkQAIkQAIkQAIkQAIkQAIkQAIkQAIkQAIkQAIkQAIkQALpSuD/2NA19pHa1y4AAAAASUVORK5CYII=;" vertex="1" parent="1">
          <mxGeometry x="-250" y="80" width="1907" height="423" as="geometry" />
        </mxCell>
      </root>
    </mxGraphModel>
  </diagram>
</mxfile>
